<?xml version="1.0" encoding="UTF-8"?>
<svg id="OBJECTS" xmlns="http://www.w3.org/2000/svg" version="1.1" viewBox="0 0 634.57 634.57">
  <!-- Generator: Adobe Illustrator 30.2.1, SVG Export Plug-In . SVG Version: 2.1.1 Build 1)  -->
  <defs>
    <style>
      .st0 {
        fill: #fab0c3;
        fill-rule: evenodd;
      }
    </style>
  </defs>
  <path class="st0" d="M288.06,226.79c.4-.83,1.41-1.68,1.78-2.46,1.28-2,2.17-4.28,2.59-6.54,1.57-6.82-1.64-14.47-8.66-16.46-3.26-.6-6.41.8-9.27,2.22-3.89,2.06-6.9,5.64-11.22,6.9-.65.22-1.59.42-2.35.27-.11.09-.24.16-.39.23-3.69,1.13-7.75.74-11.39,2.24-9.76,3.27-9.52,16.77-2.21,22.48,3.59,2.99,8.38,4.61,13.05,4.44.24-.15.51-.18.79-.18.69.02,1.39-.03,2.08-.14-.53-1-.97-2.05-1.33-3.13l-.03.02c-.75.39-1.63.35-2.45.34-3.22-.1-6.47-1.14-8.92-3.28-5.05-4.47-8.05-12.7-1.12-16.98,9.61-5.63,12.35.37,24.53-9.1,6.51-5.25,13.76-4.48,15.51,4.55.84,3.9.77,8.43-1.6,11.8-.15.17-.31.29-.46.37.45.77.81,1.58,1.08,2.41h0ZM370.42,259.02c-2.02-2.52-4.07-5.01-5.88-7.68-.52-.84-1.12-1.7-1.21-2.7-.03-1.41,2.08-1.61,2.33-.22,1.72,3.34,4.37,6.12,6.61,9.12.95,1.21-.84,2.68-1.83,1.49h0ZM358.11,237.57c-2.45-4.68-4.45-9.58-5.97-14.64-.91-3.44-2.18-6.97-2.09-10.56.07-.58.57-1.03,1.15-1.03,1.3.05,1.2,1.28,1.2,2.24.85,5.45,2.59,10.74,4.58,15.88,1.01,2.43,2.13,4.81,3.29,7.16.61,1.39-1.48,2.36-2.15.96h0ZM251.61,460.36c-2.14-2.53-4.26-5.1-6.28-7.74-.57-.86-1.4-1.63-1.66-2.64-.08-.51.21-1.03.68-1.24.93-.4,1.47.38,1.87,1.08,1.08,1.5,2.25,2.94,3.4,4.38,1.26,1.57,2.52,3.13,3.82,4.67.41.49.32,1.26-.17,1.65-.5.41-1.24.32-1.65-.17h0ZM238.48,440.17c-5.3-9.03-9.09-18.82-12.26-28.77-1.58-4.91-2.98-9.87-4.22-14.88-.84-3.89-2.12-7.77-2.15-11.78.02-.64.5-1.18,1.16-1.19,1.24.01,1.23,1.32,1.23,2.25,2.27,13.66,6.62,26.97,11.68,39.84,1.89,4.56,4.13,9.03,6.56,13.29.77,1.29-1.18,2.53-1.99,1.23h0ZM261.35,342.08c-3.04-1.68-6.13-3.36-9.47-4.39-1.31-.15-1.37-2.08-.07-2.31.43-.11.94.09,1.35.21,3.26,1.07,6.3,2.68,9.28,4.36,1.37.73.3,2.83-1.09,2.13h0ZM244.6,333.15c-6.94-2.92-14.06-5.52-21.25-7.76-.81-.23-1.62-.46-2.45-.66.44,5.42.92,10.84,1.54,16.25,2.17,14.85,4.69,29.76,8.45,44.27,5.53,19.42,13.05,38.31,22.01,56.37,6.36,11.99,14.11,23.19,21.9,34.29.85,1.19,1.72,2.38,2.6,3.56-.6-13.04-.02-26.09,1.23-39.08,1.62-19.6,5.3-38.94,10.75-57.84,4.08-14.66,8.84-29.17,14.34-43.38-.3.54-.96.87-1.69.46-10.75-6.5-22.53-11.13-34.1-15.98-15.08-5.99-30.77-11.05-46.88-13.02-.33-.05-.67-.07-1.02-.08.06,2.24.15,4.48.29,6.72.13,1.66.26,3.33.39,4.99.11,0,.22.04.33.08,8.34,2.15,16.4,5.34,24.36,8.61,1.43.57.67,2.72-.79,2.22h0ZM327.6,463.26c-.19-.9.38-1.77.65-2.6,1.17-2.78,2.71-5.38,4.2-8.01.32-.57,1.01-.83,1.61-.52.56.29.84,1.05.52,1.61-1.4,2.45-2.82,4.91-3.98,7.49-.39.79-.55,1.71-1.02,2.45-.56.68-1.74.41-1.98-.43h0ZM313.72,513.9c-3.42-2.13-6.76-4.38-9.98-6.79,0-.13,0-.25.02-.38.43-12.94,3.56-25.4,7.49-37.7.5-1.49-1.72-2.24-2.24-.8-1.12,3.54-2.15,7.11-3.16,10.68-2.22,7.5-3.49,15.23-4.21,23.01-.1,1.14-.18,2.28-.22,3.42-2.14-1.68-4.22-3.43-6.22-5.27-2.04-2.03-4.04-4.12-5.98-6.25.07-.56.14-1.13.21-1.69,1.13-9.63,1.8-19.3,3.19-28.89,2.42-18.46,6.99-36.54,11.48-54.59,5.22-20.94,13.39-40.97,21.99-60.71,3.84-8.77,7.56-17.59,11.74-26.21,5.89-11.97,12.7-23.4,19.59-34.91,2.35-3.96,4.85-7.81,7.46-11.61.93-1.44,2.01-2.82,2.96-4.25,5.9,7.47,11.51,15.2,16.43,23.33,7.67,12.55,14.07,26.02,20,39.49,8.79,21.35,16.17,43.59,18.53,66.7,1.34,11.33,2.46,22.72,2.75,34.14-.3,10.52-.56,21.09-1.79,31.55-2.1,15.25-7.04,30.54-15.9,43.31-5.52,7.74-13.11,14.12-21.84,18.08-4.29,1.85-8.61,3.44-13.31,3.96-2.35.29-4.74.62-7.12.57-.2-.25-.49-.41-.82-.42-6.52-.04-13.03-.97-19.37-2.51-7.91-2.22-15.29-6.01-22.54-9.9-2.23-1.23-4.44-2.5-6.63-3.82.07-.72-.15-1.65-.06-2.3.1-3.66.62-7.3,1.17-10.91,1.32-9.85,4.99-19.12,9.01-28.16.68-1.4-1.4-2.42-2.09-1.07-2.48,5.68-4.98,11.39-6.77,17.34-1.74,6.15-2.8,12.47-3.44,18.82.02.87-.35,3-.31,4.75h0ZM302.18,509.84c-.15-.05-.28-.13-.39-.23,0,0,0,0,0,0-.35-.32-.43-.78-.44-1.24-.19-.14-.38-.29-.56-.43-4.78-3.61-9.1-7.69-13.12-12.06-.74-.17-.98-.6-1.03-1.13-4.86-5.4-9.3-11.21-13.63-17.06-9.34-13.28-18.72-26.72-25.61-41.48-11.05-23.98-20.28-48.99-24.29-75.18-3.09-15.31-4.6-30.87-5.54-46.45-.32-8.14-.15-16.57-1.16-24.61-.25-1.78-.61-3.54-.99-5.3-.12-.14-.21-.3-.26-.49-2.34-9.66-5.59-19-9.91-27.92-4.66-9.57-10.82-18.41-14.4-28.49-7.99-20.56-6.05-43.22.71-63.84,4.7-13.66,12.48-26.1,21.13-37.59,4.32-5.74,9.7-10.73,16.06-14.14,1.19-.54,4.02-2.25,5.68-2.15,4.68-1.15,15.02-.64,18.92-.36.14-2.1-.02-4.2-.61-6.25-.26-1.13-1.38-2.84.21-3.46,2.09-.58,2.28,3.2,2.69,4.57.33,1.77.4,3.56.28,5.35,14.15,1.18,26.87,8.37,38.7,15.77,12.23,7.84,23.38,17.8,31.67,29.77,5.09,7.24,8.35,15.58,10.89,24.02,1.61,5.28,2.62,10.68,3.43,16.12.34.18.59.53.58,1.02,0,.99,0,1.99-.02,2.98,1.41,10.49,2.44,21.05,5.92,31.09,1.35,4.35,2.92,8.64,4.95,12.72.22.29.4.6.57.93.21.48.42.95.63,1.42.45.87.91,1.72,1.37,2.57.09.11.16.24.2.37.42.76.84,1.52,1.27,2.29.12.21.18.45.17.68,1.29,2.23,2.72,4.38,4.34,6.4,7.25,8.7,14.36,17.55,20.76,26.9,8.28,12.36,15.22,25.57,21.33,39.12,10.9,23.82,19.6,49.04,22.54,75.17,2.12,17.13,3.67,34.38,2.29,51.64-.32,11.51-1.75,23.03-5.18,34.05-3.96,12.8-9.96,25.49-19.83,34.79-10.38,9.52-24.36,15.73-38.59,14.86-.38-.09-.65-.29-.82-.54-.78,0-1.55-.01-2.32-.06-6.18-.42-12.37-1.34-18.31-3.12-4.73-1.5-9.23-3.64-13.71-5.75-8.9-4.44-17.55-9.46-25.57-15.35-.3.18-.67.22-1,.1h0ZM228.1,283.31c1.46.5,2.22-1.64.79-2.21-2.29-.98-4.57-2.06-6.77-3.32-2.89-1.73-5.94-3.82-8.12-6.48-1.47-4.39-3.17-8.71-5.06-12.94-.56-1.26-1.15-2.5-1.76-3.72,11.77,12.25,26.81,21.91,43.17,26.04.61.16,1.27-.29,1.41-.9.24-1.84-2.48-1.6-3.68-2.17-4.76-1.35-9.3-3.33-13.68-5.62-12.54-6.43-23.49-15.64-32.25-26.69-1.89-3.38-3.8-6.77-5.53-10.24-11.56-23.03-10.4-47.4-2.36-71.36,4.63-12.73,11.86-24.39,19.96-35.19,4.53-6.06,10.2-11.34,17.02-14.72.69-.35,1.39-.64,2.11-.91.2-.01.39-.08.55-.2.11-.04.22-.08.32-.11.23,0,.45-.05.64-.15.73-.14,1.47-.21,2.2-.31,5.25-.46,10.64-.46,15.98-.01-.42,2.52-1.19,5-2.09,7.35-4.3-3.04-12.43-2.31-12.52,4.16.1,3.56,3.83,5.91,7.16,5.15,2.5-.72,4.46-2.71,5.9-4.81,1.35,3.23.73,6.9-.78,10.04-5.79,1.06-11.43,2.77-16.71,5.44-7.21,3.74-14.06,8.4-19.66,14.31-8.25,8.97-13.49,20.85-14.6,32.98-.3,5.43.36,10.92,1.52,16.22.64,2.68,1.45,5.3,2.17,7.95-1.11-.83-2.41-1.36-3.86-1.3-3.35.29-4.58,4.17-3.89,7.04,1.42,6.92,6.71,12.33,12.03,16.61.45.35,1.09.33,1.52-.02.96,2.98,1.98,5.93,3.24,8.78,4.28,8.36,12.63,14.17,21.19,17.6,4.93,2.02,10.1,3.76,15.49,3.69,11.71.22,23.07-3.12,33.98-7.07,5.06-1.71,10.09-3.56,14.81-6.1,7.03-3.51,13.88-7.58,19.06-13.61,8.2-8.81,12.88-20.4,13.4-32.4-.06-5.84-.73-11.76-2.17-17.47.45-.14.83-.54.88-1.03.45-4.26-.14-8.54-.67-12.77-.35-2.59-.7-5.22-1.54-7.71-1.21-4.02-4.97-6.29-8.1-2.55-.43.38-.92,1.34-1.27,2.45-1.22-1.76-2.46-3.5-3.68-5.25-2.2-3.04-4.08-6.31-6.4-9.27-7.82-10.02-22.61-16.98-35.17-17.99-6.16-.11-12.45.1-18.61,1,1.47-3.93,1.82-8.74-.78-12.18,1.18-2.86,2.19-5.89,2.7-8.98,2.3.25,4.58.59,6.84,1.01,11.81,2.67,22.39,9.12,32.54,15.51,10.42,6.91,19.81,15.48,27.43,25.42,5.22,6.93,8.83,14.84,11.49,23.09,2.55,7.56,3.79,15.35,4.84,23.2-.08,3.87-.24,7.77-.83,11.63-1,6.56-2.74,12.74-4.84,19.08-.69,2-1.42,3.97-2.24,5.92-.83,1.9-1.72,3.79-2.71,5.62-.31.58-.05,1.32.52,1.62.51.26,1.23.12,1.54-.39,2-3.27,3.45-6.85,4.71-10.46,2.22-6.56,4.19-13.16,5.28-20.04.06-.34.11-.69.16-1.03.36,2.48.75,4.95,1.21,7.42.56,2.65,1.2,5.29,1.95,7.9-.12.44-.19.9-.31,1.32-.69,2.9-1.71,5.72-2.86,8.47-.75,1.72-1.55,3.41-2.45,5.05-.32.58-.05,1.34.53,1.64,1.22.61,1.84-.85,2.3-1.72,1.74-3.29,3.11-6.78,4.14-10.36,1.74,5.27,3.89,10.41,6.52,15.3.19.41.38.81.58,1.21-.29.33-.54.69-.78,1-.88,1.13-1.7,2.3-2.53,3.47-1.8,2.57-3.56,5.17-5.29,7.78-7.7,12.05-14.02,24.83-21.19,37.23-4.17,8.02-8.05,16.19-11.66,24.49-.09-.22-.25-.41-.5-.57-5.69-3.08-11.7-5.52-17.59-8.19-14.21-6.83-29-12.36-44.09-16.94-9.32-2.91-18.8-5.65-28.56-6.56-.26,0-.52-.04-.79-.06-.47-3.3-1.23-6.55-1.98-9.8.12-.52-.1-1.1-.6-1.33-.28-1.04-.57-2.08-.88-3.12,3.76,3.08,8.1,5.35,12.58,7.2h0ZM322.72,256.34c1.86,1.08,2.72-2.19,3.55-3.34.5-1.16,2.29-3.49.13-3.95-.45-.03-.9.19-1.14.58-.51.9-.96,1.84-1.5,2.73-.51,1.19-2.55,2.79-1.05,3.98h0ZM219.97,308.1c.06,0,.13,0,.19.01,15.54,1.55,30.7,6.31,45.23,11.84,7.22,2.75,14.31,5.84,21.35,9.02,5.62,2.64,11.34,5.15,16.56,8.53.52.34.66.86.55,1.32,1.89-4.86,3.86-9.69,5.93-14.49-.3.12-.67.11-1.06-.1-7.2-3.84-14.85-6.75-22.2-10.27-12.61-5.86-25.75-10.53-39.05-14.59-9.21-2.88-18.56-5.57-28.2-6.5.04.48.08.97.11,1.45.4,4.58.49,9.18.6,13.77h0ZM287.02,491.34c1.4-12.24,2.32-24.53,4.39-36.69,1.42-9.23,3.45-18.34,5.61-27.42,3.26-13.8,6.5-27.65,11.09-41.07,4.08-11.37,8.34-22.63,13.25-33.62,4.72-10.97,9.34-21.99,14.56-32.73,5.36-10.83,11.51-21.24,17.68-31.63,3-5.01,6.06-9.99,9.43-14.77,1.02-1.47,2.03-2.95,3.1-4.38.02-.05.05-.09.07-.13-1.62-2.03-3.27-4.03-4.92-6.03-3.16-3.52-5.81-7.47-8.05-11.63-8.04,10.67-14.57,22.32-20.82,34.04-9.92,16.84-18.27,34.56-25.4,52.73-9.28,23.75-16.86,48.26-21.93,73.23-3.29,19.06-5.33,38.38-5.43,57.69,0,4.53.21,9.06.37,13.58,0,.12,0,.23-.03.34,2.26,2.9,4.6,5.74,7.03,8.5h0ZM237.39,145.2c6.13-.02,12.13-3.62,15.08-8.99,4.34-.7,8.75-1.05,13.14-1.19,5.71-.38,11.43.13,16.83,2.09,7.68,2.52,15.23,6.51,20.91,12.37,3.16,3.35,5.55,7.52,8.21,11.29,1.89,2.69,3.82,5.4,5.67,8.16.11.33.28.6.52.78,1.49,2.25,2.94,4.54,4.27,6.88,2.6,5.05,3.94,10.41,4.9,16.05,1.14,6.08,1.45,12.34.17,18.43-1.62,10.39-7.43,19.83-15.11,26.97-4.02,3.92-9,6.6-13.94,9.17-3.6,1.92-7.56,3.73-11.47,5.08-10.33,3.69-20.88,7.44-31.97,8.22,0,0,.17-.01.17-.01-6.57.7-13.16-.28-19.21-2.94-6.39-2.32-12.26-6.07-16.9-11.07-3.1-3.11-4.77-7.2-6.08-11.32-1.91-5.96-3.94-11.89-5.62-17.93.44-.51.13-1.16.02-1.73-.45-2.26-.97-4.51-1.62-6.72-1.83-5.95-3.04-11.97-3.24-18.27-.19-10.8,3.97-21.46,10.03-30.28,5.14-7.16,12.22-12.54,19.82-16.91.54,1.66,3.94,1.71,5.41,1.87h0ZM234.19,142.09c5.33,1.67,11.33-.9,14.73-5.11l.09-.12c-5.16,1.09-10.16,2.75-14.82,5.24h0ZM244.57,126.33c2.35-.41,4.03-2.58,5.23-4.49-2.1-1.53-5.63-2.35-7.78-.56-2.33,2.13-.35,5.3,2.55,5.05h0ZM326.7,181.42c-.05-2.16-.23-4.32-.49-6.46-.65-3.83-.46-8.35-3.03-11.48-.75-.77-1.78-.12-2.35.54-.91,1.07-1.3,2.49-1.3,3.88,1.87,2.77,3.64,5.6,5.18,8.56.74,1.62,1.4,3.28,1.99,4.96h0ZM204.09,215.17c-.51-.65-.99-1.32-1.61-1.87-1.45-1.36-3.85-1.95-4.3.6-.44,6.36,4.93,11.8,9.27,15.83.25.28.62.55.99.84-.7-2.23-1.38-4.46-2.14-6.66-.7-2.36-1.36-4.73-2.05-7.1-.16-.51-.35-1.14-.16-1.64h0ZM274.14,171.23h-.05c1.94.23,3.88-.32,5.76-.69,2.24-.57,4.77-.91,6.51-2.56,2.01-2.15-.24-4.66-2.64-4.93-3.23-.31-10.77.91-11.95,4.36-.34,1.12.34,2.39,1.36,2.9.1.47.52.85,1.01.92h0ZM274.61,168.34c.28.11.5.32.63.58,2.64-.27,5.28-.87,7.8-1.69.6-.24,1.23-.48,1.67-.97-.83-2.11-9.61.1-10.58,1.78,0,.02.02.04.04.06h-.05c.15.11.33.17.5.23h0ZM220.89,195.15c.76.33,1.3-.33,1.86-.72,2.14-1.52,4.58-2.86,6.27-4.93,3.01-3.15,1.21-6.3-3-5.59-2.77.46-5.36,2.19-6.84,4.58-1.54,2.37-2.78,6.49,1.42,6.5.09.07.18.12.28.16h0ZM220.63,192.59c.27-.02.53-.13.8-.16,2.36-1.74,5.43-3.18,6.67-5.97-.93-.46-2.04-.11-2.98.18-2.54.96-4.52,3.22-5.03,5.9,0,0,.01.01.02.02.17.02.34.04.51.03h0ZM282.13,188.64c5.82.51,9.76-5.71,8.69-11.03-.11-.66-.73-1.14-1.4-1.04-.68.1-1.13.74-1.05,1.4.16,1.08.12,2.19-.08,3.27-.56,3.36-4.33,6.21-7.61,4.49-1.58-.8-2.41-2.35-3.25-3.91-.35-.63-1.2-.7-1.74-.3-.91.74-.19,1.91.31,2.67,1.26,2.3,3.4,4.26,6.13,4.45h0ZM229.94,209.46c-2.64-.59-4.47-2.65-5.88-4.82-.87-1.11.41-2.67,1.62-1.83,1.58,2.19,3.59,4.93,6.67,4.42,3.01-.56,4.37-3.61,4.87-6.31.31-1.14-.22-3.18,1.46-3.28,2.22.23.94,3.37.72,4.75-.95,4.31-4.74,8.4-9.46,7.07h0ZM259.36,208.74c-2.23-.42-4.3-1.72-5.42-3.72-.82-1.09-1.75-3.92.4-3.96.77.09,1.07.79,1.06,1.46.55,1.67,1.91,3.1,3.59,3.62,3.95,1.5,8.75-.99,9.44-5.21.29-1.07-.14-2.99,1.43-3.08.64,0,1.24.54,1.22,1.19.06,1.51-.26,2.96-.87,4.28.87-.65,1.77-1.26,2.72-1.76,2.3-1.21,4.71-2.27,7.28-2.71,5.44-1.04,10.64,2.83,13.15,7.41,2.4,4.53,2.35,9.99.78,14.79-.28.91-1.53,3.89-2.92,5.83.03,1.12-1.04,2.54-2.28,1.75h0c-.17-.02-.33-.08-.48-.19,1.07,5.93-1.93,12.62-6.85,16-3.35,2.26-7.73,3.53-11.61,1.92-2.4-.85-4.31-2.43-5.78-4.39-.67.16-1.34.26-2.03.31-1.08.49-3.02.22-3.93.29-6.41-.43-13.02-3.45-16.5-9.02-3.53-5.48-3.88-13.49.47-18.63,4.11-5.16,11.11-5.35,17.12-6.19h0ZM260.92,234.52s-.05,0-.08,0c-2.66.22-5.55-.34-7.86-1.74-5.03-3.58-8.84-11.23-1.47-14.66,4.2-2.37,9.15-1.44,13.64-2.99,3.59-1.1,6.64-3.34,9.7-5.44,1.62-1.08,3.21-2.31,5.14-2.73,7.31-1.78,8.48,10.91,5.65,15.26-.04.04-.07.08-.11.13-2.69-3.3-7.44-7.26-10.75-4.45-.67.67-.29,1.66.4,2.01,0,.29.09.57.28.8.82.94,1.61,1.92,2.19,3.04,1.91,3.36,1.59,8.22-1.58,10.7-4.58,2.72-7.23-2.81-7.95-6.58-.3-1.39-.6-2.79-.71-4.2h0c.27-.53.13-1.13-.33-1.51-5.88-2.29-6.92,6.68-6.47,10.67.08.56.19,1.12.32,1.68h0ZM265.47,239.31c-1.24-2.01-2.08-4.47-2.37-7.2-.14-1.99.13-6.45,1.88-7.7.06,1.16.51,2.55.58,3.31.83,4.06,2.67,9.27,7.39,9.86,8,.7,10.46-10.24,6.53-15.76-.37-.52-.86-1.42-1.44-2.13,1.76.46,3.79,2.41,4.75,3.39,5.31,4.92,3.86,13.54-1.06,18.22-5.94,5.15-11.85,3.81-15.41-.76.02-.53-.31-1.08-.85-1.23Z"/>
</svg>