<?xml version="1.0" encoding="UTF-8"?>
<svg id="OBJECTS" xmlns="http://www.w3.org/2000/svg" version="1.1" viewBox="0 0 634.57 634.57">
  <!-- Generator: Adobe Illustrator 30.2.1, SVG Export Plug-In . SVG Version: 2.1.1 Build 1)  -->
  <defs>
    <style>
      .st0 {
        fill: #ffd88d;
        fill-rule: evenodd;
      }
    </style>
  </defs>
  <path class="st0" d="M270.13,302.33c-1.35-.62-2.61-1.53-3.49-2.74-.81-1.27-3.18-4.77-1.16-5.77.69-.31,1.54.01,1.84.71.58,1.3,1.04,2.7,2,3.78,4.63,4.8,16.28,1.2,19.85-3.67,6.48-7.28,10.3-26.04-3.16-27.61-5.51-.17-11.35,2.89-14.34,7.44,0-.01,0-.02,0-.03,0-.02,0-.04,0-.06-.13,3.01-6.62.87,1.68-5.65,2.72-2.21,5.97-3.66,9.2-4.17,0-.04.02-.09.03-.13,1.6-9.8,1.03-19.79-.86-29.49-2.65-11.86-11.16-21.38-20.84-28.27-6.83-4.98-14.41-9.2-22.45-11.8-3.94-1.23-7.77-1.85-11.76-2.5-5.66-1.05-11.38-1.84-17.12-2.13,1.48,1.33,3.08,2.49,4.69,3.5,4.59,2.81,9.41,5.7,14.69,6.81.83.09,1.73.14,1.89,1.16.13,1.43-1.34,1.62-2.37,1.49-4.83-.73-9.2-3.22-13.36-5.64-3.39-1.95-6.86-4.42-9.59-7.44-1.03,0-2.06,0-3.09.03-7.95.05-16.05.64-23.5,3.44-7.34,2.65-13.25,8.13-18.34,13.83-6.61,8.34-11.02,18.45-13.02,28.89-1.13,6.11-2.66,12.15-5.47,17.72-3.79,7.66-7.52,15.25-8.99,23.71-1.99,10.79-1.96,20.94,3.76,30.65,4.47,9.49,13.03,15.81,21.74,21.11,17.19,11.24,35.17,16.13,55.65,14.92,7.78-.74,15.23-3.73,22.27-6.98,1.97-1.09,3.88-2.3,5.58-3.49.98-.69,1.93-1.42,2.86-2.18.55-.45,1.39-.36,1.83.19.46.57.35,1.37-.19,1.84-3.66,3.05-7.74,5.68-12.13,7.54-11.22,4.79-19.53,6.82-31.79,5.72-12.7-.34-25.02-4.05-36.27-9.83-.12.12-.26.23-.43.33-3.96,2.35-6.94,5.71-9.9,9.14-4.91,6.14-8.39,13.33-11.89,20.34-2.34,5.06-4.5,10.21-6.54,15.4-1.95,5.27-3.92,10.71-7.31,14.99,1.88.37,3.68,1.18,5.36,2.09.61.35.85,1.13.51,1.75-.35.64-1.14.83-1.75.51-1.2-.63-2.32-1.09-3.58-1.53-.71-.36-1.83-.25-2.63-.53-1.35,1.29-2.89,2.41-4.69,3.32-9.05,5.06-19.18,8.44-28.89,11.86-3.87,1.4-7.71,2.87-11.52,4.43-.69.16-1.72.75-2.75,1.2-.12.3-.35.56-.67.69-1.59.69-3.17,1.39-4.71,2.19-3.42,1.81-6.29,4.55-8.44,7.74-.62,1.01-1.14,2.51-.31,3.53.79.35,1.71.2,2.57,0,2.32-4.61,8.19-7.82,12.45-10.06.58-.27,1.3-.03,1.63.51.36.58.19,1.45-.43,1.78-2,1.08-3.96,2.22-5.84,3.5-2.37,1.83-5.24,3.86-5.99,6.91-.02.8.52,1.37,1.33,1.21,1.08-.03,2.04-.51,3.02-.83,2.25-3.84,8.44-6.45,12.17-8.11,1.58-.66,2.63,1.67,1.07,2.4-2.79,1.21-5.53,2.53-8.03,4.26-1.15.94-2.73,1.82-3.17,3.32.05.06.14.09.21.12-.03-.01-.07-.02-.1-.03,0,0-.02,0-.03,0,5.49.65,11.18-1.2,15.88-3.96.29-.18.59-.22.86-.17.38-.32.73-.61,1.03-.88,1.2-.93,2.39-1.88,3.67-2.7.52-.31,1.25-.5,1.8-.15.82.44.86,1.68.05,2.15-.23.13-.48.19-.68.37-2.78,2.43-6.37,4.46-8.03,7.85,2,2.97,12.65-2.59,15.55-3.55,2.58-1.05,5.2-2.02,7.83-2.93,7.89-2.54,15.93-4.59,23.86-6.98,8.88-2.53,18.13-4.17,26.82-7.28,2.8-1.09,5.6-2.01,7.96-3.74-3.13-3.86-6.09-7.81-8.13-12.34-1.94-4.09-3.24-8.34-4.06-12.69-.11-.2-.21-.41-.28-.63-.04-.26-.02-.5.05-.71-1.83-11.19-.52-22.94,1.57-34,.48-2.85,1.26-5.63,1.5-8.5-.15-1.56,2.17-1.93,2.47-.32.21,2.43-.66,4.91-.99,7.29-.58,3.13-1.14,6.19-1.6,9.33-1.13,8.78-1.67,17.96-.1,26.73,2.08,2.14,5.07,3.15,7.64,4.59,1.43.76.37,3.01-1.13,2.39-1.55-.88-3.72-1.78-5.61-2.92.38,1.43.82,2.84,1.33,4.24,2.09,6.14,5.75,11.52,9.9,16.46.31.17.56.46.68.8.47.54.94,1.08,1.42,1.62,3.84,4.29,8.57,7.99,14.01,9.92.65.25,1.32.47,1.99.69,5.85-2.17,11.76-4.14,17.86-5.53,7.26-1.55,15.37-3.91,22.65-1.62-1.91-7.91-.29-16.62,1.11-24.57,1.06-5.35,2.47-10.61,3.58-15.95.66-2.65.98-5.46,2.08-7.96,1.08-1.53,3.02-.07,2.08,1.52-2.94,13.86-7.27,27.74-6.94,42,.28,4.01,1.71,7.94,3.71,11.34.87,1.49-1.32,2.88-2.27,1.4-1.03-1.56-1.84-3.19-2.46-4.87-.52,0-1.06-.22-1.55-.34-5.67-1.39-11.87-.23-17.44.93-12.12,2.44-23.64,7.14-35.11,11.58-3.71,1.36-7.45,2.67-11.26,3.69-.11.08-.23.14-.36.18-3.15,1.04-6.34,1.9-9.29,2.96-6.59,2.81-25.69,9.89-30.1,16.87,1.81-1.68,3.88-3.03,5.24-3.65,1.74-.91,3.52-1.73,5.35-2.44.66-.26,1.42-.01,1.72.66.29.65,0,1.43-.66,1.72-1.77.78-3.55,1.55-5.26,2.44-2.8,1.45-5.14,3.25-6.84,5.88-2.43,3.73,2.47,2.26,4.75,1.11,1.61-1.6,3.65-3,4.84-3.77,1.88-1.13,3.87-2.02,5.92-2.76.69-.38,1.63-.2,1.96.57.28.63,0,1.45-.66,1.71-1.48.6-2.96,1.21-4.4,1.93-1.84,1.01-3.64,2.2-5.17,3.63-.13.17-.3.33-.49.48-.5.5-.96,1.04-1.38,1.6-1.59,2.27,4.42.15,5.22-.1,1.07-.4,2.11-.88,3.13-1.38,1.09-.89,2.39-1.59,3.59-2.2,1.41-.47,4.4-3,5.38-1.03.29.66-.01,1.46-.68,1.75-.69.3-1.38.61-2.07.93-.33.37-.84.63-1.27.85-.81.44-1.65.87-2.41,1.27-.27.13-.54.27-.81.4-.63.51-1.16,1.11-1.45,1.89,5.68-.34,11.39-1.09,16.65-3.13.56-.25,1.24-.02,1.57.46,5.21-.67,10.45-1.25,15.67-1.86,16.71-2.09,33.53-1.02,50.29-1.98,4.47-.23,8.94-.59,13.38-1.18,3.57-.4,7.49-.8,10.81-2.08,12.68-4.43,25.36-11.28,32.46-23.12,10.51-17.81,15.02-43.34,10.92-63.58-2.46-11.01-6.41-21.98-13.42-30.86-2.43-3.1-5.24-5.5-7.77-8.46-1.71-2.04-3.09-4.35-4.18-6.78-.12-.27-.21-.54-.25-.81-.11-.11-.2-.25-.27-.41-2.39-6.06-.24-15.48,1.49-21.57.56-1.31.74-3.34,2.03-4.11-1.18-.16-2.35-.45-3.47-.92h0ZM292.44,250.51c.11-3.2-.36-6.07-.62-9.13.12-1.57,2.48-1.48,2.49.09.41,3,.78,6.02.68,9.06,0,.63-.6,1.15-1.2,1.18-.66.04-1.35-.51-1.35-1.2h0ZM291.39,232.91c-.74-6.73-3.83-12.91-7.15-18.69-.57-.75-.93-1.98.12-2.49.6-.3,1.37-.05,1.67.57,3.01,5.13,5.71,10.43,7.19,16.2.3,1.29.47,2.63.65,3.94.09.68-.3,1.34-1,1.47-.65.12-1.38-.32-1.47-1h0ZM381.54,478.38c-3.41-.01-6.81-.3-10.2-.71-1.29-.36-4,.08-3.79-1.91.45-1.69,2.49-.66,3.68-.63,3.48.44,6.99.7,10.49.74,1.63.11,1.47,2.63-.18,2.52h0ZM360.96,476.28c-5.18-1.52-10.27-3.34-15.28-5.35-1.89-.76-3.75-1.58-5.61-2.41-1.76-.89-3.87-1.51-5.02-3.21-.87-1.58,1.35-2.7,2.25-1.17,7.07,4.19,15.37,6.71,23.15,9.35,1.02.28,2.54.6,2.11,2-.23.67-.96.97-1.6.78h0ZM218.37,406.14c-1.49-.25-4.7-.25-4.98-2.14-.04-.58.4-1.04.91-1.23.48-.18.97.1,1.42.27,1.18.37,2.42.52,3.65.59,1.33.06,2.67.07,4,.02.69-.02,1.27.57,1.28,1.25,0,.72-.56,1.23-1.25,1.28-1.68.12-3.37.08-5.04-.05h0ZM521.01,390.82c-1.51-2.46-1.88-5.39-1.73-8.17,0-.06,0-.12.01-.18-.08.02-.16.05-.24.08.06-.17.12-.33.18-.49-2.15.2-4.3.3-6.42.03-6.42-.62-11.85-4.65-17.73-6.85-15.15-5.78-32.6-9.33-48.19-3.43-.69.34-1.58-.14-1.75-.89-.24-1.01.73-1.61,1.58-1.84.18-.07.36-.14.54-.2-4.42-6.37-9.97-9.25-16.5-12.57,6.1,14.26,7.35,30.61.48,44.88-1.88,4.21-4.29,8.19-7.31,11.69-1.06.99-3.09,4.4-4.71,3.59-.29.7-.6,1.39-.95,2.08-.39.69-.67,1.47-1.07,2.16,4.61.85,10.48-2.56,14.6-3.88,7.5-2.58,15.52-.11,21.29,5.04.13,0,.25.02.38.03.69.06,1.33.11,1.77.06,4.25.11,8.5.29,12.74.51,13.51.72,27.21.97,40.72.73,8.92-.19,17.82-.89,26.74-.81,5.42.09,10.82.72,16.17,1.57,4.15.68,8.35,1.69,12.56.97,2.06-.26,5.1-1.44,4.16-4.03-1.12-3.36-2.98-6.75-4.76-9.64-5.89-8.88-11.95-18.11-20.78-24.31-4.66-3.65-10.56-5.65-16.47-5.49-1.18.04-2.37.14-3.57.26-.09.09-.2.18-.32.25-.07.21-.2.41-.42.58h.03s-.03,0-.03,0c-.01,0-.02.02-.03.03-.19,2.41.13,4.91,1.32,7.05.68,1.44-1.49,2.59-2.31,1.21h0ZM333.16,371.67c.11-14.21-6.48-26.74-14.36-38.17-.09-.14-.19-.28-.29-.42-2.04.94-4.12,1.78-6.26,2.42,4.6,6.41,7.68,13.8,10.01,21.32,2.11,7.36,4.1,14.87,4.38,22.54,2.01-2.87,4.18-5.42,6.52-7.69h0ZM320.85,331.95c3.06-1.53,6.04-3.23,9.02-4.77,6.71-3.47,13.64-6.88,21.11-8.4,11.6-2.28,24.12-2.55,35.28,1.79,13.24,3.79,25.72,11.25,33.66,22.72,9.52,13,15.43,29.42,12.36,45.64-1.62,7.78-4.86,15.29-9.91,21.49-.57.7-1.18,1.36-1.79,2.02,3.73-14.71-4.09-30.71-15.03-40.75-6.47-6.14-14.82-10-23.43-12.08-9.02-2.46-18.66-3.31-27.65-.26-7.25,2.34-13.46,5.57-18.81,10.08,0-.05,0-.09,0-.14-.16-3.31-.53-6.61-1.29-9.84-2.41-10-7.75-19.07-13.52-27.49h0ZM335.49,373.37c-.09.15-.21.27-.37.37-.06.06-.12.12-.18.18-5.68,5.74-10.06,12.55-13.51,19.8-1.93,4.44-2.93,9.5-3.62,14.15-1.87,10.7-2.05,21.62,3.68,31.25,2.4,4.08,5.51,7.72,9.09,10.83-.09.05-.17.1-.25.16,1.33,1.1,3.01,1.89,4.38,2.91,4.43,2.87,8.98,5.29,13.78,7.18,4.92,1.99,9.89,3.85,15.02,5.24,5.07,1.31,10.35,1.93,15.52,2.56,10.03,1.24,20.2.02,30.16-1.2,12.97-2.01,25.55-5.97,38.44-8.4,6.24-.91,12.57-1.01,18.86-1.23,3.32-.28,16.64.63,14.89-4.79-1.36-2.69-3.92-4.49-6.11-6.46-2.43-2.1-4.92-4.13-7.42-6.14-4.66-3.81-8.91-8.08-13.14-12.35-.32-.62-.89-1.09-1.4-1.54-.36-.32-.74-.64-1.12-.95-.05-.05-.11-.1-.16-.15h-.02c-.13-.11-.27-.21-.41-.32-.65-.49-1.31-.99-2-1.43.01-.07.03-.14.05-.21-4.7-3.44-10.39-5.3-16.29-3.47-4.46,1.55-8.71,3.81-13.48,4.31-4.22.88-7.52-2.12-10.75-4.31-5.69-3.99-11.79-7.35-18.49-9.11-2.81-.76-5.69-1.25-8.57-1.6-.72-.08-1.3-.65-1.26-1.4.04-.72.68-1.29,1.4-1.26,2.99.15,5.96.56,8.85,1.34,8.86,2.12,16.44,7.29,23.83,12.38.7-2.14,2.02-4.15,2.54-6.36.79-2.81,1.19-5.73,1.26-8.65-.33-14.96-10.55-29.41-23.23-36.83-6.65-3.83-14.5-5.83-21.93-7.07-5.58-.99-10.97-.67-16.38.76-7.9,2.3-15.76,5.96-21.66,11.79h0ZM324.03,381.35c.02.47.22.81.5,1.02-5.1,7.64-8.5,15.94-9.49,25.22-2.73,14.01-.89,25.95,5.81,35.72-11.52,3.31-23.64,2.77-35.43,1.45-.12,0-.25,0-.38,0,11.9-16.43,16.46-41.9,14.81-60.86-1.03-10.5-4.25-20.82-8.89-30.28-3.31-6.64-8.09-12.3-13.35-17.47-1.99-2.13-3.69-4.84-4.86-7.59-.03-.12-.09-.22-.15-.31,0-.08-.03-.16-.05-.24-.38-1.09-.7-2.21-.79-3.36-.01-.63-.02-1.27,0-1.9,2.36,3.2,5.66,5.67,8.89,7.96,2.83,1.95,6.19,2.94,9.46,3.92,4.93,1.34,10.03,2.32,15.16,2.12,1.42-.07,2.8-.26,4.17-.54,8.51,10.95,14.36,31.34,14.6,45.14h0ZM203.22,187.14c-1.61-2.48-2.68-5.26-2.87-8.34-3.95-1.96-6.3-5.82-8.06-9.7-1.79-3.64-2.27-7.79-1.52-11.76.12-.7.72-1.23,1.45-1.15.71.09,1.23.75,1.14,1.45-.67,4.03.1,8.09,2.12,11.64,1.27,2.37,2.68,4.81,5.02,6.27.72-6.5,9.65-11.27,14.35-5.66,1.93,2.23,1.3,5.57-.39,7.75-2.62,3.29-7.42,3.77-11.21,2.53.54,2.6,1.78,4.95,3.43,7.01,7.03.2,14.04,1.01,20.94,2.34,9.83,1.28,19.32,4.68,27.73,9.94,8.59,5.18,16.68,11.54,22.53,19.78,3.73,5.51,6.38,11.83,7.24,18.45.9,6.46,1.62,13.01,1.06,19.53-.19,2.38-.55,4.74-.9,7.11,5.4.05,10.28,2.97,11.91,9.65,2.09,9.4-2.41,21.18-10.61,26.38-3.33,1.78-7.32,3.07-11.2,3.01.33.33.48.83.27,1.32,0,0,0,0,0,0-.07.19-.19.34-.33.46-.07.06-.14.12-.22.16-1.57,4.09-2.58,8.34-3.04,12.64,1.55,3.88,4.93,6.61,8.11,9.11,4.57,3.67,10.24,4.96,15.78,6.17,10.21,2.23,17.32-.29,26.26-5.03,8.91-4.72,17.81-9.97,27.78-12.06,9.99-2.16,20.51-2.46,30.53-.38,3.25.75,6.48,2.1,9.61,3.09,6.7,1.84,12.84,5.17,18.5,9.15,5.84,3.88,10.6,9.15,14.56,14.9,2.14,2.97,4.07,6.13,5.74,9.44.04.01.07.02.11.04,2.41,1.68,5.33,2.56,7.88,4.05,2.36,1.32,4.67,2.75,6.77,4.46,2.46,2.02,4.44,4.51,6.25,7.1.89-.27,1.79-.51,2.7-.73,5.53-1.34,11.29-1.43,16.93-.99,8.69.57,17.15,2.81,25.28,5.84,13.36,5.2,13.64,8.83,29.33,6.54,10.28-1.01,18.12,3.28,25.46,10.03,6.44,5.86,11.18,13.19,16.03,20.34,2,3.47,6.49,10.17,5.63,14.06-1.29,4.08-5.68,5-9.82,5-1.61,0-3.17-.14-4.51-.28-6.57-1.07-13.14-2.24-19.8-2.45-8.05-.24-15.79.4-23.79.63-13.12.43-26.13.24-39.23-.3-5.93-.3-11.87-.56-17.8-.77,4.19,4.11,8.18,8.34,12.73,12.04,3.75,3.06,7.53,6.1,11.12,9.35,4.2,3.45,6.91,9.34.36,12.02-2.87,1.22-6.08,1.35-9.15,1.48-7.75.26-15.56.27-23.26,1.3-12.66,2.4-25.13,6.23-37.84,8.23-7.34.95-14.75,1.81-22.16,1.82-2.54,0-5.07-.1-7.6-.34-6.65-.8-13.35-1.5-19.78-3.44-11.22-3.41-22.15-8.11-31.66-15.03-.64-.46-1.54-1.13-2.02-1.89-1.63-1.52-3.1-3.12-4.43-4.78-.05.03-.11.05-.17.08-10.46,3.04-21.53,3.4-32.31,2.16-2.35-.22-4.69-.49-7.03-.66-1.06,1.29-2.17,2.51-3.33,3.65-7.86,7.19-17.7,11.91-27.73,15.28-4.23,1.33-8.7,1.51-13.07,2.11-9.08.91-18.22,1.39-27.35,1.26-11.78-.03-23.58.39-35.28,1.75-5.25.6-10.49,1.3-15.76,1.83-.37.04-.73-.06-1.03-.26-5.05,1.72-14.7,2.86-16.3,2.35-1.11-.31-1.75-1.39-1.72-2.48-2.32.93-4.74,1.51-7.15.95-1.53-.9-1.98-2.01-1.77-3.16-1.61.43-3.32.55-4.65-.52-1.5-1.53-1.3-3.41-.28-5.25-.45-.58-.56-1.43-.43-2.15,1.68-8.78,21.52-15.86,29.18-19.43,3.53-1.51,7.2-2.69,10.89-3.76.17-.19.39-.34.64-.43,2.06-.71,4.16-1.26,6.23-1.92,2.15-.68,4.26-1.44,6.34-2.19,3.33-1.27,6.64-2.58,9.97-3.85-5.87-2.31-10.88-6.46-15-11.24-.59.46-1.24.84-1.89,1.19-8.43,4.31-17.81,6.05-26.9,8.41-8.08,1.93-15.95,4.56-23.97,6.7-5.85,1.59-11.52,3.73-17.11,6.03-4.36,1.59-11.25,5.44-15.54,2.41-1.36-1.36-1.35-2.8-.68-4.19-3.43,1.39-7.14,2.08-10.84,2.16-1.53.12-3.32-.54-3.97-1.86-1.13.4-2.47.52-3.37.5-1.88-.07-3.23-1.89-3.26-3.69-.92.08-1.82.01-2.31-.15-1.43-.41-2.26-1.77-2.46-3.18-.52-3.51,2.36-6.26,4.52-8.64,2.62-2.71,5.91-4.64,9.38-6.07.11-.38.38-.71.76-.91,2.49-1.22,5.11-2.16,7.68-3.21,11.52-4.55,23.62-8.07,34.66-13.7,2.76-1.54,5.59-3.17,7.69-5.59,4.89-6.28,6.64-14.29,9.92-21.42,5.88-13.46,13.24-30.6,25.96-38.8-2.51-1.38-4.97-2.86-7.36-4.43-5.59-3.5-11.11-7.2-15.59-12.09-6.38-7.48-11.11-16.91-11.8-26.81-.3-9.85,1.48-19.75,5.27-28.84,2.54-6.09,6.01-11.78,8.07-18.08,1.88-6.14,2.53-12.59,4.53-18.7,3.76-10.95,9.77-21.39,18.89-28.73,6.19-5.57,14.08-8.72,22.26-9.94,5.02-.69,10.08-1.02,15.14-1.02h0ZM208.41,177.79c2.88-.16,6.43-3.74,4.07-6.43-3.82-3.51-9.46,1.14-9.4,5.58,1.65.8,3.52,1.04,5.34.85h0ZM225.98,265.33c1.38,2.27.76,5.02-.08,7.37-1.21,4.24-5.45,8.13-10.08,7.05-5.99-1.67-5.04-9.72-2.74-14.07.52-.85,1.02-2.13,2.17-2.18,3.24-3.56,8.52-2.07,10.73,1.83h0ZM164.2,256.1c.63,1.85.03,3.84-.56,5.62-.68,1.63-3.02,6.67-5.16,5.97-1.54.64-3.3.54-4.83-.08-7.36-2.94-2.95-14.45,3.08-16.35,3.31-.83,6.41,1.87,7.47,4.85h0ZM187.21,307.15c-3.69-1-7.23-3.34-9.42-6.49-1.93-3.05-1.28-6.7,2.87-6.8,4.44-.07,9.2,1.9,11.41,5.89,1.43,1.83.83,4.82-.62,6.5-1.02,1.27-2.79,1.25-4.24.9h0ZM189.11,304.76c-2.82.34-11.17-4.96-9.44-8.04-.04.02-.08.04-.12.06,0,0-.01.01-.02.02,2.02-.75,4.48.08,6.46.75,1.55.76,2.77,2.03,3.92,3.3.36,1.26.59,3.2-.8,3.9h0ZM227.8,251.99c-4-.45-7.88-2.02-10.77-4.87-1.46-1.35-1.79-3.81-.42-5.34,1.92-2,5.06-1.61,7.49-.92,3.18,1.11,6.54,2.95,8.06,6.1,1.25,3.09-1.17,5.67-4.35,5.04h0ZM229.17,249.41c-2.67,0-5.38-.84-7.64-2.21-1-.83-3.92-2.08-2.81-3.67,3.08-1.72,10.44,1.71,11.09,5.13,0-.03,0-.05,0-.08,0-.04,0-.08,0-.11.07.44-.14.93-.64.93h0ZM157.55,240.34c-3.04-.21-6.23-2.6-4.52-5.88,2.47-3.7,8.14-3.8,11.94-2.28,1.87.68,3.74,2.66,2.61,4.72-1.9,2.92-5.96,2.79-9.06,3.15-.27.23-.62.35-.97.29h0ZM157.13,237.61c-5.23-1.54,1.49-4.19,3.8-3.69,1.11.19,4.06.51,4.32,1.8-2.1,1.91-5.47,1.43-8.11,1.89h0ZM189.08,284.87c-4.24-.57-8.56-2.12-11.12-5.75-.76-1.12-1.77-2.54-1.38-3.95.29-.75,1.19-1.11,1.91-.71.88.42.61,1.48,1.09,2.18,1.98,3.69,6.12,5.03,9.98,5.62,1.58.37,1.13,2.83-.48,2.61h0ZM278.78,290.38c-.3-.22-.46-.53-.54-.89-.49-2-1.33-3.99-2.72-5.53-.17-.04-.32-.1-.44-.18-1.2.93-2.21,1.95-2.93,2.99-.14.69-.88,1.03-1.52.91-3.28-1.55,2.57-5.93,4.09-6.93,2.34-1.49,4.94-2.69,7.67-3.25,1.4-.15,4.91-.68,4.82,1.46-.08.68-.73,1.21-1.41,1.11-2.53-.33-5.64.61-8.35,2.15,1.91,1.69,2.82,4.51,3.46,6.88.23,1.13-1.24,1.99-2.13,1.28Z"/>
</svg>