<?xml version="1.0" encoding="UTF-8"?>
<svg id="Objects" xmlns="http://www.w3.org/2000/svg" version="1.1" viewBox="0 0 634.57 634.57">
  <!-- Generator: Adobe Illustrator 30.2.1, SVG Export Plug-In . SVG Version: 2.1.1 Build 1)  -->
  <defs>
    <style>
      .st0 {
        fill: #ffd88d;
      }
    </style>
  </defs>
  <path class="st0" d="M285.56,159.67c1.07.61,2.39.27,3.27-.52,1.69-1.17,3.38-2.35,5.13-3.41.59-.35,2.63-1.35,3.12-1.61.75-.25,1.53-.47,2.1-1.06,1.76-1.79.48-4.55-1.97-4.58-3.52.53-6.77,2.45-9.4,4.8-1.58,1.55-5.01,4.32-2.25,6.37Z"/>
  <path class="st0" d="M294.46,185.72c-2.46,0-4.45,1.99-4.45,4.45v4.71c0,2.46,1.99,4.45,4.45,4.45s4.45-1.99,4.45-4.45v-4.71c0-2.46-1.99-4.45-4.45-4.45Z"/>
  <path class="st0" d="M357.11,154.13c.49.26,2.54,1.26,3.12,1.61,1.76,1.06,3.44,2.23,5.13,3.41.88.8,2.2,1.13,3.27.52,2.76-2.05-.66-4.82-2.25-6.37-2.64-2.35-5.88-4.27-9.4-4.8-2.45.03-3.74,2.79-1.98,4.58.57.59,1.34.81,2.1,1.06Z"/>
  <path class="st0" d="M359.73,185.72c-2.46,0-4.45,1.99-4.45,4.45v4.71c0,2.46,1.99,4.45,4.45,4.45s4.45-1.99,4.45-4.45v-4.71c0-2.46-1.99-4.45-4.45-4.45Z"/>
  <path class="st0" d="M327.04,246.38c1.01.95.28.57,1.91,1.33-.95-.39.07.13.82.32-.02,0,0,0,.07.02.09.02.18.03.25.04.31.05.64.1.09,0,0,0,.02,0,.03,0,.39.07.79.09,1.19,0-.18.04-.78.07-.33.09,1.37.08,4.05-1.11,5.37-3.24,3.1-4.8,3.67-11.62,4.24-15.6.75-5.15.96-13.99-3.11-15.47-1.74-1.05-6.6-.62-8.78,3.05-1.64,2.78-2.5,5.93-2.8,9.13-.87,2.99-1.38,6.11-1.43,8.8.1,3.16.3,6.43,1.28,9.45.67,1.62.8,1.59,1.2,2.08ZM334.33,217.57c.3-.08.62-.11.95-.09.05.01.13.03.23.06h.03c.06.08.11.13.16.18.66,1.16.42,1.17.62,3.9.26,3.9.55,7.82.09,11.72-.32,3.42-2.26,10.11-4.01,10.62-.06.04-.13.07-.19.11-.21.05-.34.09-.35.11-.07.01-.15.03-.22.04-.03,0-.05,0-.08,0-.03,0-.06,0-.1,0-.01,0-.03,0-.04-.02-.1-.07-.23-.18-.37-.28-.03-.03-.07-.07-.11-.1-.02-.02-.04-.05-.05-.07,0,0,0,0-.02-.03-.04-.07-.1-.13-.13-.2-.06-.12-.05-.1-.03-.03-.07-.16-.15-.32-.22-.48-1.08-3.59-1.11-4.31-1.27-7.61-.18-6.73,2.15-15.55,5.11-17.83Z"/>
  <path class="st0" d="M522.09,240.56c-2.61-.63-5.36-.45-7.95.22,2.34-2.43,5.12-4.41,7.59-6.7,3.23-3.05,5.7-5.27,4.63-9.68-2.2-5.47-8.83-1.71-12.02.8-1.6,1.21-4.43,3.48-6.7,5.04.3-.43.6-.87.9-1.31,2.15-3.25,4.61-6.34,6.18-9.93.55-1.31.93-2.76.79-4.19-.24-2.55-2.42-5.2-5.2-4.38-3.31.68-9.01,6.63-12.51,10.19-1.47,1.58-4.49,4.91-5.17,5.38,0-.04-.02-.09-.03-.16,0-.02,0-.07,0-.18,0-.11-.02-.2-.02-.26,0-.1,0-.26,0-.51-.04-.44.13-2.2.17-2.55.67-4.77,2.19-10.01.81-13.47-.97-2.99-3.42-4.55-5.62-3.56-.08.04-.13.07-.18.09.04-.02.05-.03.04-.03.04-.02.09-.04.15-.07-.06.02-.13.03-.19.07h0c-.08.02-.25.08-.44.18-.46.26-.88.6-1.29.93-2.1,1.96-3.3,4.66-4.37,7.28-1.29,3.87-2.32,7.82-3.5,11.73-1.07-3.55-2.81-6.7-6.66-7.97-.85-.19-1.73-.35-2.42-.15-1.12.11-2.18.62-2.95,1.45-.49.62-.53.56-.96,1.55.03-.1-.21.35-.24.63.07-.18.1-.28.12-.32-.05.16-.35,1.06-.31,1.44-.19,3.05,1.32,6.07,1.91,7.56,1.2,3.25,1.53,5.49,1.74,8.12.02,4.37-1.12,8.78-.07,13.12.26.99.45,2.16,1.07,3-.04,0-.01.08.14.27.27.49.62,1.04,1.03,1.52-1.37.76-2.38,2.09-3.3,3.33-.19.31-.3.67-.36,1.03-.59-.07-1.17-.14-1.75-.18-4.31-.02-8.42,1.86-11.54,4.77-7.27,6.27-11.67,15-17.18,22.71-2.02,2.87-3.87,5.86-5.88,8.74-.56.93-1.36,1.72-1.82,2.7-7.14-6.33-15.47-11.22-23.77-15.88-10.53-6.29-21.61-11.85-33.68-14.43-1.11-.3-2.24-.54-3.38-.75,0,0,0,0,0,0,10.1-5.56,19.45-12.76,26.19-22.21,4.16-6.12,6.32-13.42,6.64-20.79.33-5.05.47-10.15-.33-15.17-.59-3.84-1.43-7.66-2.66-11.34-.56-1.3-.93-2.84-1.86-3.92.02-1.8,0-3.61-.02-5.42.07,0,.12.03.19.02.9,0,1.7-.49,2.27-1.16,1.12-1.11,2.05-2.37,3-3.63,4.11-5.79,6.29-12.74,7.58-19.66.17-1.36-.82-2.46-2.09-2.78-.2-.05-.62-.21-.82-.29-.02,0-.04-.02-.06-.03-.96-.49-1-.6-2.09-1.87-.11-.15-.25-.34-.33-.44-1.39-2.01-1.66-2.78-2.27-4.38-.64-1.95-.97-3.99-1.28-6.01-.13-.78-.25-8.11-.4-11-.43-7.69-2.21-15.43-6.07-22.15-.8-1.73-4.42-6.91-7.9-9.89,3-1.21,5.71-3.18,7.03-6.15,1.06-4.23-.99-5.3-2.89-6.14-3.21-1.42-6.71-1.94-10.12-2.67-2.04-.31-3.46-.64-4.76-.74.43-.45.84-.92,1.2-1.43,2.66-3.65,2.23-5.95.24-7.97-.14-.13-.23-.2-.3-.24-.24-.21-.51-.39-.79-.55-3.37-2.01-7.48-1.92-11.25-1.49-.75.08-1.49.21-2.23.36.19-.37.37-.74.53-1.12,1.86-5.02.39-9.27-4.4-9.16-3.36.25-6.4,1.85-9.59,2.81-.51.25-3.18.77-3.43.83-3.9.57-12.59-.63-13.68-.77-4.06-.52-8.17-1.3-12.26-.64-5.22.74-10.21,2.69-14.88,5.06-.97.48-1.9,1.01-2.81,1.6.62-1.67,1.21-3.37,1.37-5.15.02-2.32.01-1.83-.34-3.27-1.13-3.16-4.15-3.62-6.04-2.99-.95.22-1.84.62-2.7,1.07-2.81,1.64-5.5,3.58-7.65,6.04-.86,1-1.66,2.05-2.42,3.12-.06-3.48-1.29-6.69-5.45-8.42-2.14-.56-4.97.05-6.27,1.57-1.34,1-2.37,2.33-3.25,3.73-2.88,4.88-4.64,10.39-5.38,15.99-.09.5-.2,1-.32,1.49-.9-.57-1.8-1.14-2.73-1.67-2.02-1.15-4.07-2.35-6.37-2.85-2.86-.57-5.32-.63-6.89.6.1-.11.09-.12-.22.09-1.24.95-2.58,2.52-1.74,5.15.33,1.08,1.85,3.04,3.59,4.48-3.95,1.06-7.87,2.36-11.57,4.12-5.72,2.98-11.1,6.96-15.18,11.99-5.36,7.02-8.57,15.61-10.08,24.27-.7,4.14-1.09,8.34-1,12.54.15,5.11.81,10.2.71,15.32-.04,4.56-2.55,11.59-5.32,14.35-1.86,2.17-2.56,2.01-4.96,4.21-1.72,1.87-.4,4.46,1.56,5.55,2.38,1.68,6.74,2.1,9.23,2-.04,3.09.35,6.19,1.73,8.99.59,1.09,1.25,2.57,2.2,3.54-1.81,3.46-2.74,7.39-2.74,11.28-.4,6.65,2.47,12.94,6.83,17.84,3.85,4.81,9.27,7.98,15,10.06,3.69,1.31,7.77,2.66,11.75,2.58.43.64.98,1.25,1.41,1.81,4.01,5.03,9.05,9.2,14.27,12.92,2.11,1.43,4.25,2.84,6.43,4.2-1.06.19-2.11.49-3.13.87-7.81,3.2-14.75,8.24-21.19,13.63-5.73,5.27-11.17,10.86-16.95,16.08-6.6,6.65-14.46,10.21-20.94,18.62-1.78,2.23-3.29,4.66-4.66,7.16-.06.08-.11.16-.16.24-.49-.44-1.05-.99-1.82-1.8-4.58-5.03-8.39-12.52-13.85-18.46-4.56-5.61-10.2-11.03-17.62-12.16-1.28-.15-2.74-.48-4.06-.28-.22-1.99-.58-4.28-2.18-5.48-.05-.02-.09-.03-.13-.05,2.13-4.37,3.05-9.41,3.28-14.21.04-3.23-.23-6.62-2.1-9.37-1.07-1.51-2.36-3.01-4.02-3.87.11.04.22.1.3.13-.13-.09-.27-.18-.41-.26-.32-.18-.54-.28-.72-.37.73-1,1.36-2.06,1.94-3.15,1.67.04,3.32-.57,4.85-1.19,2.67-1.05,5.08-2.64,7.19-4.6,4.94-4.47,7.66-11.36,6.55-17.99-1.08-4.7-3.9-8.64-7.59-11.62.36-1.16.32-2.58.38-3.65-.1-1.94-.32-4.34-1.86-5.68.83.89.38.23-.12-.33-1.61-2.07-5.99-3.01-10.1-.63-.8.49-2.39,1.71-3.22,3.82-.02.07-.02.15-.03.22-4.11-.62-8.46-.37-12.11,1.76-5.89,3.73-9.94,10.51-10.22,17.5-.05,2.92.65,5.82,1.88,8.46.37.89,1.01,2.04,1.82,2.81-.29.56-.45,1.19-.69,1.78-.11.24-.83,1.99-.95,2.42-2.6-.64-5.35-.49-7.82.72-2.92,1.05-5.72,5.24-5.81,7.22-.02.11-.02.22-.02.33h0,0c0,.13,0,.26.02.37-1.39.41-2.72,1.02-3.91,1.85-1.71,1.24-3.16,3.05-3.45,5.19-.09.47-.02.94.16,1.36-1.17.51-2.26,1.17-3.2,2.04-1.19,1.51-1.04,1.24-1.29,2.62.16-.88-.04-.38-.14.14.02-.34-.21,1.1.14,1.54.06.18.16.36.28.52-.11.07-.23.13-.33.21-.07.05-.28.2-.52.4-3.7,3.03-4.78,10.3-1.77,16.18,1.04,2.07,2.32,4.08,3.98,5.72.87.7,2.18,1.92,3.46,2.47-2.75,4.66-1.99,13.01,4.22,13.44.12,0,.26,0,.4,0,.15.05.29.11.44.14,3.91.74,7.48-1.27,9.33-5.8.07-.21.13-.42.19-.63,0,0,0,0,0,.01.07-.21.11-.43.15-.66.62.5,1.3.94,1.87,1.35.26.17.53.32.8.46.02,1.25.78,2.64,1.81,3.87-1.62,2.57-1.96,7.29-1.81,9.36.25,4.29,1.25,8.57,3.07,12.48,1.8,3.73,4.38,7.02,6.7,10.44,2.78,3.94,5.42,7.97,8.44,11.73,2,2.35,4.29,4.41,6.23,6.82,4.51,4.72,8.46,9.9,12.62,14.93,5.39,6.1,11.28,11.84,18.5,15.74,13.84,7.52,31.25,5.97,44.59-1.93-.13,1.56-.29,2.75-.83,4.91.03-.06.06-.12.1-.17-.04.07-.07.14-.11.21,0,0,0,.02,0,.03-.13.61-.14.34-.03.03-.56,1.1-1.17,2.21-1.41,3.43-.72,3.5-1.18,7.12-.23,10.62.16.74.37,1.45.64,2.14-3.46-1.09-6.99-1.92-10.49-2.81-1.58-.42-3.17-.82-4.76-1.2-.96-.36-1.92-.69-2.91-.97-12.53-3.8-26.78-.61-36.62,7.99-8.57,8-13.96,23.06-13.79,34.67.27,7.71,1.87,15.31,3.9,22.74,1.3,4.68,2.56,9.47,5.09,13.66,5.46,9.24,13.79,16.3,22.42,22.5,6.58,4.92,13.89,9,22.11,10.28,9.5,2.16,19.26,2.54,28.95,3.11,2.65.24,4.86.65,7.66,1.01,4.56,1.33,9.32,1.84,13.96,2.86,4.38.9,8.62,2.71,13.09,3.11,2.16,0,4.28-.72,6.11-1.85.57-.27,1.11-.71,1.5-1.24,3.49,2.03,7.24,3.66,10.89,5.35,4.04,1.92,8.07,4.12,12.48,5.07.27.08.55.09.83.08,1.21.85,2.51,1.55,3.95,2.01,4.72,1.4,10.06,1.24,14.5-.97,5.67-3.03,9.47-10.41,10.48-16.59.01-.06.02-.12.03-.17,1.74.2,3.81-.22,5.35-.18,1.87-.17,3.72-.52,5.51-1.08.72-.16,1.42-.49,1.94-.99,1.6,4.47,5.3,8.27,9.82,9.73,2.19.5.84.24,3.09.42,3.93.24,7.47-1.58,11.16-2.63,2.33-.72,4.29-2.18,6.44-3.25,5.09-1.95,10.4-3.51,15.32-5.87,1.29-.29,2.57-.58,3.84-.93,3.46-1.07,6.96-2.07,10.38-3.27.95.98,2.73,1.23,4.03,1.58,4.43.94,9.09-.35,13.05-2.35,3.72-3.23,10.24-5.77,16.01-8.77,8.46-4.54,16.68-9.7,23.99-15.94,8.44-7.18,14.89-16.59,18.36-27.13,3.47-9.32,4.19-19.59,1.89-29.28-1.94-6.78-5.4-13.25-10.34-18.32-3.09-2.85-6.87-4.79-10.7-6.44-8.13-4.11-17.08-6.17-26.13-6.83-6.55-.34-13.09.66-19.45,2.15-5.02,1.16-10.14,2.27-14.72,4.72-.37.2-.73.43-1.08.66.3-2.02.42-4.18.32-6.51-.19-5.39-1.09-10.73-2.35-15.96-1.13-5.07-2.64-10.08-5.09-14.69-.6-1.4-2.07-3.53-3.18-5.01,4.06,1.76,8.49,2.78,12.68,4.14,5.25,1.39,10.56,3.15,16.03,3.26,8.09.06,15.61-3.24,22.7-6.83,8.22-5.11,15.49-11.72,22.22-18.66,8.89-9.32,17.95-19.14,22.14-31.56,3.2-7.75,5.22-16.61,1.87-24.66-.03-.08-.08-.17-.12-.25,1.04-.32,1.69-1.26,2.15-2.15.89-1.63,1.38-3.46,1.29-5.32-.02-1.01-.26-1.96-.64-2.85,1.82-.57,3.08-2.31,4.26-3.76,0,0,.01-.02.02-.03,0,0,.01-.01.02-.02.73-.93,1.43-1.89,1.99-2.94,1.47-2.58,2.49-5.37,3.89-7.98,1.03-1.69,1-1.38,1.94-2.2.07-.04.15-.1.24-.17.04-.02.1-.06.19-.13.04.02.14-.03.36-.2,1.54-.64,6.74-2.45,9.87-3.84,1.93-.82,3.99-1.58,5.5-3.08,2.98-3.92-.08-7.38-4.73-8.59ZM216.92,196.89s0,0,0-.01c-.38-.89-.62-1.83-.82-2.78-.21-.97-.38-1.95-.53-2.93,0-.02,0-.04,0-.07-.17-1.31.42-2.87-.59-3.95-1.32-1.2-3.34-.39-4.96-.6-2.41-.09-3.85-.23-5.46-1.1,2.09-1.22,3.99-2.77,5.37-4.8,2.9-4.33,4.49-9.52,5.27-14.64,1.29-9.73-.06-21.35,1.54-28.85,1.63-8.94,5.34-16.8,9.68-22.17,4.89-5.95,12.06-10.82,17.25-12.93,2.7-1.15,5.49-2.07,8.31-2.89,1.29-.24,2.79-1.54,2.07-2.94-.02-.03-.04-.05-.06-.07.08-1.36-1.16-2.31-2.26-2.97-.5-.3-1.1-.86-2.35-2.22l-.06-.08c-.12-.18-.24-.36-.35-.54,0,0,.03-.02.04-.02,2.76-.9,6.78,1.88,12.18,4.74.21.16.74.28,1.09.35.19.03.38.06.57.08.64-.11.87-.1.1-.01.24.03.68-.09.97-.2-.05.02-.1.04-.16.06.06-.01.11-.05.17-.07.28-.1.4-.16.08-.03.34-.13.65-.31.92-.55-.13.14-.5.34-.38.31.38-.19.64-.52.88-.86-.11.15-.47.59-.21.31.15-.13.25-.29.33-.46.09-.12.18-.27.26-.42.87-1.4,1.19-6.54,2.2-9.63,1.1-3.35,1.36-4.21,3-7.03,1.19-1.78.73-1.2,1.95-2.47.15-.14.32-.29.44-.4.33-.24.68-.45,1.03-.64.08-.03.16-.06.23-.1.15-.04.24-.07.24-.09.18-.03.32-.06.4-.08.05,0,.09-.01.13-.02.21,0,.43,0,.64,0,.07.01.13.04.19.06.04.02.07.04.11.06.19.16.39.32.55.5,0,0,0,.01.01.02.17.24.43.75.59,1.08,1.33,4.02.25,6.35-.16,11.07,0,.27.04.53.06.61.08.43.28.85.6,1.16.84.88,2.44.81,3.13-.22,1.1-1.67,4.13-8.06,6.63-11.07.83-1.67,6.12-5.27,8.19-5.76.36-.11.68-.19.91-.23.01,0,.03,0,.04,0-.02,0-.04,0-.06,0,.18,0,.25-.01.26-.02,0,0,0,0,0,0,.06,0,.13,0,.19,0,.02,0,.03,0,.06.02.03.01.04.02.05.03.04.09.07.14.09.17-.03-.07-.04-.12-.05-.15,0,0,0,0,.01.01h0s.03.09.05.16c.01.02.01,0,0-.04.02.05.04.09.06.14,0-.04,0-.03.02.04.02.04.04.09.06.14-.02-.03-.04-.07-.05-.1,0,.06.02.14.03.27.13.15.1,3.16-.14,3.74-.91,3.01-1.18,3.35-2.43,5.86-.68,1.33-2.01,2.81-1.12,4.35.08.11.21.28.25.34.04.04.17.13.17.13.2.16.1.09.34.2-.06-.03.13.07.19.08.07.01.27.04.21.03,1.41.22,2.32-1.05,2.92-2.15.49-.09.97-.34,1.33-.69,1.52-1.3,1.5-1.27,3.38-2.45,5.66-3.02,12.38-5.45,18.23-5.65,11.31.41,21.5,5.84,34.68-1.46,1.77-1.06,2.41-1.1,2.75-1.27.12,0,.24,0,.36.01.05.01.11.03.2.05.02,0,.03.01.06.03l.12.12c.36.7.23,2.24-.26,3.1-.75,1.62-2.16,2.71-4.08,4.8-.53.52-1.07,1.04-1.29,1.76-.67,2.11,1.56,3.48,3.33,2.37.17-.15.34-.3.51-.45.26-.05.52-.13.75-.23,1.44-.45,2.93-.79,4.42-1.01,3.52-.33,7.13-.16,8.99.37.39.12.77.26,1.15.41.2.09.48.23.66.34.09.06.19.1.28.15.02.02.07.07.12.13,0,.02.02.04.03.07.01.05.03.13.05.2,0,.03,0,.07,0,.14,0,.02-.01.05-.02.08-.24.53-.53,1.04-.88,1.52-.07.09-.11.15-.14.19-.04.05-.08.1-.16.2-1.07,1.22-1.5,1.44-1.93,1.79-1.39,1.19-3.61,1.86-4.65,3.21-.8,1.35.12,3.23,1.7,3.35,1.17.13,2.35-.24,3.5-.42.25-.05.5-.08.74-.11.11,0,.34-.03.57-.05.07,0,.14,0,.22,0,.44.05.34-.08,1.84.1,4.3,1.08,10.74,2.76,13.6,3.64,0,0,0,.02,0,.03-.08.14-.21.36-.35.56-.02.02-.03.04-.06.07-1.37,1.41-1.71,1.68-4.1,2.91-1.34.54-2.79.77-4.08,1.4-1.66,1.13-1.38,2.77-.25,3.55.35.79,1.12,1.4,1.9,1.88,2.93,2.45,3.21,3.23,5.46,6.42,2.82,4.61,3.73,6.5,5.15,10.94,2.66,8.62,2.54,14.19,3.88,22.79,1.44,6.64,4.31,14.77,9.87,16.73-.25,3.23-3.56,8.48-6.45,12.82-1.1,1.64-2.25,3.24-3.35,4.89-.17-24.98-3.55-41.95-24.39-58.48-3.53-2.87-9.13-7.18-14.88-10.18-1.25-.6-3.02-1.69-4.66-2.12.03-.89-.27-1.74-1.21-2.07-2.24-.37-2.77,2.33-3.24,3.97-.81,3.6-1.4,7.35-1.03,11.04-2.38-2.63-4.33-7.22-5.55-10.32-.02-.29-.06-.46-.11-.52-.06-.34-.2-.66-.45-.9-1.15-1.17-3.04-.04-2.98,1.48-.06,3.84-.97,7.47-2.72,10.49-1.27,2.24-2.9,4.18-4.43,5.92-.03-.28-.06-.56-.1-.84-.44-3.36-.81-6.8-2.14-9.95-.11-.2-.28-.39-.46-.57,1.25-1.84,1.53-3.42-.13-4.25-1.61-.34-2.52,1.14-2.6,1.22-.89,1.06-1.9,2-2.98,2.86-3.12,2.44-5,4.15-7.23,5.7-2.99,1.99-6.11,3.77-9.08,5.78.06-1.68.48-3.77.67-5.34.11-.63.26-1.25.49-1.85.29-.47.42-1.04.33-1.58-.92-3.46-4.79-1.41-7.52.19-3.28,1.92-6.79,3.51-9.89,5.72-.07-.99-.1-2.12-.24-3.61-.2-1.45-.02-3.02-.63-4.38-.52-.95-1.79-1.46-2.69-.84-.93.08-1.63.96-1.91,1.83-.27.58-1.47,3.19-1.72,3.63-2.15,3.95-3.19,5.45-5.89,8.27-5.77,6.74-10.57,11.57-17.06,15.62-3.08,1.64-6.1,3.4-9.26,4.89-.03.01-.07.03-.1.04-1.12.33-2.24.93-2.58,2.12-.18,1.32,0,1.59.18,1.96,0,.03.06.19.15.38,0,0,0,0,0,0,.02.05.04.09.07.14.3.6,1.42,2.82,1.69,3.29,1.02,2.1,1.61,3.82,2.25,6.96,1.13,6.33-.26,15.51-1.5,21.92-.58,2.71-.94,5.46-1.52,8.17-.09.47-.19.94-.28,1.42-1.19-1.47-2.53-2.82-3.99-4.02-7.31-6.32-16.27-5.4-23.57.39-1.01.82-1.92,1.74-2.74,2.73-.43-.66-.89-1.47-1.27-2.37ZM267.43,257.17c-5.37-3.54-8.52-6.21-13.63-11.14-.93-.86-1.71-1.88-2.52-2.86.28-.58.31-1.25-.05-1.89-.49-.78-1.35-1.22-2.25-1.27-2-.11-1.2-.1-3.66-.45-11.17-1.89-19.44-6.59-24.35-14.7-2.46-4.14-2.95-10.29-1.58-15.26,1.99-6.52,5.54-10.49,13.09-11.95,2.47-.05,1.59-.17,4.19.51,1.49.48,4.71,2.49,7.16,5.3,1.93,2.22,1.56,1.74,3.23,4.33.43.64.71,1.4,1.26,1.95.94.91,2.58,1.14,3.54.15,1-1,.86-2.3.4-3.5.08-.1.17-.19.24-.3,2.39-8.01,2.97-16.47,3.24-24.79.39-7.91-.21-16.01-3.59-23.28,0,0,0,0,0,0,3.45-1.43,8.51-3.11,13.18-6.61,5.05-3.39,9.03-8.04,12.79-12.76,2.98-3.5,5.73-7.19,7.4-11.5.07.89.14,1.79.23,2.68.12.9.19,1.83.59,2.66.05.16.17.36.27.51-.02-.03-.03-.04-.06-.08.04.1.14.21.24.32,0,0,0,0,0,0,.09.09.18.17.26.25-.04-.03-.05-.04-.1-.08.11.14.33.28.53.39-.01,0-.01,0-.02,0,.14.11.39.19.61.24h-.01s.05,0,.07.01c0,0,0,0,0,0,.16.04.33.07.5.07.07,0,.14,0,.22,0,.28.02.56.01.78-.08,1.74-.69,3.39-1.59,5.09-2.37,2.39-1.15,5.49-3.51,7.83-5.2-.5,2.97-.82,6.42-.4,7.67.03.13.04.17.04.16.03.1.06.19.09.28.03.21.14.4.25.58.15.32.38.6.65.84-.15-.09-.02.07.33.27.3.15.48.21.45.19.06.02.11.06.18.08.02,0,.05,0,.07,0,.02,0,.03.01.06.02.17.05.34.07.51.07.43.04.85,0,1.25-.16,3.23-1.32,6.09-3.39,8.97-5.33,1.22-1,5.84-4.31,9.36-7.67.05.13.1.27.13.4.78,2.5,1.47,5.04,1.83,7.64,0,.06.02.14.03.26.18,1.32.16,2.65.26,3.97.06.33.08.6.07.56.01.07,0,.15.03.22.38,1.58,2.34,2.19,3.66,1.36,4.5-3.6,8.12-8.64,9.83-14.16.23-.8.41-1.61.55-2.43.37.77.76,1.54,1.19,2.28,1.65,2.73,4.16,6.01,6.35,7.22-.01,0-.03,0-.04-.01.23.21,1.02.29.88.25.12.01.23,0,.36,0,.2-.01.4-.05.58-.13.04-.02.12-.05.2-.1.03-.02.07-.03.1-.05-.03,0-.03.01-.06.03.25-.13.56-.33.63-.52.03-.03.06-.06.08-.09,0,0,.01-.02.02-.03.02-.03.03-.04.03-.05,0,0,0,0,0,0,.05-.06.11-.15.19-.26.38-.62.33-1.41.26-2.11-.33-3.28-.93-6.57-.58-9.87,0-.08.02-.15.03-.23.58.24,1.17.48,1.67.84,3.51,2.05,6.91,4.28,10.3,6.52,20.76,12.34,28.49,25.86,28.3,50.13,0,5.03.08,10.05-.12,15.07-.07,1.64-.09,3.28-.14,4.93-.12.33-.19.68-.18,1.07-.02.64.24,1.22.51,1.78.55,1.07,1.42,3.5,2.11,6.48,1.7,6.64,1.96,10.95,1.57,18.67-.48,8.33-1.5,13.09-6.62,20.43.21-.26.45-.5,0,.01-.02.03-.05.06-.08.09,0,0,0,0,0,0,0,0,0,0,0,0-.03.05-.06.09-.09.14.01-.03.04-.06.06-.1-3.22,4.01-6.82,7.72-10.85,10.92-1.76,1.54-8.24,5.86-12.49,8.17-8.16,4.82-13.74,7.31-23.4,9.21-7.13,1.36-15.07,2.05-23.98,1.7-7.35-.49-13.9-1.66-22.29-3.72-4.27-1.01-10.74-3.1-12.81-4.11-5.25-2.4-10.14-5.53-14.98-8.65ZM339.14,277.87c-1.16,1.73-2.34,2.85-4.55,4.95-1.98,2-9.22,6.02-11.62,6.82-3.35,1.3-7.04,1.22-8.78,1.03-4.26-.92-5.02-1.33-8.82-3.92-3.47-2.45-5.44-4.04-9.11-7.98-1.31-1.44-2.57-2.92-3.82-4.41,7.72,2.12,15.61,3.62,23.58,4.31,7.69.31,15.47.15,23.12-.81ZM161,209.63c.21-.26.43-.52.64-.79-.04.05-.04.06.06-.05.03-.04.05-.06.07-.09,0,0,.03-.01.09-.07,0,0,.01,0,.02-.01,2.05-1.14,1.99-.99,4.19-1.17.05,0,.1-.02.15-.02.01,0,.04,0,.1,0,.02,0,.05,0,.07,0,.04,0,.1.02.2.05,0,0,0,0,.02,0,.13.07.25.14.36.22.23.21.38.39.07-.01.08.1.4.52.29.35.04.06.1.13.12.17.05.09.08.13.09.15.15.39.29.4.34.7.6,2.15.6,2.65.2,4.39-2.35-1.41-4.9-2.48-7.5-3.18.17-.25.34-.48.43-.63ZM147.42,214.32c3.76-2.08,12.32-.9,17.3,2.04,5.59,2.97,9.51,8.44,9.86,12.7.52,8.97-7.09,16.35-13.97,17.6-.07,0-.13,0-.19,0-.48-1.14-1.59-2.01-2.46-2.85-1.95-1.57-3.99-3.12-6.33-4.06-1.56-.71-7.28-2.13-10.26-1.34-.08-.74-.43-1.48-.82-2.12-.14-.28-.26-.58-.39-.86.09.21.14.38-.01-.02,0-.02,0-.03-.02-.05-.03-.08-.07-.15-.1-.23.02.05.05.11.08.19-1.05-2.75-1.44-4.6-1.46-6.18.03-5.73,3.35-11.95,8.76-14.82ZM154.37,253.09c.03-.07.05-.13.07-.18-.02.06-.05.13-.07.18,0,0,0,0,0,0,0,.01,0,.02-.01.03,0,0,0,.02,0,.03h0c-.09,0-.2-.02-.31-.02-2.77.11-4.41.76-5.51,1.28-.36.16-.71.35-1.05.54-.15-.58-.36-1.14-.58-1.67-1.07-2.52-3.02-4.54-5.17-6.2-.55-.48-1.15-.91-1.78-1.3.4-.6.69-1.3.92-1.92.23-.61.52-1.32.7-2.04,1.08.05,2.33-.27,3.31-.12,1.2-.05,5.24.89,6.15,1.44,2.33,1.24,2.76,1.52,4.46,3.43.03.04.05.07.07.09.34.46.64.99.97,1.47-.95,1.47-1.54,3.48-2.08,4.76.05-.13.06-.12-.07.19ZM127.52,251.36c.33-.57,1.34-1.37,1.53-1.57,2.77-1.43,3.72-1.46,6.34-.98,2.06.66,2.2.69,4.29,2.19,2.12,1.73,2.44,2.12,3.73,4.34.33.66.24.82.4,1.15,0,.35.07.69.19,1.01-.22.21-.46.42-.67.65-.91,1.01-1.73,2.11-2.46,3.27-.6-1.13-1.36-2.16-2.15-3.15-2-2.33-4.57-4.21-7.46-5.28-1.34-.51-2.77-.78-4.2-.84.43-.72,1.11-1.62.48-.8ZM119.79,259.93c.12-.24.35-.58.5-.81,1.32-1.59,2.43-2,3.26-2.35,2.62-.71,2.19-.68,5.12-.07,3.63,1.01,6.05,2.84,7.73,5.25.94,1.05,1.3,2.7,2.43,3.52-.37.98-.65,1.99-.86,3.01-.97-1.33-2.18-2.5-3.42-3.43-3.69-2.43-7.78-4.61-12.24-5.05-.84-.07-1.7-.06-2.56,0,0-.03.02-.06.03-.08ZM119.47,264.4c1.3-.25.51-.17,2.39-.23.24-.01.74.03,1.01.06,3.53.6,4.66,1.23,7.59,2.85,2.04,1.19,2.01,1.04,3.65,2.76.91.83,2.07,3.48,2.03,4.23,0,.05,0,.09,0,.14-.03.12-.06.23-.1.34-.11.22-.25.44-.4.64-.94,1.26-3.42,1.35-4.7,1.18-.67-.09-1.36-.34-2.03-.37-.24-.68-.54-1.42-.94-2.23-.69-1.16-1.55-2.22-2.48-3.19-.22-.22-.28-.28-.27-.25-.37-.41-.84-.75-1.28-1.07-2.86-1.77-6.18-2.7-9.06-2.47,1.12-1.14,3-1.91,4.58-2.38ZM116.14,288.4s-.1-.09-.16-.15c-1.86-1.73-3.61-4.76-4.28-6.91-.78-3.26-.7-5.28.35-7.3.65-1.07.67-1.04,1.11-1.45.02-.02.03-.02.04-.04.08-.05.15-.11.23-.16.05-.03.09-.05.12-.06.21-.06.42-.14.65-.23,1.27-.17,1.97-.38,4.92.71,2.13,1.03,3.29,1.57,5.35,5.04.08.22.36.68.67,2.28,0,.01,0,.02.01.04,0,.11.01.22.04.32v.1s.02.1.02.15c0,.02-.01.07-.02.19h0s0,.08-.02.11c0,0,0-.01.01-.02,0,0,0,.01,0,.01,0,0,0,.02-.01.03,0,0,0,0,0,.01,0,0,0,.01,0,.02h0s-.02.05-.02.05c0,0,0,0,0,.02-.03.06-.05.1-.06.13-.01.04-.03.07-.04.1-.03.06-.07.11-.11.17,0,0,0,0-.01,0-1.1,0-1.07-.02-1.41-.07-1.04-.23-2.06-.54-3.05-.93-.04-.02-.1-.04-.16-.07-1.36-.67-3.27-1.93-4.44-.28-.77,1.58.69,2.8,1.93,3.52,1.24.86,2.65,1.47,4.13,1.77-.04.05-.08.1-.12.15-.86,1.18-1.65,2.4-2.38,3.66-.05.08-.09.16-.13.24-.31.18-.61.37-.91.59-.56-.7-1.5-1.24-2.22-1.74ZM126.11,298.97c-.03.23-.17.66-.26.91-.15.27-.4.64-.52.83-.16.2-.32.39-.49.58-.12.13-.33.31-.49.44-.17.13-.36.23-.55.33-.14.06-.28.12-.42.16-.25.06-.21.06-.08.04-.2.03-.39.07-.58.1-.18.01-.42.03-.62.02-.52-.11-1.74-.33-.79-.17,0,0,.02,0,.03,0,0,0-.01,0-.02,0,.03,0,.07,0,.11.02-.1-.04-.19-.07-.26-.1-.14-.07-.28-.14-.42-.2-.79-.6-.79-.43-1.63-1.87-.08-.04-.06-.3-.28-.66,0,0,0,0,0-.02-.04-.16-.09-.39-.12-.57-.02-.24-.04-.49-.04-.74,0-.19.03-.54.05-.74.04-.28.08-.56.15-.84.08-.28.15-.51.22-.72.89-1.2,2.01-2.01,2.82-2.33,2.85-1.01,4.59,2.96,4.22,5.53ZM131.68,288.43c-.9,1.17-1.82,2.34-2.66,3.56-1.12-1.86-2.69-2.95-4.41-3.34.51-.74,1-1.51,1.45-2.29.29-.52.64-1.01.87-1.56,1.02-.66,1.61-1.56,1.96-2.24.34-.73.6-1.56.66-2.6,1.51.47,3.31.56,4.38.51,2.2-.19,4.27-1.52,5.35-3.42.18.13.37.26.57.35-2.6,3.63-5.16,6.64-7.9,10.65.02-.03-.11.14-.29.36ZM135.88,297.06c-.48-.25-2.29-1.46-2.72-1.73-.11-.09-.22-.18-.33-.28-.17-.18-.36-.32-.57-.45.41-.6.79-1.23,1.23-1.69,2.54-3.45,6.65-9.47,8.13-11.55.91-1.13,1.83-2.24,2.73-3.37-.38,1.88-.52,3.8-.16,5.68.87,2.56,3.9,2.26,4.08-.5-.31-3.51.64-6.74,1.82-9.28.68-1.3,1.02-1.61,1.18-1.82.14-.12.25-.26.35-.41,0,0,0,0,0,0h0c.56-.84.47-2.06-.28-2.78-2.86-2.24-4.43,1.81-7.19,3.91-.32.29-.64.54-.94.74-.31.12-.61.28-.89.51-.23.1-.4.16-.48.15-.07,0-.15,0-.22,0-.1-.02-.21-.04-.31-.08-.03-.03-.06-.07-.08-.08-.02-.04-.04-.07-.05-.1,0-.02-.02-.07-.05-.13-.04-.13-.06-.27-.09-.4,0-.42-.01-1.64.1-1.93.3-2.26,2.78-7.66,5.63-9.93,1.67-1.62,5.16-3.17,7.35-3.05.35.02.65.04.73.04-.03.02.3.12.72.2.01,0,.02.01.04.02h0c.05.02.08.04.12.05.25.11.49.22.72.37.05.03.06.04.09.06,1.89,1.59,2.86,2.65,3.59,6.61,1.17,6.33-.43,13.58-5.12,18.8-.33.49-2.19,2.21-2.64,2.63-.33.2-.64.48-.9.8-1.97.81-1.66,3.07-2.19,3.52-1.89,3.53-3.93,4.65-6.84,5.85-2.34.64-1.86.68-3.91.58-1.98-.47-1.19-.24-2.68-.95ZM160.18,293.68c-.59,2.86-3.5,7.19-5.25,8.47-1.81,1.39-4.75,2.45-5.65,2.89-3.62,1.45-5.25,1.18-7.38.18-1.58-1.06-1.42-.88-2.51-2.62,3.05-.13,6.13-1.16,8.73-2.58,1.86-1.24,3.51-2.92,4.47-4.97.47-1.02,1.01-2.57,1.17-3.96,1.26-.48,2.46-1.74,3.43-2.49.76-.7,1.45-1.45,2.09-2.24,1.09,3.35,1.34,5.41.9,7.32ZM280.53,517.54s-.01,0-.02,0c0,0,0,0,0,0-.07,0-.16.02-.26.04.09-.01.17-.03.26-.04-.13,0-.28.01-.47.01-1.45-.02-2.31-.18-4.89-1.1-.08-.03-.16-.06-.24-.09l-.27-.12c-1.7-.76-3.41-1.53-5.23-1.94-4.14-.99-8.38-1.49-12.53-2.43-6.56-1.66-9.15-3.21-15.27-6.12-6-3.08-11.86-6.48-17.34-10.42-.33-.26-.66-.53-.99-.8-1.52-1.27-3.02-2.6-4.74-3.58-4.02-2.1-8-2.06-10.91-4.24-.83-.62-1.52-1.24-2.31-2.62-.99-1.71-1.76-3.58-3.2-4.97-2.94-2.42-4.62-2.26-6.81-3.53-4.04-2.07-5.6-3.32-8.36-5.71-2-1.74-3.84-3.63-5.71-5.5-1.3-1.2-3.31-3.9-5.04-1.93-.83,1.71.96,2.94,1.94,4.08,1.62,1.82,3.11,3.75,4.7,5.6,2.51,3.12,5.33,6.05,8.85,8.02,3.58,2.01,6.12,2.59,8.24,3.93.5.05,4.02,4.3,6.23,5.68,2.28,1.55,4.84,2.62,7.19,4.07,2.43,1.42,4.62,3.2,6.93,4.79,7.06,4.82,14.13,9.78,21.74,13.69-1.81-.06-3.61-.19-5.41-.37-9.75-.96-20.38-2.65-28.48-6.86-8.89-5.24-12.81-8.39-19.01-13.81-5.15-4.76-8.75-8.36-11.75-13.1-4.25-6.09-5.37-12.97-7.42-21.35-2.91-13.24-1.39-24.88,5.15-36.55,6.63-12.43,23.12-17.98,37.04-13.57,9.6,2.97,17.44,9.69,25.79,17.71,4.48,4.38,9.11,8.59,13.44,13.13,3.03,3.39,6.27,6.56,9.92,9.3,4.37,3.76,8.8,7.48,13.49,10.84,4.73,3.16,9.57,5.44,14.09,9.08.37.31.74.63,1.09.96,0,0,.01.01.02.02.15.29.28.49.27.41.02.05.04.09.05.13.06.17.12.32.18.45.59,1.88.59,1.98.59,2.8-.13,2.29.02,1.73-.34,3.04-.6-.4-1.21-.8-1.81-1.21.17-.44.23-.92.09-1.5-.36-1.25-1.72-1.8-2.88-1.5-.79.18-1.36.78-1.96,1.27-9.96,8.93-12.17,23.5-8.12,35.85.78,2.44,1.79,4.81,3.12,6.99.52,1.1,1.89,2.31,3.08,1.6.32.27.65.51.98.76-.88.3-1.77.54-2.68.68.33-.05.28-.02-.04,0ZM286.59,513.99c-2.37-1.41-2.39-1.58-4.31-3.14-.47-.38-.92-.8-1.52-.98-.02,0-.05,0-.08,0-.19-.45-.37-.96-.67-1.84-3.09-10.3-2.05-20.45,4.04-29.14.28-.33,1.05-1.22,1.72-1.97.16.11.33.2.51.28,1.2.63,2.34,1.38,3.48,2.11,2.88,1.82,5.83,3.56,8.94,4.95.49.23,1.08.5,1.68.68-.05.08-.13.15-.18.23,0,.02,0,.02.01.03-.2.27-.36.59-.47.91-.04.1-.09.22-.14.36.03-.09.05-.13.07-.19,0,0,0,.01,0,.02v-.02c-.09.28-.29.82-.31,1.08-.33,1.48-.29,4.37.74,5.86-.87,1.08-1.51,2.35-1.82,3.7-.32,1.42-.29,2.89.1,4.3.19.66.42,1.35.87,1.86-.07.14-.14.27-.17.35-.01-.06-.42.76-.55,1.34,0,.03-.01.06-.02.11,0,.02,0,.04,0,.06,0,0,0,.02,0,.03-.02.06-.04.18-.08.35-.02.06,0,.12-.02.18,0,.03-.01.11-.03.25-.04.38-.02.25,0,.09,0-.01,0-.02,0-.04-.01.08-.03.2-.05.37,0,.04-.02.09,0,.13-.14,2.42.94,4.68,1.81,6.89,1.57,3.24,3.52,6.29,5.22,9.47.16.31.35.61.52.92-6.48-3.07-12.96-6.18-19.29-9.58ZM336.67,511.9c-1.01,5.32-3.7,9.89-6.26,12.8-2.9,3.05-7.64,4.02-12.25,2.98-3.86-1.13-7.1-3.78-9.72-7.77-1.47-2.27-1.23-2.93-2.67-5.69-1.09-1.95-2.57-3.24-3.03-4.15-1.07-1.73-.89-2.4-.83-3.23,0,.02-.01.03-.02.06l.03-.09c.02-.06.05-.13.09-.21t0,0c-.16.38-.08.22.08-.08.11-.11.21-.23.31-.36.44-.24.86-.54,1.31-.78.02,0,.03,0,.04-.01.04,0,.07-.01.1-.02.07,0,.14-.02.2-.03.04,0,.08,0,.11,0,.14,0,.22,0,.27,0,.32.09.64.17.96.26.09.05.18.1.26.15,0,.01.06.05.17.13.04.03.08.07.14.11.01.02.05.07.13.13.26.39.49.81.69,1.24.09.27.36,1.05.49,1.33.45.8,1.38,1.46,2.32,1.2,2.55-.95,1.33-4.4.62-6.28-.04-.11-.08-.18-.11-.25-.09-.24-.18-.42-.19-.42-.08-.15-.17-.3-.27-.44-.21-.4-.84-.99-.78-.83-.12-.15-.28-.26-.43-.38-1-.77-2.42-1.35-3.72-1.24.1-.05.03-.07-.39-.06-.1,0-.21.03-.31.04-.13,0-.55.05-.88.15-.26.09-.43.12-.61.18-.37-1.69-.27-.79-.3-2.49.12-1.33.22-2.24,1.97-3.67.22-.15.63-.43.82-.5.01,0,.03-.02.04-.03.02-.01.04-.02.07-.03.05-.02.11-.04.17-.07-.09.04-.01.02.17-.02.21-.02.57-.04.76-.03.39.09.79.19,1.18.24,0,.03.01.06.07.09-.07-.03-.15-.07-.23-.1.18.08.36.19.54.28,0,0,.02.03.13.09.15.12.28.26.41.4.34.43.24.25.7,1.17.08.21.19.51.22.65.36,1.04-.14.65.55,2.1,1.11,1.84,3.2.26,3-1.46-.22-2.19-1.54-4.21-3.31-5.49-.02-.01-.04-.03-.06-.04-.05-.04-.1-.08-.15-.11l.04.04c-.09-.07-.19-.14-.29-.2-.24-.15-.5-.26-.77-.37-.24-.12-.5-.22-.75-.29-1.5-.33-1.33-.4-3.24-.16.93-.11-.07-.03-.4.1-.09,0-.1.02-.05.06-.09.02-.19.05-.27.08-.05-.24-.11-.48-.16-.7,0-.04,0-.08-.01-.13,0-.08,0-.16-.01-.24,0-1.57.02-.91.17-2.01,0,.03,0,.03.02-.06.05-.12.09-.24.13-.36.02-.03.04-.07.05-.12.02-.04.05-.09.1-.16.95-1.36.48-.74,1.62-2.04,1.05-.95.47-.58,1.61-1.18.07-.02.13-.04.18-.05.11,0,.23-.01.35-.01.03,0,.05,0,.08,0,.02,0,.03,0,.06,0,.08.02.12.03.14.02.15.07.26.11.26.1.06.03.12.05.18.07.1.04.2.09.3.14,1.65.88,2.36,1.68,3.04,2.55.8,1.23.19.96.99,2.65.86,1.42,2.56,1.15,3.05-.42.34-1.14-.28-2.25-.68-3.29-.96-2.23-2.91-3.96-5.18-4.79-.09-.04-.23-.08-.37-.11-.19-.05-.39-.09-.59-.1-.16-.02-.4-.05-.6-.04-.04-.02-.17-.03-.42-.04-.35,0-.76.03-1.19.1-.04-.32-.02-.52-.17-1.54,0,.01,0-.09-.01-.24,0-.03.02-.13.04-.35,0-.09.02-.17.02-.25,0-.02,0-.03.01-.06.05-.21.2-.62.29-.88,1.37-2.51,1.8-2.81,4.11-3.58.09-.01.14-.02.2-.03.12,0,.24,0,.36,0,.12.02.22.05.34.09.12.06.22.1.29.12.12.07.24.15.35.22,1.03,1.08.88.8,1.82,2.54.31.79.42,1.67,1.04,2.29.87.9,2.05.71,2.64-.4,1.21-2.28-1.63-7.87-4.5-8.41.01,0,.03,0,.04,0-.22-.08-.44-.13-.67-.17-.02,0-.05,0-.1-.01-.2-.09-.59-.09-.88-.07-.14,0-.28,0-.42,0-.05,0-.11.02-.16.02,0,0,0,0-.01,0-.03,0-.06,0-.1.01,0,0,0,0,0,0-.02,0-.04,0-.06,0-.09.01-.19.03-.28.04-.01-.88-.16-1.81-.16-2.61-.09-3.44-.3-4.34.63-6.79.84-1.73.69-1.5,2.28-3.03.73-.71,3.29-1.85,3.72-1.44,3.98,1.21,6.06,5.66,5.73,11.08h0c-.07.47-.16.92-.29,1.37-.56,1.72-.84,2.61-.44,3.37.54,1.5,2.42,1.15,3.22.04.9.32.87.24,1.79.81,1.69,1.26,3.18,3.39,4,7.03.76,2.36-1.32,8.3-2.91,13.29-1.22,3.4-2.26,6.33-1.59,8.76.3.91,1.19,1.78,2.21,1.52,1.6-.79,1.4-1.82,1.45-2.47,0-.38,0-.6,0-.72.17-.6.05-.71.52-2.17.07-.23.15-.45.23-.67.8,1.43,1.74,2.65,2.44,3.48,1.6,2.73,2.01,3.51,2.56,6.45.4,1.85.46,4.44.4,4.88ZM418.33,490.02s-.02.11-.04.18c-.02.05-.03.11-.05.16-.01.03-.03.05-.04.08-.08.11-.12.21-.21.36-.06.07-.24.29-.41.43-1.12.96-.48.47-1.86,1.39-1.25.52-2.62,2.08-1.45,3.33.84.76,1.82.66,2.74.25.06.09.11.18.16.28-.04-.07-.06-.14-.08-.2,0,0,0,0,0,0,0,0,0,0,0,0,0,0,0,0,0,0-.02-.02-.04-.05-.06-.08,0,0,0,0,0,0,0,.01.02.02.03.04,0,.02.02.03.03.05,0,0,0,0,0,0,0,0,0,0,0-.01.01.02.03.04.04.06,0,0,0,.02,0,.03-.01-.01-.02-.03-.03-.05.01.02.02.04.04.06.01.03.02.06.04.11,0,.01,0,.03,0,.05.02.03.04.06.06.1-.02-.03-.04-.06-.05-.1.09.51.31.87.05,1.83.25-.66.15-.36,0,.02-.1.14-.28.43-.39.61-.28.29-.75.7-.98.9-.03.02-.05.04-.08.06-1.64,1.26-2.71,1.28-5.42,1.99-2.83.19-9.21,2.5-13.04,5.06-2.62,1.29-6.4,3.37-7.75,3.88-3.15,1.27-6.51,1.94-9.63,3.25-1.39.55-2.58,1.47-3.89,2.15-1.35.66-3.4,1.47-5.98,2.15-.19.04-.53.1-.74.14-.32.03-.65.07-.97.08-.43.1-2.1-.08-1.72-.02-.41-.06-.69-.13-.72-.09-.36-.16-.7-.26-.63-.21-.08-.03-.16-.09-.24-.11-5.66-1.92-9.82-10.96-7.54-18,.86-3.38,4.66-6.91,8.55-9.52,3.36-2.49,6.81-4.92,9.54-8.12.28-.3.55-.62.82-.93-.07.43-.15.87-.21,1.3-.43,2.59-1.21,5.47-2.01,6.75-.58,1.55-2.72,2.21-1.81,4.66.22.23.17.32.51.52,2.73,1.13,3.67-2.76,4.53-4.59,1.36-3.86,2.13-7.91,3.62-11.73,1.23-3.14,3.76-8.2,6.96-10.89,1.35-1.08,2.64-1.97,5.03-2.67,1.49-.38,1.52-.3,1.81-.35.61-.03,1.18-.25,1.66-.62.94-.27,1.75-1.13,2.31-1.93.64-.79,1.2-1.64,1.81-2.46,2.03-2.43,2.7-3.02,5.19-4.32.64-.23.93-.39,2.93-.38.2.03.4.05.54.06.03,0,.06.01.09.01.32.05.63.13.94.21.31.16.43.18.43.13.2.08.35.14.38.14.05.03.12.06.22.12.13.07.25.15.34.21.22.19.43.37.63.57.05.05.09.09.14.14l.02.03c.53.84,1.25,3.16.58,5.54-.2.38-.45.74-.7,1.09-.17.21-.48.58-.6.72-.92,1.15-2.09,2.09-3.01,3.22-.3.14-.59.29-.87.46-1.26.98-2.96,1.86-3.46,3.45-.13.63-.03,1.41.57,1.76,1.39.75,2.59-.5,3.72-1.15,1.9-1.08,3.05-1.42,4.45-1.45.46-.04.46.14.9.2.11.06.21.12.31.18.2.18.38.37.55.57.11.16.25.39.33.57.05.15.09.31.12.47,0,.07,0,.14.01.23.04,1-.1.73-.1,1.14-.03.09-.07.24-.13.45-.57,1.14-2.21,2.44-3.18,3.16-1.67.85-2.41,3.52.13,3.52.46,0,.86-.19,1.24-.43.3.02.6,0,.88-.02.27,0,.54.01.81.04.1.02.2.04.3.07.08.03.19.06.3.09.07.04.14.07.2.11.13.1.24.22.35.34.04.07.08.14.11.21.01.03.02.04.03.08.13.43.05.04.02-.19.02.17.05.34.08.51.03.23.04.46.04.69,0,.11-.01.16-.01.2,0,.02-.02.03-.03.06-.02.07-.02.1-.02.09,0,.02,0,.03-.01.05-.45.91-.61,1.15-3,2.4-.16.07-.26.12-.33.15-.16.06-.31.12-.46.19-.99.54-1.69,1.96-.75,2.84.87.82,2.13.66,3.11.16.25.08.5.13.75.14,1.77.22,1.15.04,2.15.46.26.22.3.23.46.65,0,.08,0,.16.01.23l-.02.23ZM394.16,460.04c1.04-1.04,2.1-2.06,3.22-3.01-.77.96-1.46,1.99-2.17,3-.35-.05-.7-.04-1.05.01ZM407.1,407.31c1.94-1.29,3.88-2.61,6.06-3.47,4.76-1.63,18.23-4.52,23.49-4.84,7.94-.54,11.87.24,19.44,1.86,5,1.4,6.72,2.15,10.57,3.93,2.94,1.3,5.9,2.65,8.49,4.56,1.89,1.14,6.11,6.51,8.41,11.85.13.34.53,1.32.66,1.69,1.51,4.34,1.67,5.65,2,9.15.5,7.66.04,11.39-2.25,18.52-2.02,6.21-3.67,9.95-7.87,16.04-6.62,8.72-17.73,19.19-28.66,25.62-3.17,1.96-6.55,3.54-9.9,5.17-3,1.49-4.66,2.06-8.44,3.16-1.31.44-2.34,1.39-3.46,2.16-1.35.88-2.44,1.35-2.83,1.47-1.81.71-2.81.43-3.36.39-.44-.07-.75-.15-1-.23,1.15-.61,2.28-1.24,3.45-1.81.06-.03.12-.06.17-.09.18.22.38.42.64.59.73.43,1.61.16,1.98-.6.27-.53.34-1.1.22-1.67-.36-1.81-1.01-3.54-1.73-5.24-.55-1.11-.81-2.6-1.87-3.31,0-.03.02-.06.03-.09.4-1.04.3-.71.3-1.55.01.09.03.14.04-.02.03-.25.05-.49.03-.74,0-.03,0-.06-.01-.1,0-.02,0-.06,0-.16-.07-1.49-.99-2.9-2.31-3.58-.25-.12-.52-.21-.79-.3.23-.29.43-.61.6-.94.16-.18.34-.9.42-1.25.05-.25.1-.52.07-.77.04-.02.06-.14.04-.39-.13-1.89-.14-2.16-1.25-3.69-.8-.77-1.22-1.1-1.75-1.3,1.32-1.51,1.81-2.74,1.94-4.24.02-2,.05-2.28-.92-4.17-.55-.81-1.24-1.52-2.1-2-.02,0-.03.02-.04.03-.48-.35-1.12-.55-1.77-.65,1.01-1.01,2.25-2.69,2.22-2.72.16-.27,0-.05-.1.09.7-.9.94-2.1,1.1-3.21.23-1.88.09-3.86-.63-5.62-.07-.58-1.45-2.23-.67-1.22-.57-.81-1.35-1.48-2.24-1.91-.54-.23-.77-.32-.09-.03-.2-.09-.41-.18-.62-.26-.32-.13-.66-.23-1-.28-.07-.03-.22-.07-.52-.11-.47-.26-3.21-.12-1.72-.21-.09,0-.18,0-.27,0-.19,0-.39,0-.58.04-.09-.02-.23,0-.49.03-1.77.04-3.42.56-4.96,1.35-.41-.54-.86-1.05-1.24-1.52-1.03-1.12-2.91-3.38-4.4-1.72-.42.84-.06,1.61.45,2.29-.54.31-1.03.8-1.49,1.3.58-2.54,1.13-5.5,1.7-6.33,1.49-2.82,3-4.14,4.73-4.7,1.43-.39,2.94-.65,4.21-1.46,1.59-1,2.73-2.52,3.82-4.03,3.09-4.1,4.48-6.59,8.13-10.05,0,0,0,0,.02-.01.04-.03.1-.07.2-.15,1.07-.73,2.17-1.42,3.14-2.28,1.74-1.47,2.39-3.71,3.03-5.82.94-3.05,1.78-5.18,2.85-6.3,1.43-1.49,1.2-1.25,3.19-2.42.67-.31,1.28-.73,1.64-1.4,1.02-1.76-.67-3.6-2.56-3.07-1.12.35-1.98,1.22-2.89,1.92-4.37,4.03-6.04,9.96-9.64,14.57-3.82,6.01-10.64,12.22-15.96,16.19-4.76,4.05-11.25,8.49-10.57,15.56.04.83.14,1.67.07,2.51-.22.64-.3,1.47-.05,2.11-1.73,1.67-3.44,3.37-5.04,5.16-2.89,1.94-5.06,4.75-6.67,7.93-.86,1.22-1.49,2.64-2.24,3.92-1.53,2.57-2.35,3.35-4.2,5.7-2.29,2.76-3.64,3.98-6.44,5.57-3.28,1.98-6.94,3.44-9.58,6.31-4.36,4.04-5.38,10.31-4.76,16.09-.1-.03-.2-.07-.3-.1-1.11-.26-2.19.2-3.29.35-1.43.17-2.87.29-4.32.31-1.41.12-2.9-.15-4.31.04l-.06-.35c-.39-2.21-.85-4.44-1.99-6.41-1.3-2.71-4.13-5.52-4.37-6.5-.48-1.36-.64-2.81-.91-4.23.45-1.46.89-2.94,1.28-4.43.69-2.35,1.46-4.74,1.37-7.21-.24-4.02-2.02-8.14-5.36-10.52-.73-.57-1.53-1.05-2.4-1.37-.31-.16-.65-.29-.99-.41.82-5.94-2.29-12.6-8.08-14.63-3.91-1.35-8.77,1.57-11.02,4.72-2.39,3.21-2.43,7.39-1.99,11.2.14.93.12,1.97.51,2.83-.42.28-.82.6-1.17.97-1.18,1.31-2.16,2.8-2.72,4.47-.03.1-.05.15-.06.17-.02.05-.04.09-.06.14-.04.12-.04.14-.02.11-.02.05-.05.1-.06.16-.07.22-.15.7-.2,1.03-.14.75-.16,1.71-.01,2.61-1.26-.84-2.99-1.56-4.33-2.28-.92-.44-1.81-.94-2.68-1.45,1.1-1.69,1.43-4.43,1.52-6.05-.03-1.45-.43-2.87-1.01-4.19-.23-.56-.55-1.13-.97-1.58-.14-.17-.28-.34-.44-.49-.2-.24-.45-.42-.72-.58-.1-.09-.21-.18-.34-.23.05.04.1.07.15.11-.05-.02-.1-.04-.15-.06-4.71-3.17-10.04-5.36-14.86-8.35-4.88-3.13-9.39-7.75-14.09-12.71-5.3-4.84-9.63-10.59-14.76-15.6-6.43-6.12-12.61-12.56-19.79-17.82.42.1.84.21,1.26.31,1.11.14,2.24.63,3.37.64,5.87,6.91,17.13,10.72,24.86,13.18,3.71,1.02,7.18,2.71,10.85,3.82,5.82,1.76,11.84,2.67,17.86,3.39,16.69,2.15,33.58,3.94,50.43,3.13.19.41.3.71.61,1.5,2.06,5.16,3.37,10.58,4.6,15.98,1.59,7.7,2.03,16.86,1.93,25.75-.06,6.15-.02,12.31-.87,18.41.04,2.37,2.32,2.79,3.04.41,1.4-7.16.98-14.45.73-21.69-.2-10.67-1.25-21.33-3.81-31.7-.68-3.02-1.55-5.99-2.67-8.87,12.81-.73,25.37-3.5,37.51-7.61,12.01-3.52,22.4-8.72,26.98-18.6.25-.18.5-.36.73-.53ZM491.82,295.88c-1.18,7.05-2.95,11.75-5.63,16.98-3.62,6.4-7.19,10.72-9.99,14.27-4.05,4.72-8.16,9.42-12.76,13.61-5.05,4.63-10.11,9.25-14.34,11.96-2.75,1.74-5.81,2.89-8.73,4.28-2.94,1.5-9.8,3.56-13.53,3.48-4.53.15-6.1-.5-11.03-1.18-4.85-.9-9.49-2.7-14.11-4.39-1.65-.41-3.54-1.76-5.27-1.65-1.31-7.51-2.28-15.16-5.06-22.31-.97-2.44-1.28-3.01-2.4-5.7-.46-1.04-.9-2.27-2.09-2.63-.44-.13-1-.11-1.33.24-1.14,1.23-.04,2.71.49,3.93.42,1.07,1.25,2.84,1.85,4.96,1.97,7.39,2.59,12.75,3.34,19.38.3,2.11.09,4.32.71,6.37.44,1.38,1.6,2.33,2.48,3.42.44.14,2.97,4.51,3.91,6.71,2.61,6.95,5.35,17.58,5.23,26.16.51,18.07-13.56,24.14-32,29.2-21.21,6.32-42.36,6.58-65.58,4.56-11.42-1.12-20.17-1.59-30.35-3.9-5.47-1.17-10.55-3.56-15.88-5.18-6.3-2.12-9.33-3.28-14.79-6.04-4.76-2.28-7.26-4.22-9.24-7.33-1.28-2.17-1.19-2.16-1.99-4.52-.32-1.4-.37-1.33,0-2.79.03-.09.06-.16.08-.22.02-.05.07-.15.15-.34.22-.45.48-.88.77-1.29,1.22-1.36,2.4-2.78,2.92-4.57.95-2.99,1.15-6.19.6-9.27,0-.04,0-.08,0-.12,10-6.25,17.33-16.1,23.32-26.15.84-1.05.25-.58,1.44-1.76.72-.7,1.6-1.33,1.88-2.34.67-2.17-1.43-4.22-3.53-3.01-1.28.64-1.54,2.06-1.84,3.32-.02.18-.16.55-.26.82-2.3,4.32-4.71,6.55-8.21,10.54-6.26,6.63-10.33,10.47-17.96,14.74-11.66,6.92-21.64,9.18-33.82,6.43-9.18-2.51-15.19-7.44-22.55-14.69-4.86-4.63-9.62-9.36-14.29-14.17-2.37-2.55-3.5-4.54-5.98-7.95-4.98-7.85-10.62-15.32-15.08-23.48-1.74-3.94-3.39-10.98-1.91-15.43,0-.06.02-.12.03-.17,6.46,2.66,13.56-1.16,18.48-5.38,2.97-2.98,5.51-6.74,6.24-10.89.71.07,1.39-.01,1.84.2,3.12.64,4.87,1.3,6.36,2.15,8.49,4.75,16.07,15.28,22.16,23.11,2.44,3.07,4.04,7.02,7.43,9.18,2.51,1.43,4.69,1.98,5.98,3.62.19.29.64.97.72,1.21.99,2.09,1.94,4.2,2.94,6.29.95,1.77,3.78,2.21,4.83.31,1.04-1.77-.14-3.57-1.3-4.93-1.59-2.1-3.46-3.96-5.37-5.77-1.64-1.38-3.01-3.04-4.59-4.49.21-.3.39-.63.55-.94,1.24-2.07,2.88-4.25,3.31-4.75,7.5-8.5,12.52-11.37,20.02-17.39,2.29-1.57,3.91-3.8,5.51-6.03,1.58-2.18,4.47-5.51,7.5-8.53.79-.81,1.53-1.53,2.26-2.21.24-.01.49-.04.73-.05,1.47,0,2,.12,3.39.6,4.85,2.33,7.3,6.19,9.79,11.99,2,4.71,4.51,13.21,6.1,19.47,1.81,6.4,2.02,13.87.84,19.76-.36,1.86-.93,3.68-1.53,5.48-.42,1.14-.89,2.56.11,3.53,1.36,1.11,2.82-.65,3.01-2,1.37-4.02,2.09-8.23,2.3-12.47.58-10.7-2.79-21.17-6.56-31.05-2.97-7.09-6.69-16.31-14.97-18.03,2.26-1.78,4.62-3.32,7.71-5.2,6.06-3.57,9.86-5.43,15.81-7.26.03.35.08.7.16,1.01.31,2.47,1.2,4.8,2.16,7.09,2.36,6.04,6.11,11.52,10.87,15.92,5.44,5.24,12.16,9.15,19.36,11.41,4.3,1.23,8.82,1.68,13.28,1.82,11.05-.55,22.24-4.15,30.53-11.68,2.52-2.38,4.88-4.99,6.57-8.03,1.02-1.89,1.71-3.93,2.4-5.96.21-.8,0-2.14-.98-2.25-.64.04-1.16.47-1.51.98-.97,2.05-1.01,2.69-1.88,4.38-2.3,4.5-5.35,7.54-9.66,11.04-3.83,2.82-10.21,5.99-16.02,6.99-4.43.92-6.92,1.6-11.56,1.34-4.78-.39-7.84-.54-12.62-2.3-3.48-1.32-8.4-3.82-12.24-6.76-2.68-2.05-7.24-6.69-9.41-10.14-2.65-4.23-3.72-6.88-5.22-11.49-.45-1.99-.5-2.2-.61-3.56,0-.14,0-.28-.02-.42.12-.02.25-.03.37-.05,3.02,1.62,6.11,3.09,9.3,4.3.26,1.9,2.32,3.83,3.21,5.41,3.57,4.86,7.65,9.4,12.57,12.94,7.18,5.83,14.19,7.67,23.2,5.14,3.13-.94,5.96-2.62,8.71-4.34,2.5-1.58,4.91-3.35,6.78-5.66,2.21-2.48,4.11-5.23,5.45-8.27,5.41-1.03,10.62-2.79,15.6-5.08.31.04.63.07.94.08,1.82.2,1.54.19,2.22.28,2.47.51,4.93,1.11,7.38,1.78,3.58,7.02,6.04,12.77,8.4,20.38,1.45,5.09,2.46,10.29,3.42,15.49.3,1.71.63,3.42.93,5.13.08.4.29.78.56,1.09.79.9,1.75.64,2.12-.5.37-1.45-.3-2.98-.43-4.45-1.73-10.7-4.75-21.22-8.89-31.24-.68-1.59-1.39-3.17-2.13-4.74,3.01.92,5.99,1.93,8.93,3.01,7.93,3.05,17.97,8.13,27.31,13.06,3.07,1.77,6.45,2.99,9.41,4.95,2.85,2.07,9.14,7.52,11.06,10.31,1.43,2.06,2.34,4.42,3.56,6.61.79,1.56,3.11,2.3,4.42.95,2.18-2.43-.8-5.15-2.29-7.07-1.57-1.72-3.14-3.44-4.78-5.1.72-.4,1.33-1.09,1.8-1.82,1.71-2.21,3.28-4.51,4.86-6.81,6.84-9.09,11.39-18.92,18.52-25.86,3.86-3.78,8.47-4.56,12.54-2.81,3.15,1.57,3.91,2.85,7.12,5.31,1.17,1.03,2.28,2.16,3.63,2.96,1.14.67,2.4,1.14,3.46,1.93.37.27.73.55,1.09.82-.05-.06-.03-.05.13.1,0,0,0,0,0,0t0,0s.02.01.02.02c.04.03.09.06.13.1-.01,0-.03-.01-.04-.02,2.21,1.82,2.52,2.31,3.87,4.69,1.4,2.6,1.84,4,2.48,7.69,0,.06.01.11.02.17,0,0,0,0,0,0,0,0,0,0,0,0h0s.03.06.05.35c0,.08.02.15.03.23,0-.03-.01-.06-.02-.1.15,1.39.2,2.8.19,4.19-.02,2.07-.14,2.19-.17,2.72ZM494.4,277.52c-.41,1.33-.05.4-.88,2.06,0,0,0,0,0,0-.87-1.36-1.83-2.66-2.87-3.89-2.37-2-4.72-4.03-7.07-6.05-1.1-.93-1.93-2.12-3-3.06-2.29-1.8-4.71-3.48-7.21-4.98-.3-.13-.62-.21-.94-.32.13-.19.26-.38.37-.56.29-.4.57-.8.86-1.19.1-.09.19-.2.26-.31.15-.01.49-.09.71-.14,1.09-.01,1.51-.09,3.45,1.01,3.26,2.13,4.32,3.11,7.31,5.68,2.29,1.93,4.52,3.95,6.37,6.32.53.7,2.39,2.9,2.7,4.4,0,.01,0,.02,0,.03,0,.34-.02.68-.06,1.01ZM524.21,246.53s-.04.06-.06.09c0,0,.02-.02.03-.02,0,0,0-.01.02-.02t0,.01s0,0,0,0c0,0,0,0,0,0,0,0,0,0,0,.01h0s-.02.03-.04.04c0-.01.02-.02.03-.04,0,0-.02.02-.03.02v.02s-.04.02-.05.02h0s0,0,0,0c-.04.04-.09.07-.14.11.04-.04.06-.05.09-.08-.04.03-.07.05-.12.08-1.62.94-1.67.89-2.65,1.32.09-.04.16-.07.21-.09-.17.07-.43.18-.61.25-2.91,1.07-5.72,2.42-8.67,3.36-.82.3-2.31.51-2.56.68-.16.01-.32.05-.45.12-.49.08-1.47.66-.47.2-1.23.48-2.28,1.43-3.06,2.49-1,1.38-1.48,3.05-2.14,4.61-.11.53-2.99,6.67-3.71,7.03-1.2,1.38-2.43,2.34-2.92,2.72-.04.03-.05.04-.11.09,0,0,.02-.02.03-.03-.15.12-.32.25-.44.34-.03.03-.05.08-.09.12-.12-.15-.23-.29-.36-.43-3.04-3.76-7-6.56-10.95-9.28-3.21-2.07-6.11-5.18-10.14-5.39-.05,0-.09,0-.11,0-.05,0-.09-.01-.14-.02-.07-.77-.5-1.54-.97-2.15-.12-.22-.22-.45-.32-.68-.03-.1-.05-.15-.06-.13-.01-.04-.04-.07-.05-.11-.07-.36-.17-.72-.25-1.08-.62-3.22-.7-4.36-.88-5.65-.33-2.66-.09-5.36-.43-8.02-.45-4.56-1.45-9-2.94-13.32-.34-1.42-.19-.88-.34-2.1,0,.06.02.06.02-.08,0-.01,0-.02,0-.03,0-.01,0-.02,0-.04.04-.14.08-.27.12-.41,0,0,.04-.05.12-.18.2-.13.43-.3.69-.29.01,0,0,0,.02-.01.38.05.71-.02,1.01.14.71.03,2.36,1.86,2.32,1.95,1.58,1.95,2.52,6.74,2.73,8.44.21,1.82.39,3.68.99,5.43.14.38.28.79.5,1.14-.04-.02-.03.04.11.28.56,1.53,4.59,3.23,7.05,5.03.83.61.69.46,1.55,1.28,1.26,2.13,1.76,3.15,2.38,5.45.48,1.37.3,3.24,1.73,4.05.49.3,1.24.22,1.66-.23,1.81-1.78-.34-6.96-1.73-9.41,0-.16-.01-.32-.05-.46-.91-2.14-2.7-3.68-4.66-4.96-.35-.29-.7-.58-1.08-.85-.8-.51-1.88-1.63-2.98-2.22.05-.22.08-.45.05-.69-.09-1.54.08-3.08.25-4.61.01-.09.02-.18.03-.26.13-.84.29-1.67.42-2.51.07-.34.05-.76-.04-1.14,2.26-6.76,3.82-11,7.68-17.03.14-.16.28-.31.43-.47.08.1.16.2.26.34,1.95,1.95-1.11,11.09-1.39,15.83-.52,2.22,1.08,6.12,4.94,4.98,2.38-1.03,3.88-3.36,5.59-5.21,2.16-2.57,4.47-5,6.94-7.27,1.78-1.64,4.15-3.23,5.33-3.54.01.01.02.02.03.03.05.08.11.19.16.3-.06-.12-.09-.21-.12-.26,0,0,0,.01.02.02.03.08.08.19.14.34.06.31.46.72-.35,2.96-.96,2.69-5.46,8.46-7.75,12.43-.3.57-.73,1.18-.92,1.82-.16.39-.27.8-.27,1.22-.03,1.21,1,2.19,2.19,2.21,2.64-.2,4.82-2.09,6.96-3.48,2.42-1.8,8-5.53,9.12-5.83,1.98-.68,1.85-.48,2.12-.4.02.02.03.03.05.05,0,0,.01.02.02.04.02.06.05.16.07.26.01.19.03.52-.02.74.1,1.01-2.07,3.61-5.46,6.2-2.51,2.28-9.63,6.41-7.3,10.4.77,1.05,1.56,1.17,1.76,1.28.64.23,1.32.22,1.98.12.23-.03.68-.09.96-.13,1.95-.2,3.93-.29,5.89-.09.37.07,1.26.23,1.75.39.19.08.6.27.78.4.18.11.35.24.52.36.02.02.05.04.08.07.08.07.16.15.22.22.08.13.14.22.18.29.03.11.06.2.08.25,0,.1,0,.19,0,.29Z"/>
</svg>