<?xml version="1.0" encoding="UTF-8"?>
<svg id="OBJECTS" xmlns="http://www.w3.org/2000/svg" version="1.1" viewBox="0 0 634.57 634.57">
  <!-- Generator: Adobe Illustrator 30.2.1, SVG Export Plug-In . SVG Version: 2.1.1 Build 1)  -->
  <defs>
    <style>
      .st0 {
        fill: #04bcc6;
        fill-rule: evenodd;
      }
    </style>
  </defs>
  <path class="st0" d="M394.35,175.69c-2.13-.13-4.37-.74-5.7-2.5-.81-.98.48-2.26,1.45-1.45,4.15,3.48,9.91,1.12,13.57-1.95,3.8-2.8,6.77-6.96,7.53-11.67.69-4.66-1.33-10.56-6.19-12.04-2.13-.44-4.11.98-5.94,1.87-1.91,1.15-3.99,2.65-4.61,4.88.18.39.11.86-.23,1.16-1.23.92-2.22-.99-1.71-2.04,1.42-3.89,5.39-6,9.01-7.49.83-.38,1.68-.54,2.51-.54.12-1.56.26-3.12.41-4.68.87-9.46,2.76-19.01,1.46-28.5-.42-5.79-2.79-9.38-5.97-13.98-2.35-3.63-4.51-7.39-6.32-11.32-1.93-3.85-5.44-16.23-7.98-5.23-.34,1.37-.11,3.73-1.97,3.92-2.81.04-5.2-5.71-6.14-7.88-1.18-2.04-2.4-10.56-4.77-10.42-1.88.71-2.29,2.84-2.54,4.61-.25,1.72-.23,3.45-.05,5.17.02.26-.07.51-.23.71.22.47.45.93.7,1.38.32.57.7,1.11,1.07,1.66.55.94-.64,1.94-1.47,1.23-1.53-1.56-2.33-3.72-3.17-5.71-1.75-4.11-2.9-8.54-5.41-12.28-.65-.93-1.9-1.55-3.01-1.1-1.24.95-1.88,2.62-2.2,4.11-.13,1.49-.06,2.85.11,4.3.07,1.47.84,2.91.61,4.37-.75,1.81-2.66.35-3.25-.82-2.21-3.62-3.35-7.75-4.97-11.64-.61-1.31-1.07-2.85-2.27-3.75-3.09-1.7-5.74,1.64-6.22,4.44-.48,1.84-.6,3.76-.37,5.65.07,1.57,1.65,4.71-.87,4.98-2.68-.21-5.47-4.77-6.75-6.94-1-1.64-1.5-3.63-2.75-5.09-3,.93-3.79,5.94-3.88,8.65-.27,2.08,1.62,6.55-1.96,6.28-2.72-.54-3.55-3.8-5.79-5.05-1.6-.26-1.86,2.29-2.17,3.41,0,.45,0,.99-.22,1.36.02.7.05,1.41.07,2.11.24,2.84.02,4.75-2.35,6.56-9.42,8.3-15.99,19.62-19.33,31.6-2.18,7.71-1.7,15.69-3.89,23.38-1.42,6.04-3.89,11.76-5.59,17.71-1.72,6.48-2.35,13.02-2.22,19.65.47,9.24,4.19,18.68,11.46,24.63,3.45,2.95,7.29,5.32,11.35,7.29,3.67,1.97,7.54,3.52,11.55,4.63,3.55,1,7.17,1.41,10.82,1.62,4.86.5,9.73.27,14.53-.62,7.45-1.24,14.44-4.59,20.98-8.21,2.17-1.21,4.26-2.6,6.04-4.35.87-.83,2.26.51,1.41,1.42-3.04,3.07-6.95,5.08-10.78,7-8.04,4.25-16.91,6.85-26.02,7.11-2.82-.1-5.66-.21-8.48-.46,2.07.94,4.19,1.78,6.33,2.55,6.4,2.11,13.17,2.61,19.82,2.39,8.2-.45,16.33-2.38,23.7-6.04,4.59-2.21,8.9-5.15,12.64-8.54-1.62-4.25-1.36-8.8-.26-13.54,1.13-5.41,3.51-10.41,5.79-15.4.35-.59.67-1.64,1.09-2.56h0ZM187.86,240.02c-2.06-1.56-7.08-5.22-6.63-8.05.33-.91,1.76-.74,1.86.22.22.98,1.07,1.89,1.7,2.6,1.3,1.33,2.73,2.54,4.24,3.63,1.03.78-.12,2.35-1.17,1.6h0ZM191.9,232.07c.95.88,2.29-.55,1.36-1.43-1.54-1.36-3.06-2.76-4.34-4.37-2.68-3.54-4.74-7.86-5.39-12.28.34-1.26-1.39-1.89-1.87-.66-.43,2.01.59,4.03,1.17,5.92,1.75,5.05,4.87,9.51,9.07,12.82h0ZM273.17,426.49c-1.02.13-1.91-.83-1.17-1.7.25-.28.63-.34.99-.3,2.37-.08,4.78-.36,7.06-1.01.05-.08.11-.16.18-.22-.97-.36-1.92-.75-2.87-1.16-1.1-.64-5.34-1.7-4.32-3.35.37-.57,1.13-.5,1.59-.11.8.45,1.63.81,2.47,1.17,7.23,3.15,14.87,4.89,22.56,6.32,6.84,1.24,13.84,2.77,20.81,2.59,3.67.08,7.36-.05,10.94-.92.06-.01.13-.02.19-.02.1-.27.3-.5.6-.59.17-.04.34-.1.5-.16-.58-1.59-1.16-3.18-1.75-4.77-1.36-3.7-2.6-7.44-3.84-11.19-.44-1.32-.89-2.64-1.24-3.98-.08-.28-.07-.55.06-.81.41-.81,1.68-.76,1.96.14.67,1.86,1.26,3.75,1.88,5.62,1.86,5.79,4.01,11.48,6.1,17.19,2.46,6.93,6.14,13.38,8.25,20.44,1.73,5.92,3.64,11.95,3.77,18.16-.57,13.36-.67,26.74.39,40.08.45,6.18,1.2,12.33,2.32,18.42,1.12,6.62,2.97,10.91,1.68,15.89,3.14-.74,6.37-1.36,9.59-.88,1.29.21,1.02,2.15-.28,1.99-3.32-.38-6.56.29-9.75,1.1-.12.04-.25.08-.37.11-.6,1.36-1.46,2.79-2.63,4.36-3.77,5.43-8.51,10.22-11.23,16.3-1.83,4.1-.46,10.02,4.33,11.19,4.03,1.08,8.09-.49,12.04-1.23,7.86-1.56,15.81-3.56,22.67-7.75,5.22-2.97,10.16-6.61,13.77-11.47,3.21-4.05,5.09-8.87,5.71-13.98.82-5.82,1.9-11.61,3.88-17.15,3.81-11.71,6.65-23.94,6.96-36.28.14-8.24-1.04-16.42-1.72-24.62-.51-5.99-.06-12.02,1.36-17.86,1.41-6,2.84-11.99,4.06-18.03,2.32-10.51,4.57-21.17,3.84-31.99-.27-4.47-.84-8.93-1.28-13.39-1.44,1.34-2.86,2.69-4.35,3.97-.64.49-1.35,1.29-2.06,1.43-7.35,8.88-10.04,20.83-18.78,28.66-1.73,1.31-4.48,4.69-6.75,2.93-1.64-1.8-.75-4.99.18-7.74-2.17,3.29-4.87,6.42-8.1,5.78-5.28-2.46,3.24-14.1,5.23-17.24-3.36,3.3-6.28,7.4-10.76,9.24-2.9,1.28-5.39-.29-4.19-3.53,1.11-3.45,2.81-5.84,5.1-8.73-2.97,2.36-6.3,5.22-10.29,5.13-3.46-.41-2.75-3.99-1.43-6.19,2.38-4.95,6.44-8.6,10.31-12.36-1.53.07-3.06.08-4.59,0-2.99-.26-7.91-.99-7.83-4.86.14-1.82,1.32-3.61,2.99-4.37,3.87-1.39,8.1-1.42,12.13-2.13,3.57-.49,6.55-.72,8.67-4.01.66-.92,1.31-1.86,1.94-2.8-1.14.25-2.29.44-3.44.64-11.92,2.2-24.01,3.24-36.12,3.14,0,0,.14,0,.14,0-16.9-.45-37.64-4.11-51.82-14.14,1.71,3.86,3.79,7.55,6.43,10.92,3.13,3.91,6.59,7.6,10.38,10.79,2.67,1.96,5.51,3.68,8.25,5.55,1.03.67.05,2.42-1.12,1.67-2.55-1.67-5.16-3.26-7.65-5.01-5.69-4.57-10.72-10.09-14.65-16.25-1.74-2.66-3.12-5.51-4.31-8.44-1.99-.42-4.16.11-6.15.23-11.57,1.62-23.05,4.39-33.92,8.72-19.59,8.01-30.12,18.05-30.79,40.09-.13,11.56,4.86,22.44,8.9,33.03,2.47,5.95,5.22,11.77,8.34,17.41,1.53,2.79,3.11,5.55,4.66,8.33.99,1.86,2.2,3.77,2.7,5.84.92-.54,1.92-.95,2.49-1.22,1.06-.26,2.94-1.69,3.54-.15.25.84-.56,1.27-1.25,1.44-1.59.58-3.19,1.22-4.56,2.24,0,.04,0,.08,0,.12-.42,3.1-2.13,5.87-3.59,8.58-1.53,2.73-3.06,5.46-4.46,8.27-1.57,3.48-6.49,12.59-3.82,15.67,8.05,7.04,25.87-7.99,32.71-12.88,7.31-5.59,14.81-11.42,19.69-19.38,3.21-5.7,3.44-12.54,3.2-18.94-.39-7.27-2.58-14.24-3.61-21.42-.25-1.7-.57-3.39-.79-5.09-2.22.61-4.59.79-6.87.93h0ZM283.02,424.24c-.08.12-.18.23-.32.31-.16.08-.32.16-.48.23.44,2.65.8,5.32,1.27,7.96.99,6.03,2.72,11.94,3.14,18.06.4,6.32.2,12.89-2.17,18.84-3.93,8.46-11.48,14.6-18.67,20.26-8.45,6.25-24.06,19.75-34.87,17.02-5.84-1.57-5.76-6.52-4.08-11.35,1.71-5.33,4.39-10.3,7.08-15.18,6.28-11.02,5.79-10.09-.32-20.83-5.84-10.06-10.71-20.67-14.61-31.62-3.39-9.18-6.4-18.88-5.07-28.77,1.52-15.81,8.6-25.55,22.35-33.17,14.21-7.53,30.15-11.6,46.05-13.51,1.12-.03,2.37-.23,3.54-.15-1.21-3.31-2.21-6.71-3.21-10.08-2.62-9.67-4.49-19.59-5.01-29.6-4.09,4.51-10.6,6.24-16.57,5.98-14.52-.3-24.59-11.26-31.17-23.15-3.3-5.45-5.78-11.29-7.78-17.28-2.95-8.03-5.23-16.48-7.12-24.75-1.37-5.15-2.76-10.3-6.87-13.88-.72-.84-2.06-1.82-1.8-3.01-1.19-1.43-2.53-2.76-3.83-4.02-4.77-5.04-10.91-11.36-12.49-18.27-.75-3.89.9-6.88,5.08-4.74,3.69,1.97,6.06,5.52,8.77,8.56-3.35-4.79-5.97-10.27-6.16-16.21-.13-2.1.74-4.57,2.92-5.24,1.98-.33,3.77,1.11,5.14,2.38,3.4,3.31,5.04,7.9,7.85,11.62-1.71-5.88-4.05-11.77-4.11-17.96.12-3.52,2.21-7.27,5.81-4.06,4.08,4.77,6.13,10.89,9.12,16.34-.63-3.85-1.66-7.78-.91-11.68.53-1.84,1.27-4.57,3.49-4.85,1.28-.04,2.56.59,3.4,1.54,4.18,4.89,4.72,11.73,5.78,17.83.08,1.05.29,2.13.39,3.19.87-.63,1.75-1.23,2.62-1.83,2.69-1.87,6.71-7.71,10.28-5,2.09,2.14,1.08,5.53.77,8.17-.38,2.1-.93,4.15-1.58,6.18-.64,2.61-3.16,7.33-2.02,9.77,2.47,3.4,4.95,6.81,6.82,10.59,2.16,4.24,4.45,8.52,5.84,13.02.8,2.51,1.19,5.09,1.56,7.68.38-1.3.83-2.58,1.38-3.82,2.32-4.5,5.09-8.8,8.08-12.8,5.45-7.11,11.58-13.74,18.68-19.23,3.13-2.44,6.38-4.87,9.43-7.2,2.35-1.79,4.57-3.54,6.44-5.67-.64-.33-1.28-.66-1.91-1-4.16-2.01-7.97-4.66-11.43-7.7-11.71-10.57-12.82-26.9-9.96-41.5,1.99-9.64,6.56-18.45,7.86-28.26.84-6.61,1.14-13.05,3.29-19.34,3.2-10.24,8.8-19.88,16.37-27.5,1.22-1.25,2.58-2.35,3.85-3.56.63-.56.87-1.41.84-2.23,0-1.67-.11-3.34-.08-4.87,0-.5-.04-1.08.24-1.51.01-.02.03-.04.05-.06.18-.71.42-1.39.54-1.81.54-1.75,2.45-3.25,4.31-2.53,2.3.87,3.11,3.59,5.1,4.85-.41-3.97-.39-8.21,1.68-11.74.95-1.84,3.43-4.16,5.5-2.56,1.12,1.08,1.63,2.62,2.31,3.99,1.2,2.58,2.82,4.97,4.9,6.93-.85-4.04-.64-8.7,1.69-12.19,1.82-2.75,6.09-3.82,8.55-1.32,3.01,3.79,3.69,8.9,5.9,13.11-.18-1.96-.39-4.02.19-5.94,1.11-3.59,3.81-6.43,7.54-3.89,2.97,2.74,3.96,6.99,5.5,10.6.09.21.17.43.26.64.15-2.9.87-5.84,3.38-7.3.85-.54,1.94-.64,2.85-.17,3.3,1.72,3.7,8.1,5.28,11.38.95,2.28,2.08,4.54,3.75,6.38.31-3.43,2.47-10.71,7.04-7.35,2.44,2.25,3.2,5.7,4.63,8.59,2.68,6.55,6.88,12.22,10.55,18.2,2.28,3.89,2.65,8.49,2.99,12.84.58,10.11-1.57,20.1-2.31,30.15,0,.02,0,.04,0,.07,2.27.74,4.25,2.62,5.35,4.74,1.86,2.87,2.26,6.45,1.76,9.78-.96,5.57-4.65,10.37-9.24,13.52-2.14,1.6-4.58,2.94-7.23,3.31-1.05,1.81-1.61,3.82-2.53,5.69-1.05,2.38-2.15,4.72-2.99,7.19-4.43,13.53-3.5,20.11,8.26,28.7,6.87,5.21,14,10.1,20.34,15.98,10.02,9.64,17.5,22.13,21,35.59,1.4,5.52,2.64,11.12,3.59,16.75h.08c1.1.17,1.15,1.67.25,2.02,1.52,9.7,2.18,19.52,1.42,29.33-1.16,9.73-3.96,19.27-8.02,28.18-5.8,12.98-12.26,26.2-22.92,35.86.88,7.83,2,15.7,1.56,23.6-.18,6.46-1.51,12.55-2.76,18.81-1.86,9.65-4.48,19.14-6.23,28.8-1.19,8.18.33,16.16.94,24.28,1.03,10.04.53,20.09-1.53,29.94-1.46,8.12-3.98,15.97-6.47,23.81-2.24,7.15-1.76,15.03-5.13,21.82-3.78,7.53-10.37,13.25-17.63,17.29-6.68,4.08-14.26,6.23-21.88,7.76-4.51.81-9.05,2.61-13.68,1.79-5.53-.78-8.54-6.21-7.68-11.47.67-4.1,3.23-7.55,5.59-10.84,3.56-5.32,9.61-10.62,10.22-17.26-.2-4.69-1.72-9.23-2.39-13.87-3.17-18.74-3.35-37.89-2.52-56.83.13-4.24-1-8.5-1.99-12.46-.98-3.73-2.09-7.43-3.51-11.02-1.54-3.8-3.33-7.5-4.89-11.29-.64-1.6-1.24-3.21-1.84-4.83-.29.1-.59.17-.88.16-1.03,1.88-11.09,1.65-12.64,1.66-8.64.05-17.12-1.96-25.57-3.58-3.81-.82-7.61-1.74-11.31-2.96h0ZM364.11,366.29c-1.9.22-3.81.41-5.71.57,1.93-3.91,3.65-7.98,4.09-12.37.07-.53-.3-1.03-.83-1.11-.52-.08-1.03.3-1.1.83-.19,1.39-.47,2.78-.9,4.12-.67,2.21-1.6,4.32-2.56,6.41-.22.69-.8,1.51-1.02,2.29-7.01.49-14.05.58-21.1.17-11.53-1.08-23.12-3.13-33.82-7.73-4.65-1.9-9.09-4.41-13-7.58-.07-.09-.15-.15-.24-.2-1.73-4.6-3.05-9.39-4.24-14.16-3.22-12.52-4.41-25.46-3.95-38.37.45-9.06,1.72-18.03,3.47-26.95.61-2.91,1.39-5.77,2.14-8.64,1.46-5.55,2.65-11.14,5.03-16.43.81-1.76,1.52-3.73,2.73-5.37.45-.28.55-.92.27-1.34-1.52-1.48-2.68,1.4-3.35,2.6-1.22,2.43-2.29,4.94-3.23,7.49-2.14,6.52-3.73,13.35-5.45,20.05-.26,1.26-.51,2.52-.75,3.78-1.67-2.79-4.44-6.13-5.03-6.91-3.23-3.96-7.21-7.36-11.51-10.12.04-.1.08-.2.12-.31,2.25-4.49,5.04-8.71,8.03-12.77-.03.04-.06.08-.09.12,4.5-5.82,9.29-11.25,14.9-16.09,5.37-4.58,11.24-8.48,16.62-13.07.28-.3.88-.82,1.49-1.42,1.53,1.88,3.69,3.29,5.59,4.76,10.46,7.79,23.91,10.95,36.8,11.3,8.62.17,17.4-.3,25.63-3.08,6.81-2.48,13.52-5.66,19.18-10.23.49-.41.96-.83,1.4-1.28,4.94,4.58,10.86,8.12,16.1,12.33,14.19,10.3,25.08,25.53,29.23,42.7,1.2,4.97,2.32,10.05,3.21,15.18-7.09,0-14.17,1.36-21.11,2.71-7.64,1.78-15.27,3.98-22.37,7.37-1.56.76-3.09,1.6-4.6,2.45-2.32-7.12-4.42-14.33-5.6-21.74-.07-.43,0-.88-.31-1.23-.82-.85-1.95.06-1.7,1.09,1.16,8.36,3.64,16.46,6.26,24.46,2.07,6.41,3.91,13.43,8.09,18.79-1.11,1.25-1.64,2.98-2.33,4.49-2.9,8.22-5.25,16.65-8.71,24.68-2.17,5.08-4.67,10.02-7.57,14.72-.36.09-.72.23-1.04.29-1.21.3-2.52.54-3.83.76-3.67.66-7.35,1.23-11.05,1.7,1.99-3.46,3.52-7.26,4.28-11.17.16-1.29-1.73-1.55-1.96-.28-.75,3.35-2.14,6.55-3.61,9.65-.23.62-.92,1.39-1,2.08h0ZM452.31,306.53c-.53,0-.99-.46-.98-.99.09-3.65-.07-7.21-.31-10.8-.1-.68.37-1.43,1.12-1.31.6.08.9.67.84,1.23.06.86.15,1.71.19,2.44.11,1.61.16,3.09.19,4.69.02,1.26,0,2.52-.06,3.78-.03.54-.44.98-.99.97h0ZM450.72,286.89c.04.53.58.9,1.08.84.54-.07.88-.56.84-1.08-.27-4.26-1.03-8.48-2.33-12.55-1.84-6.58-4.57-12.84-6.77-19.28-.15-1.26-2.08-1.01-1.92.24.56,2.66,1.89,5.12,2.77,7.69,2.79,7.82,5.83,15.76,6.33,24.15h0ZM270.93,491.86c-.35-.45-.24-1.08.19-1.43,1.38-1.14,2.79-2.25,4.04-3.33,1.19-1.07,2.3-2.23,3.46-3.33.38-.36.99-.38,1.36,0,.38.38.37.99,0,1.36-1.12,1.15-2.2,2.35-3.39,3.42-1.36,1.22-2.77,2.38-4.22,3.5-.44.34-1.09.26-1.43-.19h0ZM283.72,479.34c-.65-.66-.06-1.42.47-1.92.51-.6.99-1.22,1.43-1.87,2.74-4.19,4.93-9.09,5.1-14.15-.53-1.11,1.14-1.98,1.76-.9.55,1.69,0,3.61-.36,5.3-1.01,3.78-2.47,7.48-4.69,10.72-.67,1.02-1.47,1.93-2.31,2.82-.37.39-1.03.37-1.41,0h0ZM348.21,76.95c-1.85-2.17-3.3-4.65-4.32-7.31-.32-.79-.62-1.62-.59-2.48,0-.53.42-.98.96-.98,1.26.03.88,1.57,1.33,2.37,1.04,2.57,2.37,5.03,4.16,7.15.8,1.01-.71,2.26-1.55,1.26h0ZM376.59,88.46c-.7-1.04-3.99-3.91-2.16-4.93.5-.22,1.07.02,1.29.51.66,1.16,1.57,2.15,2.4,3.18.8,1.01-.7,2.23-1.53,1.24h0ZM367.88,86.04c-1.18-1.4-9.3-9.76-6.35-10.95.65-.19,1.21.33,1.29.96.41,1,1.01,1.9,1.62,2.77,1.53,2.09,3.25,4.05,4.99,5.96.81,1.01-.7,2.25-1.55,1.26h0ZM346.8,181c-1.28-.55-2.41-1.38-3.26-2.43-2.55,2.87-6.91,3.49-10.59,3.09-2.56-.23-5.08-1.09-7.67-.95-3.55.53-7.54,1.67-10.87-.22-.54-.55-.33-1.45.41-1.69.34-.11.69.01,1.01.11,1.41.42,2.89.56,4.36.46,2.08-.2,4.1-.95,6.21-.85,2.65.16,5.24.93,7.9,1.05,3.01.21,6.02-.7,8.1-2.91-.18-.45-.33-.92-.42-1.41-.14-.59-.23-1.27.12-1.8.74-1.15,2.7-.08,1.87,1.11.33,2.11,1.85,3.65,3.7,4.56,1.11.61.29,2.35-.88,1.87h0ZM357.92,135.06c-2.06-.06-4.08-.62-6.1-.99-.57,0-1.21-.14-1.35-.78-4.1-2.29-1.84-7.12,2.51-6.09,2.52.61,5.03,1.84,6.75,3.82,1.55,1.77.64,4.14-1.81,4.04h0ZM358.07,133.01c-1.86-.02-3.7-.51-5.5-.9-.8-.49-2.88-1.35-1.95-2.51-.03.03-.07.06-.1.09,1.58-1.67,7.22,1.42,7.91,3.24,0,0,0,0,0,0-.11.05-.24.06-.36.08h0ZM298.49,128.66c-.25-.06-.47-.22-.6-.44-5.46-3.02,3.99-7.84,7.08-7.51,6.05.48,7.3,4.83.94,6.66-2.4.69-4.91,1.42-7.42,1.29h0ZM298.93,126.44c-.22-.07-.42-.19-.6-.32.45-1,1.63-1.59,2.56-2.14,2.19-1.21,5.16-1.86,7.22-.05-2.27,1.99-5.9,2.32-8.81,2.76-.1-.11-.22-.2-.37-.25h0ZM310.07,143.08c-.51-.32-1.02-.68-1.54-1.04.18,1.26-.08,2.5-.52,3.7.46,1.97-.8,4.08-2.58,4.93-.83.4-1.94.85-2.88.65-.2.03-.39.09-.57.18-6.34-1.68-5.13-11.33.22-13.71,1.53-.58,3.05-.12,4.23.84,1.79.52,3.39,1.64,4.85,2.77.39.33.41.97.12,1.37-.29.4-.91.57-1.34.3h0ZM359.92,149.48c-.42-.37-.85-.75-1.3-1.1.06.22.11.45.14.69.55,3.9-2.19,8.84-6.45,8.91-.95-.07-1.81-.38-2.54-.85-1.31-.48-2.13-1.88-2.56-3.16-1.2-4.11.83-10.3,5.77-10.39,1.09.09,1.98.39,2.69.85,2.18.55,4.21,1.91,5.68,3.56.78.89-.5,2.23-1.42,1.5h0ZM322.99,165.16c-2.13-.56-3.94-2.04-4.91-4.01-.39-.88-.9-1.89-.61-2.87.46-1.51,3-.72,2.09.76.61,2.58,3,4.29,5.6,4.36.82.04,2.05-.2,2.22.91.1,2.01-3.2,1.13-4.38.86h0ZM279.97,277.7c-1.67,9.58-2.68,19.28-2.47,29,0,1.02,0,2.03.03,3.04-.15.05-.3.15-.43.31-7.92,10-25.07,7.42-33.57-.59-4.99-4.25-8.78-9.67-11.93-15.38-3.9-6.34-6.3-13.24-8.69-20.31-1.4-4.03-2.6-8.13-3.68-12.26-1.91-6.89-2.7-14.47-6.89-20.45-.48-.6-1.01-1.16-1.54-1.71-.64-1.18-1.34-2.32-2.18-3.37-3.65-4.42-8-7.95-11.43-12.69-2.05-2.88-4.38-5.86-5.04-9.47-.02-.89-.35-1.96.2-2.74,2.11-.11,3.74,1.86,5.25,3.17,1.94,1.87,3.34,4.23,5.35,6.02,1.07,1.02,3.96,2.28,4.2-.05-.02-1.63-1.3-2.87-2.09-4.21-2.95-4.3-5.13-9.25-5.23-14.53.63-7.72,7.78,3.18,9,5.62,1.43,2.32,2.6,5.74,5.52,6.55,1.13.16,1.79-.92,1.65-1.95-.87-4.95-6.75-18.07-3.33-22.16,3.11.89,7.84,13.26,9.88,16.55,1.99,3.67,4.64,4.6,4.12-.63-.51-4.09-2.95-11.76.57-14.91,5.3,1.44,6.59,16.46,7.46,21.89-2.86,2.31-5.34,5.03-6.22,8.74-.15.56.28,1.15.82,1.26,1.14.23,1.34-1.1,1.7-1.87.44-.98.9-1.96,1.54-2.82,2.18-3.1,5.68-4.89,8.6-7.22,1.36-1.14,2.56-2.44,3.95-3.54,2.03-1.46,3.41-2.24,3.38,1.05-.18,5.47-2.33,10.55-3.86,15.74-1.2,3.68-.34,5.61,2.05,8.45,2.71,3.6,4.79,7.62,6.78,11.65,1.61,3.23,3.19,6.51,4.11,10.02.56,2.13.95,4.3,1.27,6.48.23.87.29,3.04.85,4.32l-.02.11c-.11.55.24,1.11.8,1.22.55.12,1.1-.25,1.22-.8h0c.11-.19.17-.41.15-.62.45-1.81.92-3.61,1.51-5.37,3.4,2.32,6.65,4.96,9.39,8.03,2.72,3.23,5.5,6.55,7.24,10.44h0ZM442.63,287.62c2.31,14.26,2.81,28.87-1.34,42.79-2.12,7.46-5.34,14.65-8.74,21.63-3.25,6.53-6.62,13-11.03,18.85-2.89,3.86-6.64,7.39-10.26,10.65-1.6,1.48-3.2,2.94-4.88,4.32-.61.22-1.1.9-1.49,1.4-4.59,5.5-7.44,12.37-10.96,18.59-2.89,4.68-6.33,9.39-11.22,12.14-.44-1.28.11-2.69.38-3.97.76-2.67,1.85-5.24,2.5-7.95.05-.2.03-.41-.05-.59.9-1.37,1.81-2.73,2.64-4.14.14-.24.21-.5.16-.77-.15-.91-1.39-1.14-1.89-.39-2.92,3.89-5.13,8.26-7.96,12.21-1.09,1.3-2.32,2.92-4.09,3.28-.32.06-.53-.06-.56-.4,0,0,.01.03.01.05,0,.03.02.06.02.09-.22-2.92,1.46-5.41,2.79-7.96,1.46-2.6,3.35-5.14,4.93-7.73.55-.99,1.27-2.03,1.26-3.2-.07-1.31-1.59-1.54-2.43-.75-3.94,2.95-10.11,12.3-14.94,12.19.96-6.06,6.47-10.45,9.88-15.29.71-.85,1.23-2.47-.29-2.74-.92,0-1.57.82-2.28,1.31-3.27,2.39-10.54,10.28-14.64,9.03,0,0,.01.01.02.02.03.03.05.05.08.08-1.13-1.26,2.9-6.71,3.82-7.92-.02.03-.05.07-.08.1,0,0,0,0,0,0,2.36-3.05,5.41-5.46,8-8.33,1.15-.46.87-1.93.03-2.16-.19-.17-.45-.27-.73-.26-3.49.08-7.13.49-10.46-.77-.62-.3-1.41-.58-1.69-1.26-.29-1.56,1.05-3.03,2.54-3.29,3.24-.77,6.59-1,9.87-1.51,3.09-.52,6.69-.57,9.04-2.92,3.02-3.06,5.06-6.94,7.28-10.59,5.77-9.86,9.64-20.99,13.02-31.92.87-2.97,1.96-5.9,3.34-8.62.77.82,1.61,1.6,2.53,2.31.45.34,1.15.17,1.45-.28.74-1.32-1.18-2.01-1.85-2.88,0,0,0,0,0,0,.03.03.05.05.08.08-5.46-5.36-7.29-13.11-9.64-20.19.52-.29,1.02-.68,1.51-.87,2.46-1.34,4.98-2.58,7.59-3.6,12.35-4.51,25.48-7.68,38.69-7.9h0ZM306.47,212.31c.12-.17.23-.34.32-.5,4.25,2,8.71,3.56,13.34,4.38.19.03.37.06.56.09-.05.89,1.19,1.39,1.93,1.76,1.94.94,3.93,1.77,5.93,2.58,3.89,1.65,8.05,2.52,12.24,2.98,16.99,2.05,35.05-2.93,47.84-14.45.43.8.94,1.59,1.52,2.36.66.8,1.35,1.56,2.07,2.3-1.44,1.35-3,2.58-4.65,3.67-9.44,6.12-20.39,9.97-31.7,10.28-12.38.66-25.05-.89-36.38-6.16-4.08-2.06-7.86-4.6-11.39-7.64-.56-.49-1.13-1.04-1.64-1.63h0ZM398.94,164.65c-.63-1.05-1.23-2.15-2.19-2.94-.09-.09-.15-.2-.19-.31-1.09,1.01-2,2.19-2.58,3.56,0,0,0-.01,0,0,.25.93-1.05,1.6-1.67.85-.9-1.28.33-2.84,1.02-3.93,2.41-3.08,5.9-5.36,9.66-6.41.52-.14,1.07.1,1.24.62.34,1.12-.96,1.35-1.73,1.64,0,0,0,0,0,0,.02,0,.04-.02.06-.03-1.53.67-3.11,1.49-4.53,2.51,1.31.61,1.99,2.23,2.7,3.42.24.45.06,1.03-.35,1.31-.45.3-1.14.2-1.43-.28Z"/>
</svg>