<?xml version="1.0" encoding="UTF-8"?>
<svg id="Objects" xmlns="http://www.w3.org/2000/svg" version="1.1" viewBox="0 0 634.57 634.57">
  <!-- Generator: Adobe Illustrator 30.2.1, SVG Export Plug-In . SVG Version: 2.1.1 Build 1)  -->
  <defs>
    <style>
      .st0 {
        fill: #492617;
      }
    </style>
  </defs>
  <path class="st0" d="M300.89,151.7c.82.47,1.84.21,2.52-.4,1.3-.9,2.59-1.8,3.95-2.62.45-.27,2.03-1.04,2.4-1.24.58-.19,1.17-.36,1.61-.81,1.36-1.38.37-3.5-1.52-3.52-2.71.4-5.2,1.89-7.23,3.69-1.22,1.19-3.85,3.33-1.73,4.9Z"/>
  <path class="st0" d="M311.16,178.79v-3.63c0-1.89-1.53-3.42-3.42-3.42s-3.42,1.53-3.42,3.42v3.63c0,1.89,1.53,3.43,3.42,3.43s3.42-1.53,3.42-3.43Z"/>
  <path class="st0" d="M355.93,147.44c.38.2,1.95.97,2.4,1.24,1.35.81,2.65,1.72,3.95,2.62.68.61,1.69.87,2.52.4,2.12-1.57-.51-3.71-1.73-4.9-2.03-1.81-4.52-3.29-7.23-3.69-1.89.02-2.87,2.14-1.52,3.52.44.46,1.03.62,1.61.81Z"/>
  <path class="st0" d="M354.53,175.17v3.63c0,1.89,1.53,3.42,3.42,3.42s3.42-1.53,3.42-3.42v-3.63c0-1.89-1.53-3.42-3.42-3.42s-3.42,1.53-3.42,3.42Z"/>
  <path class="st0" d="M307.03,196.49c-1.76.73-1.05,2.99-.62,4.42.62,2.32,1.53,4.53,2.73,6.6,2.34,5.12,6,9.68,10.78,12.71,5.59,3.43,12.51,5.32,18.95,3.45,4.96-1.26,8.94-4.73,11.82-8.84,2.32-3.04,4.24-6.35,5.74-9.87,1.45-3.12,2.87-6.29,3.5-9.69.09-.33.17-.68.2-1.03.13-.06.26-.1.38-.16.72-.27,1.39-1.13,1.05-1.89-1.1-1.32-2.95.23-4.26.48-2.55.86-5.21,1.33-7.84,1.85-7.56,1.48-15.8,1.93-24.42,2.2-5.19.4-12.81-.52-16.37-1.03-.74-.03-1.33.3-1.65.78ZM345.52,216.94c-6.13,5.86-15.13,5.82-22.57,1.37-2.81-1.62-5.07-4.07-7.61-7.29.31-.05.62-.13.9-.18,2.04-.32,4.62-.84,5.82-.97,6.48-.53,12.02-.32,17.84,1.2,3.28.84,5.05,1.6,7.88,3.42-.71.86-1.46,1.69-2.26,2.45ZM313.51,199.56c4.94.62,9.92.52,14.89.28,7.95-.26,15.88-1.19,23.62-3.04,1.67-.37,3.33-.82,4.95-1.35-.26.96-.45,1.94-.75,2.86-1.57,4.75-3.81,9.86-6.9,14.18-8.56-5.39-19.58-5.67-29.36-4.52-1.78.34-3.6.47-5.35.89-.17.05-.34.14-.49.26-1.46-2.51-3.65-6.69-3.87-7.61-.29-.78-.54-1.57-.75-2.37,1.33.19,2.72.2,4.02.43Z"/>
  <path class="st0" d="M499.02,294.08c-4.02-3.79-8.99-6.4-14.19-8.2-8.09-3.19-16.73-5.05-25.44-5.04-4.5.45-8.89,1.61-13.22,2.87-11.74,3.6-23.28,7.9-35.31,10.47-3.46.81-5.75,1.18-7.16.88-1.5-.17-3.96-1.91-4.35-2.2-.53-.37-.98-.84-1.45-1.29.97-1.57,1.66-3.27,1.79-5.15-.1-1.97-.25-1.83-1.69-3.42-1.5-1.47-2.91-3.01-4.37-4.52-5.89-6.38-11.85-12.7-17.78-19.03-7.73-8.79-17.12-19.92-28.24-24.63,4.32-1.35,8.51-3.08,12.63-4.97,4.94-2.18,9.72-4.76,13.95-8.13,8.93-7.07,18.77-17.86,19.47-29.74.04-1.12-.04-2.24-.16-3.35,1.44-1.09,2.72-2.38,4-3.66,5.41-5.16,7.21-14.15,3.67-20.82-.05-.08-.1-.15-.15-.23.02-.36,0-.73-.03-1.08-.14-1.64-.39-3.3-1.02-4.82-.33-.85-.79-1.63-1.26-2.41,1.88.1,3.88.06,5.58-.77,1.25-.78,1.92-2.24,1.69-3.16,0-.19-.07-.37-.15-.55-.02-.06-.07-.16-.13-.27-.44-1.25-1.11-2.38-1.86-3.46-1.33-2.05-2.89-3.56-4.92-4.85,0,0-.02-.02-.03-.03-.08-.13-.17-.26-.26-.39-.08-.14-.17-.27-.26-.39-.01-.02-.02-.04-.04-.07-.17-.31-.27-.52-.34-.66.04-.09.07-.17.1-.25.7-1.77.6-3.71.48-5.57-.09-3.97-.82-7.87-1.95-11.67-.91-3.06-1.91-6.13-3.67-8.82-.24-.31-.47-.65-.69-.98.34,0,.68,0,1.02,0,.67-.05,1.35-.13,1.99-.34.11-.04.25-.1.38-.15.1-.04.2-.09.3-.13.09-.03.17-.07.26-.11,0,0,.02,0,.02-.01h0c.35-.16.68-.37.98-.61-.12.1.35-.24.55-.46.13-.13.31-.36.42-.5.1-.12.19-.25.27-.39,0,0-.01.01-.02.02.04-.06.08-.12.11-.18.41-.84.48-1.2.55-2.07,0-.06,0-.1,0-.11.01-.19,0-.37-.04-.55-.1-1.02-.5-1.97-.92-2.89-.57-1.26-1.26-2.49-2.33-3.4-.54-.43-1.4-1.19-2.33-1.82,1.91-1.91,2.21-4.95.52-7.19-1.22-1.76-3.17-2.81-5.06-3.72-1.11-.55-2.25-1-3.41-1.37,1.79-1.7,1.91-3.51.84-5.43-2.24-3.1-10.07-3.33-14.82-3.24,2-1.91,3.51-4.35,3.34-5.84-.22-2.03-1.68-3.63-5.27-2.84-6.54,1.87-10.99,2.85-17.84,1.77-2.79-.38-9.33-1.44-13.7-1.24-8.72.27-17.48,2.13-25.3,6.05-1.11.56-2.22,1.14-3.31,1.74.36-.95.7-1.88,1.01-2.67.69-2.17,1.14-4.98-1.72-7.06-4.31-2.58-13.09,4.93-16.52,10.53-.28.41-.53.83-.77,1.27-.49-1.7-.75-3.56-1.87-4.98.02.03.04.06.06.08-.03-.05-.06-.09-.09-.13-.08-.2-.42-.49-.64-.67-.29-.28-.49-.36-.34-.24-2.23-1.67-5.42.39-6.9,7.44-.33,1.66-.4,3.35-.32,5.04-1.53-.95-3.17-1.74-4.81-2.45-1.95-.77-4.72-.71-5.95,1.22-.05.09-.09.18-.12.25.02-.04.04-.09.06-.15-.15.3-.27.65-.05.11-.12.26-.22.53-.27.82-.11.4-.17,2.31.38,3.54.46,1.09,1.02,2.2,1.71,3.2-.15.05-.29.1-.42.14-2.6.84-4.92,2.31-6.99,4.08-3.53,2.83-6.54,6.22-9.41,9.7-5.9,7.42-9.44,16.66-10.59,26.03-.72,6.85-.02,12.8-2.96,17.66-1.65,2.97-3.73,5.74-4.83,8.98-.63,1.89-.87,3.9-.95,5.89.06,1.25-.27,3.05,1.1,3.68,1.04.43,1.94-.52,2.54-1.26.16-.18.32-.37.47-.56.07,1.45.25,2.89.73,4.28.23.63.46,1.48.79,2.22-.59,6.24,2.14,12.84,6.35,17.33.36.38.74.73,1.14,1.06-.05,1.14.03.38-.19,1.6-1.11,4.2-2.45,6.22-3.74,9.81-1.43,3.56.5,7.65,4.56,6.23.53-.19,1.02-.45,1.5-.73,0,.06.01.11.02.18.13,1.81.81,3.52,1.69,5.09.46.69.95,1.53,1.65,2.02.04.05.16.15.4.3.65.31.5.39,1.93.49.58,0,1.13-.16,1.65-.37,2.9,3.12,6.27,5.82,10.08,7.77,2.49,1.16,5.19,1.8,7.85,2.41,2.23.51,4.5.82,6.78.87.72-.03,1.52.07,2.23-.09.14.07.29.14.43.2.18.08.36.15.54.23-.08.01-.17.02-.25.04-5.2.88-10.27,2.4-15.1,4.5-9.46,3.68-17.87,9.43-25.56,15.98-6.58,5.04-13.14,10.31-17.82,17.26-1.69,2.69-3.73,5.4-4.22,8.61-.22,2.15.14,4.53,1.59,6.21-1.22,1.45-2.37,2.95-3.44,4.51-6.18,9.3-10.49,19.92-11.99,31.02-1.02,7.13-1.26,14.94,2.53,21.34,2.48,4.48,6.96,7.28,11.62,9.08,3.65,1.69,7.59,2.38,11.54,2.95-.24,1.41-.49,2.81-.7,4.22-.51,3.1-.81,6.22-1.05,9.34-.28,1.84-.77,3.65-1.18,5.46-.38,1.6-.83,3.19-1.48,4.71l.19-.45c-.57,1.62-1.95,3.62-.86,5.26.02.98,1.08,2.25,2.72,3.65-.04.18-.08.36-.1.53-.28,1.26-.51,2.52-.74,3.79-.85,5.06-1.37,10.16-1.84,15.27-.4,4.6-.95,9.21-.86,13.83.14,4.95.91,9.9,2.32,14.65,1.46,4.75,4.04,9.05,6.51,13.32.62.83,1.41,2.08,2.44,2.37.12.59.24,1.17.34,1.73,1.18,5.66,2.83,11.21,4.41,16.77,1.35,5.61,2.86,11.18,4.19,16.8,2.1,7.23,4.9,14.24,6.89,21.51,1.5,4.52,1.06,10.39,5.15,13.53-.02,0,.16.18.43.36.68.42,1.4.75,2.14,1.05.4.17.81.31,1.22.45-.25.22-.46.51-.55.86-.12.41-.09.84-.03,1.27.31,2.48.39,2.24.48,4.55.04,1.7-.25,3.38-.39,5.06-.06,1.43,0,2.87-.07,4.3-.15,3.41-.43,5.05-1.17,8.4-.78,2.94-1.62,5.9-1.44,8.97.02,5.69,1.39,12.25,6.26,15.76,3.08,1.97,6.47,3.67,10.1,4.33,4.89.66,9.9.93,14.81.34,7.47-.8,14.87-3.9,14.34-12.66-.42-6.56-2.37-12.96-4.93-18.98-1.79-3.86-3.69-6.79-3.75-9.89-.14-2.76.6-5.47.56-8.22-.04-.93-.26-2.1-.77-2.93,1.02-.75,1.86-1.76,2.43-3.11,0,0,0,0,0-.01,0,0,0-.02.01-.02.02-.04.04-.09.05-.13-.01.03-.02.06-.03.09,0-.02.02-.04.03-.06.01-.03.02-.05.03-.07.2-.49.33-.99.39-1.52.03-.12.05-.32.05-.53-.02.06-.03.12-.05.17.24-1.76-.89-3.57-1.48-5.19-.44-1.03-1-2.11-1.62-3.18.26-.47.34-1.04.23-1.58-.12-1.03-.08-2.06.02-3.09.63-5.78,2.15-13.47,2.99-20.46,1.17-12.4.74-24.92-.34-37.32-.16-2.17-.29-4.35-.47-6.52,1.81-.6,3.59-1.3,5.34-2.05.2,1.04.45,2.07.69,3.11,1.07,4.56,1.93,9.18,3.28,13.67,2.33,7.54,3.16,15.41,5.15,23.03.51,1.26-.71,4.15-.7,7.3.1,2.1.2,4.22.24,6.32-.01.03-.03.14-.06.35-.05.06-.48,1.75-.63,2.12-1.15,3.8-2.64,7.5-3.53,11.37-.94,4.27-1.44,8.68-1.31,13.06.11,5.35,1.98,14.31,2.52,17.65.11.75.12,1.52.03,2.28-.03.16-.04.32-.05.48-.83,1.61.77,3.36,1.92,4.53.15.15.32.28.47.42-.22.23-.43.48-.6.73-.98,1.17-1.49,2.68-1.57,4.2-.08,1.4.52,3.87.48,4.14-.02,2.03-.78,3.03-1.8,5.57-1.54,3.06-2.08,6.43-2.41,9.81-.27,3.29-.99,6.65-.4,9.93.07.81.44,1.43.92,1.83.04.87.68,1.51,1.26,2.1,1.38,1.36,2.93,2.57,4.58,3.59,6.06,3.29,13.17,3.77,19.94,3.83,4.27-.08,8.61-.04,12.79-1.05,9.21-2.44,11.84-8.54,9.51-17.45-.81-3.37-2.24-6.68-4.76-9.13-1.74-1.49-2.17-1.55-3.71-3-1.42-1.23-2.49-2.82-2.49-2.98-.13-.27-.3-1.03-.37-1.3-.23-2.85.06-5.9-1.42-8.46-.21-.36-.47-.72-.77-1.06.65-.35,1.25-.78,1.7-1.38.28-.46.37-.98.31-1.48.34-.53.52-1.19.5-1.86.22-1.99.16-1.43.3-2.45.58-3.64,1.62-7.18,2.33-10.8,1-5.55,2.1-11.09,3.99-16.42,2.18-6.27,4.89-12.36,6.23-18.89.9-3.3.88-5.12,1.54-7.72,1.44-4.31,3.2-8.52,4.31-12.94,2.7-11.94,4.36-24.13,5.87-36.27,1.17-8.97,2.37-17.98,1.81-27.04-.16-3.12-.4-6.25-.85-9.34-.15-.67-.17-1.38-.37-2.03,2.65-1.6,3.95-3.44,1.99-5.37,0-3.24-.41-6.46-.62-9.69-.25-9.85-1.57-19.63-1.98-29.48-.29-7.64-.78-15.28-1.38-22.9.92,1.38,1.98,2.66,3.01,3.95,4.05,5.38,9.97,9.73,16.84,10.31,3.9.4,7.79-.41,11.64-.94,8.62-1.54,17.14-4.51,24.97-8.43,4.5-2.16,8.41-5.3,12.62-7.95,5.42-3.63,11.14-6.83,16.14-11.05.59-.48,1.19-.96,1.79-1.43.06-.04.14-.1.24-.19.13-.08.25-.18.37-.29.06.03.11.07.17.1.99.58,2.1.89,3.23,1.07,2.17.45,4.35-.02,6.53,0,.1,0,.2.02.29.02.09.02.21.05.35.08.1.12.2.23.29.35.1.14,1.23,1.63,1.48,1.96,1.26,1.61,2.4,3.33,3.83,4.79.88.72,1.56,1.49,3.3,2.05,1.58.39,3.01-.72,3.28-2.27.27-.77-.16-3.48-.77-5.48.45.23.85.44,1.12.63,2.05,1.09,3.8,2.65,5.82,3.78,1.38.58,2.53,1.08,4-.24.38-.45.65-1.14.55-1.74.05-.08-.04-.67-.13-1.18-.09-.31-.24-.8-.43-1.35.75.36,1.52.68,2.3.95,1.27.39,2.58.29,3.3-.13.9-.49,1.24-1.06,1.34-1.2,0,0,0,0,0-.01.17-.22.3-.49.38-.75.08-.13.14-.44.18-.67,0,0,0,.02,0,.03,0-.01,0-.02,0-.03.03-.19.04-.31.03-.22,0-.03,0-.05,0-.07.1-.58-.06-1.23-.16-1.81-.34-1.61-1.23-3.02-2.33-4.23-1.25-1.42-2.67-2.69-4.02-4.02,2.65.91,5.33,2.02,8.15,1.91,2.35.02,2.98-2.47,2.88-3.08-.25-2.11-1.83-3.83-3.19-5.36ZM243.06,164.94c-.26-1.34-2.04-1.77-2.85-.65-.42.52-.81,1.06-1.2,1.6.3-1.48,1.04-4.06,1.8-5.27,1.7-3.21,3.89-6.16,5.08-9.63,1.02-3.32.92-4.82,1.33-8.11.56-5.1,1.18-9.46,2.74-15.1,1.73-5.1,2.78-7.63,5.31-12.45,3.05-5.5,6.48-9.25,11.62-13.96,1.75-1.52,2.65-2.11,5.31-3.6.84-.6,2.38-.98,3.24-1.72.86-.26,1.34-1.29.73-2.33-1.37-1.51-2.78-3.19-3.06-4.07-.34-1.19-.26-.77-.25-1.67h0s0,0,0,0c.06-.02.14-.04.26-.07.49-.08.28-.14,1.38-.1,1.07.19,2.07.59,3.07,1.01,1.12.48,2.24.98,3.22,1.71.03.02.04.03.06.05.5.38.91.87,1.44,1.21.68.38,1.72.37,2.15-.37.2-.39.21-.77.12-1.12.17-.47.21-1.01.17-1.49,0-1.06.07-2.13.2-3.18.03-1.05,1.13-5.95,2.08-7.08.09-.14.23-.35.34-.5.04-.05.08-.09.12-.13.28.27.22.18.71,1.07.15.11.79,2.65.72,3.03.35,1.6-.46,4.32,1.43,5.04.31.07.61.02.89-.12.38-.24.62-.62.75-1.04.74-.48,1.15-1.56,1.6-2.31,1.41-2.3,2.37-3.68,3.57-5.02,1.78-1.88,3.97-3.84,5.1-4.59,2.47-1.59,3.66-1.81,4.4-1.83.04,0,.08.02.12.03.04.02.08.05.11.07.07.06.13.13.17.18.03.04.05.07.08.11.03.05.06.09.09.14.06.11.1.18.13.24.02.06.05.11.06.16,0,.03.03.08.07.17.02.07.03.14.05.21.04.6.02.68.06.91-.02.11-.03.51-.08.74.16-.98-.26,1.7-.4,2.2-.55,1.89-.78,2.36-1.51,3.85-.07.05-.15.1-.22.15-.64.54-1.45.93-1.94,1.63-.48.76-.41,1.91.43,2.38,1.41.8,2.62-.51,3.79-1.16,2.2-1.34,4.51-2.48,6.83-3.59,5.86-2.95,15.39-5.75,22.12-6.04,6.55-.45,13,.93,19.52,1.25,4.74.34,12.42-1.28,15.24-1.93.02,0,.05,0,.07,0h0,0c.12,0,.2,0,.24,0,.04,0,.07.02.11.03-.03.13-.05.25-.09.38-.33,1.02-2.03,2.77-4.83,3.92-1.14.52-2.31,1-3.43,1.58-.6.3-1.2.79-1.36,1.46-.41,1.43,1.03,2.73,2.42,2.3,3.5-.72,4.83-1.09,8.57-.94,3.79.22,5.15.23,8.67,1.2,1.24.43.81.19,1.46.6,0,0,0,0,0,0,0,0,0,0,0,.01,0,.02,0,.03.01.05,0,.03,0,.06,0,.09-.02.06-.03.12-.05.18-.02.04-.04.09-.07.13-.07.13-.16.25-.24.37-.05.06-.1.12-.15.18-.39.46-.85.85-1.33,1.21-.13.09-.26.2-.36.32-.13-.01-.26-.03-.4-.04-.73-.06-1.46,0-2.19-.04-.68-.02-1.41-.1-2.03.24-.5.3-.93.86-.77,1.44.32,1.05,1.51,1.13,2.45,1.17.21.06,1.78.21,2.51.38,3.13.88,3.94,1.44,7,3.02,1.92,1.13,2.13,1.16,3.13,2.2,0,0,0,.01.02.02.08.11.15.22.22.34.05.15.07.31.11.46.01.18.03.45.05.69,0,.02,0,.04-.01.07,0-.02,0-.03,0-.05,0,.02,0,.03,0,.05h0c-.03.18-.12.44-.18.61-.12.26-.25.52-.42.75-.02.03-.03.04-.06.08-.42.41-.73.97-.76,1.54-.05.08-.1.15-.15.25-.19.81.31,1.62,1,2.01,1.03.7.5.25,1.53,1.25,1.81,1.98,2.29,2.79,2.89,4.4.17.41.23.87.36,1.29,0,.02,0,.04,0,.06-.02.11-.03.22-.05.32h0c.01-.09.01-.14,0-.02-.02.06-.04.11-.05.14,0,.01-.01.02-.02.04,0,0,0,0,0,.01-.06.07-.12.15-.19.23,0,0-.06.05-.13.12,0,0-.01,0-.02.01-.11.06-.23.13-.33.2,0-.02-.04,0-.11.04-.17.06-.4.11-.57.14-.21.02-.41.04-.62.04-1.03,0-2.06-.07-3.08-.18-.48-.06-.97-.03-1.41.21-.66.34-.92,1.03-.78,1.66-.14.98.5,1.4.74,1.86.88,1.32,1.7,2.68,2.43,4.1,1.32,2.25,2.82,8.54,2.96,10.78.41,3.58.17,10.37.08,12.13-.2.69.04,1.36.25,2.02.1.3.15.42.18.43.1.41.33.86.28.71.21.45.5.9.87,1.22.01.02.06.06.14.13-.06-.02.2.23.51.38,2.56,1.39,5.82,2.16,6.48,5.65,0,0,0,.02,0,.03,0,.04-.01.07-.02.11-.04.07-.08.12-.1.16-.06.06-.11.1-.14.14-.09.02-.18.05-.27.07-.29.03-.58.06-.87.08-1.65.08-3.29-.16-4.93-.28-1.28-.03-2.18,1.32-1.77,2.5.99,2.48,1.89,3.14,2.27,5.36.07.33.12.6.17.85-.61-.34-1.25-.63-1.9-.86-4.46-1.64-8.11-.58-12.97,3.13-.5.44-.99.9-1.46,1.39,0-.09,0-.18.01-.28.32-3.58.21-7.15.04-10.73-.18-3.82-.46-7.66-1.45-11.36-1.88-7.42-6.39-13.78-11.35-19.47-1.58-1.67-8.43-9.71-11.89-9.54-.05-.18-.11-.37-.21-.6-.19-.28-.48-.55-.84-.55-1.53.19-1.41,2.04-1.61,3.2-.34,2.53-.48,5.12-.03,7.65.01.08.03.15.04.22-.61-.53-1.27-1.17-1.84-1.86-.52-.61-1.67-2.12-2.41-3.71-.13-.27-.65-1.39-.32-.67-.11-.18-.21-.54-.22-.55-.06-.28-.22-.54-.41-.76-.62-.64-1.78-.48-2.21.29-1.03,2.59-1.1,3.57-2.69,6.02-.56.94-2.03,2.36-3.58,3.87-.05.06-.11.12-.16.18-.15-2.67-.31-6.32-.32-8.84.36-1.74-1.02-3.47-2.81-2.55-1.19.89-1.92,2.28-3.07,3.25-2.8,2.76-3.83,3.6-7.3,5.48-2.52,1.3-4.96,2.75-7.48,4.05-.43.24-.74.39-.99.49.2-2.07.93-4.02,1.37-6.71.02-.85-.55-1.62-1.29-1.85-.86-.78-2.11-.27-3.04.32-2.84,1.63-5.67,3.29-8.65,4.66-2.11.96-4.28,1.77-6.33,2.83-.13.07-.26.14-.4.21.03-1.02.44-2.56.92-4.26.22-.78.57-1.91.5-2.83,1.05-1.68,1.44-3.14.23-3.74-.82-.18-1.53.48-1.88,1.17-.74,1.12-.45.71-1.3,1.73-4.56,5.13-8.34,8.06-13.79,11.37-3.7,2.31-9.3,6.03-11.6,6.86-1.82.69-3.6,1.47-5.35,2.31-.52.32-.92.84-1.12,1.47-.02.09-.03.18-.04.28-.77.73-.67,1.93-.32,2.89.33,1.3.85,2.54,1.21,3.83,1.31,4.73,1.4,8.24,1.5,13.81-.08,2.4-.06,4.81-.06,7.22-.48-.64-.92-1.18-1.2-1.53-2.1-2.48-5.13-3.9-8.2-4.8-6.24-1.89-12.58.68-15.44,6.13-.14-1.05-.19-2.08-.44-3.75ZM270.69,222.33c-2.7-1.28-4.33-2.38-5.93-3.73-1.32-1.05-2.33-2.42-3.59-3.53-.59-.47-1.2-1.04-2-1.04-.43,0-.86.15-1.2.41-.03.01-.09.05-.16.09-.14.05-.28.1-.43.14-.11,0-.21,0-.32,0-.81-1.23-1.64-2.56-2-4.3-.31-1.2-.22-2.51-.75-3.65-.54-1.17-2.21-1.44-3.07-.47-.19.19-.27.33-.24.32-.01.02-.03.03-.04.05-.06.06-.14.14-.25.27-.16.15-.32.28-.49.42-.13.1-.31.22-.41.3-.89.57-.9.55-1.3.66,0,0-.01,0-.02,0-.06,0-.13,0-.2,0-.04,0-.08-.02-.11-.03,0,0,0,0-.01,0,0-.02-.02-.05-.02-.07,0-.03,0-.05-.01-.07,0-.1-.02-.21,0-.31.28-1,2.02-6.22,2.96-8.66.28-.81.94-2.46,1.31-4.06.59.29,1.19.55,1.81.77,1.76.71,3.61,1.18,5.5,1.3.28,4.18,1.89,8.32,3.86,11.97,1.88,3.5,4.22,6.78,6.98,9.65,2.19,2.08,4.59,3.91,7.12,5.54-2.2-.44-4.48-1.04-6.97-1.96ZM266.88,205.74c-1.71-3.44-3.33-7.86-3.04-12.01.11-1.55.22-1.92.75-4.23.31-.91.55-2.2-.21-2.86.06-1.27-.32-2.57-.54-3.82-.4-1.6-1.33-3-2.32-4.29-1.45-1.91-2.91-3.89-4.98-5.17-1.27-.78-5.22-3.06-5.76-.61.18.8.18.6.73,1.1.55.34,1.24.36,1.82.63.01,0,.02,0,.03.01.02.01.07.04.18.08,1.25.51,3.28,2.74,3.63,3.28,1.69,2.34,2.44,3.57,2.98,5.61.5,1.42.35,3.32,1.48,4.41-.09.21-.17.41-.24.61-.15.35-.75,1.76-.89,2.09-.29.83-.49,1.68-.63,2.52-.29-.04-.7-.12-1.37-.27-4.4-1.29-5.75-1.78-8.89-5.5-1.84-2.11-4.08-7.39-3.91-10.87.12-3.66,1.67-7.57,4.56-9.05,3.55-1.97,8.13-1.78,12.54,1.07.79.48,3.93,3.34,4.59,4.63.13,0,.31,1.13.95,1.77.28.94,1.39,1.58,2.23.84.39-.28.65-.74.73-1.21.32-1.8.73-3.58.89-5.41.17-6.76.17-13.63-1.02-20.31-.36-1.91-.93-3.76-1.68-5.55.38-.16.75-.35,1.13-.51,1.62-.78,2.96-1.14,5.59-2.38,3.13-1.72,6.13-3.69,9.03-5.76,3.23-2.29,6.34-4.76,9.17-7.54.44-.46,1.49-1.48,2.68-2.73-.23,1.51-.57,3.79-.41,4.89,0,.07,0,.27.09.45,0,.02,0,.04,0,.07.03.13.08.24.15.35.07.14.16.26.26.37.04.04.08.08.12.12.03.03.07.06.11.09.02.01.03.03.05.04.11.11.29.2.41.25.84.41,1.88-.08,3.41-.87,2.33-1.2,4.74-2.23,7.06-3.45,2.42-1.29,4.76-2.73,7.1-4.16-.19,1.65-.32,2.48-.58,4.15-.3,2.23-.47,1.71-.3,3.57,0-.03,0-.07-.01-.1,0-.02,0-.05,0-.07-.01-.09-.03-.19-.04-.28,0,.27.05.53.06.51.02.12.06.23.11.34.08.21.2.41.35.58.19.23.44.42.71.53-.05-.02-.1-.05-.15-.06.15.11.31.18.5.22.12.02.2.03.27.03,1.06.17,2.09-.32,3.05-.72,1.88-.78,3.62-1.84,5.4-2.81,2.25-1.22,4.55-2.35,6.62-3.86,1.71-1.24,3.24-2.71,4.64-4.29.11,2.98.2,5.96.59,8.91.23,1.55,2.02,2.32,3.38,1.14.27-.2.52-.45.76-.7,1.82-1.89,3.73-3.75,5.16-5.97.72-1.23,1.3-2.53,1.78-3.87.46.79.95,1.57,1.51,2.29,1.86,2.51,6.69,7.11,7.94,3.65.19-.79-.23-1.52-.43-2.26-.29-1-.54-2.02-.69-3.06,0-.04,0-.11-.03-.24-.14-1.29-.15-2.58-.06-3.88.51.3,1.08.56,1.52.88.82.54,2.84,2.23,4.5,3.79,4.64,4.63,8.14,8.16,11.08,13.45,3.69,7.08,5.31,15.72,5.02,24.39.01,2.52.2,5.05-.06,7.56-.01.77-.26,1.54-.19,2.31.06.65.6,1.37,1.23,1.43.65.07,1.17-.37,1.44-.94.41-.15.77-.45,1.01-.81.74-1.12.38-.62,1.3-1.68,1.49-1.54,1.57-1.57,3.35-2.64,1.51-.8,2.03-1.13,4.09-1.47.23,0,.79,0,.99-.03.12.02.23.02.3.03.03,0,.06,0,.1.01,2.92.61,4.58,2,5.62,3.57,2.67,4.96,2.03,9.76-1.37,14.66-.08.29-1.73,1.95-3.27,3.4-.31-.86-.74-1.67-1.38-2.33-.89-.83-1.83-1.6-2.78-2.37,0-.15-.01-.31-.04-.46,0,.06,0,.05-.02-.19,0-.13,0-.18-.02-.18.09-.49,0-.78.35-1.69.09-.23.07-.29.49-1.04.38-.65.8-1.27,1.25-1.87.71-1.05,2.2-1.9,1.91-3.34-.17-.68-.87-.93-1.53-.78-.61.13-1.05.59-1.43,1.05-1.26,1.49-2.22,3.22-2.92,5.04-.16.54-.36,1.14-.45,1.74-.1-.03-.21-.05-.32-.06-.62-.06-1.15.33-1.11.98.17,1.42,1.73,2.4,2.53,3.53.02.02.02.03.03.05.15.2.28.42.39.64.01.03.02.05.04.08.32,1.28.69,2.53,1.05,3.79,2.1,8.03-2.37,16.23-8.49,23.26-7.01,7.89-13.82,12.4-23.78,16.7-9.28,4.44-20.07,6.83-31.6,6.74-10.56.06-24.83-3.73-33.58-7.27-11.59-4.88-19.27-9.98-24.33-20.42ZM299.76,235.1c-.13-.25-.27-.5-.4-.75.04.01.08.02.12.03-.19-.27-.38-.54-.56-.81,5.66,1.7,11.46,2.95,17.31,3.71,4.9.62,9.84.67,14.76.27-.73,1.49-1.36,3.03-2,4.56-.6,1.34-1.18,2.55-1.8,3.64,0,0,.01,0,.02,0-.48.7-.91,1.43-.97,2.28.02,1.1.91,1.99,2.02,1.79,1.59-.23,2.14-2.06,2.98-3.22,1.33-1.99,2.41-4.1,3.32-6.31.1-.21.21-.42.31-.63,1.4,3.26,1.76,7.28.85,10.66-.95,3.83-3.41,7.86-5.46,10.39-1.77,1.79-1.74,1.79-3.94,2.96-1.8.93-3.3,1.45-6.17,2.22-1.96.56-6.03.16-7.99-.26-2.69-.57-5.29-1.52-7.89-2.39-3.16-1.07-5.37-1.93-7.42-3.71-5.08-4.58-5.81-11.1-4.27-17.25.66-2.47,1.46-4.61,2.01-5.78.1-.32.29-.71.5-1.15.65,1.15,1.32,2.51,2.33,3.29,1.27.85,3.07-.08,3.04-1.63.04-.7-.36-1.31-.66-1.91ZM231.5,345.33c-5.33-1.24-9.98-3.49-12.91-6-4.56-4.51-5.82-9.94-5.29-17.69.53-9.34,3.63-19.14,8.59-27.73,2.46-4.52,6.08-9.33,8.39-12.19.85-1.05,1.82-2,2.82-2.9.96.73,2.89,2.23,4.45,3.23,4.34,3.08,10.73,9,15.41,14.18,1.96,2.24,2.79,3.28,4.49,6.06.11.14.2.3.28.46-.52.31-.92.84-1.34,1.26-1.13,1.15-2.33,2.25-3.32,3.53-.07.12-.12.24-.17.36-1.06-.59-2.16-1.11-3.31-1.52-3.08-1.28-6.41-1.94-9.75-1.81-2.7.07-5.39.4-8.05.85-.91.21-1.87.35-2.71.78-.99.61-1.51,1.96-.88,3.01.82,1.44,2.56,1.2,3.89.75.9-.23,1.82-.36,2.74-.49,0,0,0,0,0,0h0s0,0,0,0c-.03,0,.05-.02.3-.04,0,0,0,0,.01,0,0,0,0,0,.01,0,.06,0,.11-.02.17-.03-.01,0-.03,0-.05.01,1.96-.24,3.94-.38,5.92-.35,3.32.17,3.88.23,6.55.77,7.79,1.58,14.33,10.85,19.12,17.04,4.17,5.08,8.45,10.16,13.32,14.58,3.44,3.03,7.58,4.99,11.52,7.27,2.56,1.62,6.93,4.07,8.29,5.09,1.66,1.59,1.56,1.68,2.73,3.29.05.07.08.15.12.23-1.3,1.04-4.98.42-8.08.12-.04,0-.08.02-.12.03-.25-.63-.49-1.26-.75-1.88-.39-.88-.71-1.83-1.35-2.54-.63-.59-1.72-.81-2.37-.15-1.42,1.68.69,3.49,1.34,5.05,1.66,3.43,1.96,4.03,3.18,7.64,1.07,3.46,1.26,5.61,1.58,8.69.2,2.36.18,3.3-.28,4.98,0,0,0,.01,0,.02-.82-.52-1.73-2.33-2.66-4.32-.7-1.61-1.53-3.17-2.64-4.55-.28-.41-.63-.83-1.06-1.06-.02-.05-.03-.11-.05-.16-.57-1.92-1.38-3.94-1.82-4.95-.36-.75-.51-1.69-1.27-2.16-.34-.2-.78-.33-1.14-.12-1.18,1.12-.14,2.22.02,2.91.47,1.28.71,2.63,1.07,3.95,1.39,4.89,1.25,10.95.02,12.06-.07.05-.14.1-.2.15-.02,0-.03.02-.05.03-.98-3.48-2.4-6.83-3.43-10.29-.45-1.72-.88-3.44-1.35-5.15-.18-.97-1.27-1.94-2.26-1.4-.64.39-.85,1.24-.69,1.93.5,1.56,1.09,3.09,1.63,4.64,1.62,4.46,4.51,12.46,3.94,13.43-.04.02-.11.04-.2.08-1.23.07-2.61-1.54-3.99-4.18-1.36-2.64-2.53-5.4-4.41-7.73-.38-.5-.78-1.08-1.32-1.38,0-.04,0-.08,0-.12-.06-.63.01-1.29-.31-1.86-.28-.46-.81-.89-1.38-.74-1.66.67-.95,2.86-1.2,4.26-.21,3.49.03,5.88-.81,8.5-.02-.02-.05-.04-.07-.06.01,0-.1-.1-.21-.22-.13-.19-.38-.54-.45-.68-.42-.7-.72-1.65-1.08-3.12-.68-3.21-.91-6.52-1.85-9.67-.9-3.3-3.92-4.89-4.95-7.08-1.22-2.18-1.66-4.28-2.35-7.42-.02-.06-.05-.11-.06-.16.41-.76.06-1.82-.8-2.23-2.43-.77-4.95-1.32-7.45-1.85-7.36-1.38-12.12-1.62-19.63-3.26ZM304.22,559.48c.02.47.02.92-.03,1.29-.64,2.82-1.51,3.87-2.92,4.8-2.01,1.23-1.48,1.07-3.27,1.59-4.72,1.11-6.59,1.51-11.48,1.39-4.6-.16-6.59.16-10.55-1.47-.88-.23-6.92-3.66-7.82-4.82-1.48-1.49-2.03-2.8-2.17-4.6-.03-2.16.12-3.51.32-4.88.25.42.5.84.74,1.24,1.23,1.96,2.57,3.88,4.33,5.41,1.54,1.32,3.29,2.42,5.23,3.05,1.66.58,3.43.7,5.16.94,6.17.58,12.58.5,18.57-1.19,1.52-.53,2.71-1.66,3.88-2.73,0,0,0,0,0,0ZM298.99,538.98c1.54,5.21,3.94,12.4,4.86,17.46-.38.29-.72.68-1,1-1.14,1.1-1.15,1.16-2.41,1.95-.74.46-3.5,1.02-5.36,1.35-4.97.87-12.13.96-17.51-.58-3.48-1.17-6.49-3.94-8.57-7.82-.96-1.74-1.16-1.98-1.65-3.72.01-.28-.35-1.15-.09-.48-.01-.1-.03-.19-.04-.29,0,.03,0,.02,0-.05-.03-.35-.1-.7-.29-1,.19-3.45.33-6.91.67-10.35.14-1.9.82-4.24,1.32-6.73.56-.26,1.07-.74,1.46-1.17,1.28-1.28,2.33-2.77,3.63-4.03,1.14-1.09,2.38-1.91,4.32-2.81,1.25.15,2.5.26,3.76.36,2.46.24,4.93.51,7.4.42.37.33.88.82,1.27,1.3,1.02.76,1.8,4.15,3.93,5.44.41.23.85.28,1.25.2.01.05.02.11.03.16.63,3.25,1.97,6.28,3.02,9.4ZM268.65,520.11c-.04-.2-.11-.4-.19-.59,1.2.3,2.41.58,3.6.91.52.16,1.05.29,1.57.42-1.42,1.66-1.79,2.91-3.09,4.1-.5.47-.82.77-1.1,1,.03-.58.03-1.16,0-1.74-.12-1.39-.38-2.76-.78-4.1ZM293.24,522.01c.79-.13,1.57-.28,2.3-.47.04.22.09.52.06,1.39-.02,1.05-.05,2.1-.03,3.15-.06-.06-.13-.13-.17-.18-.05-.07-.08-.1-.11-.13-.01-.02-.02-.02-.03-.04-.79-1.18-1.22-2.56-2.02-3.72ZM353.94,573.65c-.1,8.37-10.41,9.47-21.92,9.37-5.42-.17-10.28-.77-14.2-2.77-2.5-1.47-3.03-2.03-5.33-4.1-.04-.04-.08-.08-.13-.12.02-.11.05-.21.06-.32-.28-1.62-.39-3.34-.35-5.12.34.22.67.42.94.62,3.16,1.76,6.55,3.19,10.09,3.94,3.91.92,7.89,1.41,11.9,1.39,2.46.06,4.94.17,7.37-.31,3.87-.65,7.46-2.45,10.9-4.28.17-.1.35-.22.53-.33.06.68.1,1.37.13,2.03ZM350.57,561.43c1.52,2.15,2.35,4.58,2.82,7.06-.1.04-.21.09-.3.14-.3.21-1.52,1.11-2.76,1.69-2.22,1.1-3.79,1.94-5.41,2.52-2.49.74-4.15.94-6.02,1.06-3.32.06-6.66.16-9.97-.18-1.27-.09-8.98-1.83-10.08-2.56-1.73-.76-3.46-1.53-5.01-2.62-.33-.16-.89-.79-1.54-1.16.2-1.69.53-3.4,1-5.08.87-2.95,1.96-5.89,2.21-8.97.24-2.88-.06-4.66.76-6.7.02-.05.05-.11.09-.18,1.07,1.02,3.7,1.16,4.85,1.07,1.45-.22,2.13-.54,3.51-1.69.4-.29.84-.79,1.05-1.3,1.46.21,2.93.36,4.42.36,2.65-.05,5.34-.2,7.97-.67.13.15.28.29.45.4.06.04.12.08.18.12.49.48,1.29.77,1.89.59.02.03.04.06.06.09.41.4.78,2.45.75,2.55.19,1.86.25,3.8,1.21,5.46,1.57,2.85,6.89,6.75,7.9,8.01ZM317.55,544.48c.39-.46.85-.85,1.22-1.33,1.01.31,2.05.53,3.09.7.42.08.84.16,1.25.23-.08.08-.17.17-.25.25-.49.39-.8.68-1.8.87-.09,0-.19.01-.28.02-.98-.03-.68.02-1.91-.28-.63-.11-.93-.36-1.34-.46ZM368.15,418.02c-1.73,16.21-3.5,29.62-6.59,45.92-.96,4.87-2.57,9.59-3.74,14.41-.64,3.08-.49,4.12-1.15,6.79-1.44,6.35-4.22,12.27-6.63,18.3-2.21,5.61-3.9,11.41-4.86,17.37-.77,4.47-2.1,8.82-2.82,13.3-.07,1.22-.55,2.8-.45,4.12-.09.05-.18.11-.27.16-.21.13-.76.39-1.1.55-2.75,1-3.8.93-5.75,1.2-2.4.25-4.82.33-7.23.11-.89-.06-8.11-1.2-9.01-2.01-1.16-.83-.72-.37-2.03-1.89.07.09.07.1-.03-.04,0,0,0,0,0,0,0,0,0,0,0-.01-.06-.08-.12-.15-.18-.23-.11-.16-.22-.3-.36-.43.61-3.44-.16-7.28-.38-9.09-1.46-8.43-2.02-17.92-.04-26.29.6-2.71,1.44-5.36,2.33-7.99.75-2.37,1.11-2.58,1-5.05-.2-2.81-1.06-3.9-.88-6.2-.09-1.76.85-3.38,1.07-5.87-.14-8.14-1.72-16.24-3.95-24.05-1.48-4.89-2.38-9.92-3.57-14.88-.22-.94-.42-1.88-.57-2.83,2.57-1.29,5.08-2.69,7.54-4.18,2.48-1.49,5.07-2.86,7.4-4.59.69-.77.69-1.87-.62-1.77-.96.11-1.7.85-2.56,1.25-2.04,1.08-4.15,2.05-6.27,2.98-4.44,2.01-7.27,3.01-12.28,4.55-1.68.61-2.54,1.03-3.25,1.31-.4-2.94-1-5.85-2.02-8.67-.9-2.41-1.95-4.8-3.46-6.89-2.56-3.4-5.74-5.8-8.39-7.72-1.6-1.15-3.36-2.03-5.16-2.8-.95-.44-2.51-1.17-3.14.06-.19,1.13.99,1.62,1.85,1.96,1.08.49,2.1,1.09,3.08,1.74,3.14,2.36,6.5,5.93,8.59,9.59,2.84,4.81,3.97,11.15,5.12,17.92.99,5.47,1.2,14.41,1.09,21.65-.02,5.85.09,11.71-.32,17.54-.78,7.26-1.57,14.5-1.73,21.81-.06,1-.14,2-.22,2.99-.8-1.12-1.55-2.11-2.13-2.83-.74-.93-1.25-2.04-2.02-2.94-.41-.37-1.16-.68-1.64-.26-.71.8-.12,1.85.36,2.6,1.53,3.01,2.78,6.17,4.46,9.12,1.62,2.92,2.06,4.01,2.87,6.87-.02,0-.01.06.03.21,0,.13,0,.27,0,.4-.02.06-.05.17-.09.33-.02.04-.03.07-.05.1-.07.15-.16.29-.25.43.08-.09.11-.12,0,.01-.06.09-.12.17-.19.25.03-.06.1-.16.17-.23-.01.01-.02.02-.03.04-.1.11-.21.21-.32.3-.03.02-.06.04-.11.08-.43.28-.95.5-1.1.58-2.79.64-3.6.81-6.48.93-3.88-.04-7.74-.55-11.6-.95-4.01-.68-7.94-1.85-11.86-2.93-1.29-.45-1.55-.61-1.71-.66-.14-.09-.3-.15-.46-.19-.07-.04-.14-.07-.21-.1-2.28-1.38-2.9-3.11-3.76-7.35-1.22-5.48-2.04-11.05-3.4-16.5-1.77-6.97-4.68-13.56-6.85-20.4-.88-3.22-1.94-6.39-2.71-9.64-.69-3.59-1.13-7.21-1.75-10.81-.66-3.22-.31-4.37-1.26-8.06-.51-1.89-3.29-2.15-3.84-.08-.02.2-.03.4-.04.6-.4-.58-.79-1.16-1.14-1.76-2.03-3.39-2.77-8.27-3.82-13.04-1.96-8.31-.99-19.3-.34-29.4.34-4.21.63-7.3,1.15-10.51.05-.42.13-.83.21-1.24,5.74,3.95,13.97,8.09,16.04,9.12,4.31,1.88,8.62,3.85,13.18,5.06,6.13,1.53,12.4,2.54,18.64,3.49,23.67,3.44,47.56.21,70.96-3.67,1.8-.3,7.63-1.59,12.44-3.47.06.35.12.69.16,1.03-.03-.24-.03-.28.04.27,0-.09-.03-.18-.04-.27.03.25.09.72.11.99.12,1.25.2,2.51.3,3.76.39,5.54.45,11.1.02,16.64ZM367.13,390.92c-3.1,1.44-10.44,3.46-15.74,4.23-21.25,3.37-42.86,6.32-65.61,3.28-5.02-.68-12.63-1.92-19.26-3.58-5.66-1.61-8.32-2.9-13.44-5.27-5.07-2.71-10.17-5.43-14.93-8.68-1.44-.89-1.91-1.62-3.69-3.09.09-.45.13-.92.2-1.35.03-.23.12-.9.17-1.27.3-2.37.96-4.67,1.69-6.95.6-1.93,1.35-3.82,1.78-5.81.42-2.31.94-7.44,1.02-7.66.11-1.2.4-2.41.53-3.61.24.04.48.07.72.11,3.67.55,8.16,1.1,11.67,1.63,1.35.25,2.72.35,4.08.47,0,.29.05.58.13.85.21,1.08.45,2.15.81,3.19.72,2.18,1.83,4.23,3.18,6.08,1.13,1.6,1.42,1.58,2.38,3.53-.15-.53,1.66,4.29,2.21,6.57.79,2.83,1.3,5.83,2.79,8.4,1.67,2.93,4.26,2.38,5.05,1.25,1.32-1.67,1.14-4.23,1.32-6.26,0-.47,0-.94,0-1.42.52.8,1.03,1.62,1.48,2.47,1.46,2.83,4.31,7.9,6.35,8.54,2.46,1.11,4.87,0,4.73-2.89.08,0,.17,0,.24-.01-.02,0-.03,0-.06,0,.02,0,.05,0,.08,0,.08,0,.14-.01.17-.02.11,0,.31-.03.41-.06.44-.15.84-.36,1.19-.67,1.51-1.58,1.95-4.32,1.86-7.08.61,1.14,1.27,2.24,1.97,3.32.64.93,1.27,1.93,2.24,2.54,1.23.76,2.06.81,3.28-.35.49-.64.75-1.2.52-.97,1.59-2.77-.05-9.36-.65-12.05-.6-2.73-1.39-5.39-2.32-8.02.12.02.24.03.36.05,1.52.2,3.05.4,4.59.41,4.44.19,7.04-2.79,4.8-6.3-1.26-2-3.55-2.86-5.5-4.03-3.29-1.95-6.31-4.32-9.41-6.55-4-3.3-8.61-5.1-11.44-8.1-1.73-1.8-2.31-2.98-4.19-5.44-3.81-5.03-6.88-9.21-11.9-14.35-1.84-1.98-3.94-3.69-6.06-5.34-.24-.19-.48-.39-.73-.57.28-.22.55-.47.79-.74.67.46,1.49.79,2.18.99.1-.04.96.31,2.02.13.28-.02.57-.04.84-.14.06.02.38-.06.62-.19.1-.03.22-.08.34-.14.11-.03.21-.09.3-.15.52-.23,1.8-.9,2.18-1.22,2.98-2.23,5.15-5.33,7.67-8.04,2.53-3.08,5.51-6.14,7.16-9.8,1.46-1.41,2.46-4.79,2.93-6.2,2.37-8.21,1.69-17.34-2.36-24.91-2.85-5.58-7.09-10.8-13.35-12.55-2.56-.62-5.23-.78-7.85-.44-1.03.2-2.35,0-3.06.91-.17.22-.3.51-.23.79.4.99,1.61.88,2.47.71.27-.03.69-.08.82-.1.8-.09,1.6-.18,2.41-.21,2.66-.13,4.96.33,6.6,1.09,5.25,2.46,7.75,5.94,10.39,11.34,2.44,4.96,3.68,10.85,3.11,17.24-.04,2-1.34,6.74-2.11,8.2-.11.28-.24.54-.37.81-.27.08-.54.24-.79.5-1.11,1.7-2.58,3.28-4.4,5.4-1.73,2.07-3.48,4.13-5.17,6.23-1.73,2.28-2.01,3.01-4.03,4.99-1.34,1.29-2.45,1.61-3.6,1.94-.05,0-.1,0-.15,0-.24-.07-.49-.08-.74-.14-.06-.02-.13-.05-.21-.07-.05-.02-.08-.02-.1-.03-.2-.08-.41-.15-.61-.22-.03-.01-.07-.03-.1-.04.15-.23.31-.47.44-.71.63-.03,1.21-.42,1.38-1.09.26-.86-.18-1.67-.63-2.38-.76-1.29-1.57-2.54-2.51-3.71-4.42-5.41-8.8-10.91-14.02-15.58-2.55-2.48-5.44-4.53-8.31-6.6-1.1-.78-2.19-1.66-3.47-2.12-1.18-.31-2.63.45-2.6,1.78,0,.33.07.61.19.86-.61.52-1.17,1.17-1.71,1.61-.2.2-.39.41-.59.62-.34-1.02-.26-.94-.33-2.05.06-.94-.06-.42.34-1.89,1.1-2.79,4.12-7.43,6.91-10.39,3.68-4.1,7.98-7.57,12.3-10.96,7.04-5.93,14.24-11.15,23.51-15.42,4.78-2.31,9.56-4.18,15.69-5.56,1.47-.34,2.96-.63,4.44-.89.38-.02.77-.14,1.11-.34.28.11.56.22.84.32.09.13.18.25.27.36.05.07.1.14.14.21-.13.21-.26.41-.4.58.54-.81-.76,1.05-1.03,1.38-.76,1.05-1.48,2.13-2.07,3.28-3.92,7.38-1.62,16.63,3.54,22.81,2.92,3.46,7.12,5.37,11.23,7.03,4.81,1.93,10.03,3.32,15.24,2.65,2.21-.26,4.32-1.04,6.39-1.83,2.6-1.02,5.06-2.44,6.92-4.56,3.62-4.47,6.87-10.04,6.8-15.95-.09-2.71-.86-5.33-1.99-7.78-.49-.86-.83-1.9-1.45-2.68,1.02-.1,2.05-.22,3.07-.36.37.03.75.05,1.16.17,1.51.32,2.99.76,4.42,1.34,1.68.73,3.39,1.68,5.12,2.81.29.66.58,1.32.87,1.98.23.5,1.65,4.29,2.17,5.98.86,2.83,1.75,5.66,2.77,8.44.15.55.44,1.11.97,1.37.39.22.81.13,1.02-.28.53-.9-.05-1.88-.27-2.78-1.18-4.08-2.37-8.16-3.92-12.11,5.57,4.34,11.13,10.15,16.12,15.84,4.36,5.19,9.2,9.96,13.82,14.92,3.77,3.96,7.14,8.4,11.51,11.73.12.1.25.19.38.29-.3,1.03-.43,1.1-1.38,2.78-3.96,5.44-10.5,10.79-17.1,15-3.08,1.82-3.98,2.29-6.74,3.17-.66.26-1.41.37-2.09.61-.92-10.84-2.37-21.65-5.07-32.19-.66-2.51-1.55-4.96-2.21-7.47-.47-1.27-.31-2.96-1.46-3.83-.36-.24-.89-.3-1.21.03-.68.64-.5,1.59-.27,2.39.29,1.24.55,2.5.87,3.73.8,2.58,2.04,9.09,2.09,10.08,2.41,19.92,3.78,39.94,5.08,59.95.34,10.53,1.3,21.02,2.11,31.52.08,4.34.42,8.66.79,12.99.07,1.14.12,2.29.19,3.43,0,.41.03.83.14,1.22-.7.43-1.44.79-2.18,1.14ZM494.74,310.18s.02.03.02.05c.07.21.06.3.07.41-.04.16-.09.31-.14.47,0,0-.02.03-.05.08,0,.02-.01.02-.02.03-.02.02-.06.06-.12.12-.04.03-.06.05-.07.06-.04.02-.07.05-.1.08-.03,0-.09.02-.15.04-.06,0-.14,0-.21.01-1.91.06-5.6-2.22-8.42-4.18-.7-.52-1.43-1.02-2.15-1.51,3.23-.13,5.38-1.47,5.94-3.32.44.5.87,1,1.3,1.5,1.04,1.23,2.84,3.81,4.11,6.18ZM498.31,299.92c-2.05-.28-6.77-2.33-10.04-2.85-.74-.16-1.91-.56-2.73-.35-.21-.15-.41-.3-.62-.45-2.96-2-6.08-3.76-8.92-5.95-1.54-1.19-3.11-2.34-4.75-3.4-1.2-.69-3-.22-3.38,1.2-.65,3,3.57,3.34,4.13,3.88,2.39,1.27,4.71,2.69,7.11,3.94,2.71,1.48,5.04,2.69,6.65,4.42.06.09.13.19.18.29.04.09.08.18.12.25.06.16.11.32.16.48.04.16.07.25.08.29,0,.05,0,.1,0,.16,0,.02-.01.03-.02.06h0s0,.02,0,.03c-.04.06-.07.12-.11.17-.05.05-.09.09-.11.11-.19.12-.38.22-.58.32-1.93.55-4.83.14-8.41-1-1.93-.64-2.19-.77-3.63-1.41-.19-.11-.29-.15-.34-.16-.34-.31-.46-.22-.71-.36,0,0-.01,0-.02,0-.27-.12-.73-.18-.84-.19-.49-.05-1,.07-1.48.16-1.47.44-2.71,1.37-4.03,2.1-1.65.93-2.09,1.14-3.16,1.5-.57.21-1.19.22-1.73.5-.75.4-1.23,1.34-.78,2.13.79,1.3,2.41.86,3.62.53,1.2-.28,2.54-.91,3.79-1.57.24-.03.47-.08.7-.13.15-.02.22-.03.25-.04,3.99-.09,6.57.26,10.11,1.62.21.1.64.29.81.32.15.04.29.06.44.06,0,0,.01,0,.02.01.97.7,2.03,1.28,3.04,1.92,1.18.79,2.37,1.6,3.59,2.35.12.34.32.67.53.94.61,1.07.56.95.88,1.93.2.95.23.66.18,1.5-.33.05-.63-.09-1.87-.85-2.25-1.7-4.54-3.33-7-4.72-.99-.69-2.19-1.82-3.36-.79-.03.04-.05.09-.08.13,0,0-.02.02-.04.03h0s0,0,0,0h0s0,0,0,0c-.1.08-.31.27-.36.39-.18.3-.25.66-.26,1.01.04.65.38,1.23.55,1.85.58,1.57,1.56,4.8,1.48,5.22.01.14,0,.28,0,.43,0,0,0,.01,0,.02,0,.03-.02.06-.03.08,0,.01-.02.02-.02.03-.92-.29-2.49-1.74-3.26-3.06-4.66-6.75-2.62-6.9-11.08-6.73-1.52-.14-2.06-.16-4.17-.85t0,0c-.56-.28-1.23-.5-1.84-.28-1.8-.6-3.29,1.46-4.72,2.33-1.57,1.22-3.18,2.39-4.85,3.48-4.18,2.72-8.55,5.15-12.71,7.91-4.62,3.22-9.48,6.02-14.56,8.44-7.92,3.87-19.87,6.9-28.98,7.12-4.23.04-9.39-2.36-12.69-5.12-2.78-2.33-5.47-5.22-6.92-7.4-.71-1.07-1.41-2.15-2.07-3.25-.08-.14-.18-.28-.3-.4l-.02-.28c-.15-2.56-.31-5.13-.5-7.7,1.67.03,3.43-.89,5-1.36,5.04-1.93,9.36-5.24,13.59-8.51,2.59-1.93,4.91-4.18,7.15-6.5.29-.3.59-.62.88-.93.74.7,1.62,1.32,2.24,1.83,2.19,1.74,4.99,3.13,7.85,2.64,2.7-.38,5.28-1.31,7.92-1.94,5.27-1.13,10.5-2.37,15.63-4.02,9.47-2.76,22.74-7.52,30.5-8.65,2.11-.42,8.35.28,8.49.31,4.16.54,8.29,1.41,12.24,2.87,4.85,1.84,7.45,2.68,11.73,5.32,3.58,2.32,5.8,3.1,7.12,5.92.08.23.1.25.08.18.05.15.09.3.14.45-.21.01-.72.05-.9,0Z"/>
</svg>